<?xml version="1.0" standalone="no"?>
<!DOCTYPE svg PUBLIC "-//W3C//DTD SVG 20010904//EN"
 "http://www.w3.org/TR/2001/REC-SVG-20010904/DTD/svg10.dtd">
<svg version="1.0" xmlns="http://www.w3.org/2000/svg"
 width="1080.000000pt" height="1080.000000pt" viewBox="0 0 1080.000000 1080.000000"
 preserveAspectRatio="xMidYMid meet">

<g transform="translate(0.000000,1080.000000) scale(0.100000,-0.100000)"
fill="#000000" stroke="none">
<path d="M7675 9324 c-16 -2 -73 -9 -125 -15 -451 -50 -1140 -241 -1506 -419
-809 -392 -1170 -1120 -1018 -2050 24 -149 77 -356 153 -600 160 -518 212
-803 163 -900 -23 -47 -64 -59 -173 -53 -54 4 -99 1 -122 -6 -44 -15 -90 -59
-118 -112 -10 -22 -36 -50 -57 -64 -46 -30 -140 -49 -199 -40 -43 6 -43 6 -43
49 0 64 -19 154 -47 226 -87 217 -243 363 -473 442 -88 30 -105 32 -225 33
-126 0 -132 -1 -197 -32 -85 -40 -146 -97 -189 -175 -32 -60 -34 -68 -34 -163
0 -110 13 -148 77 -220 75 -86 154 -86 281 -1 l28 19 -12 -27 c-7 -14 -9 -29
-6 -32 13 -13 96 -23 195 -24 126 0 231 22 273 58 28 23 31 30 26 69 -2 24 -3
43 0 43 2 0 17 -7 32 -14 44 -23 89 -81 96 -123 11 -73 59 -136 118 -156 26
-8 -9 -134 -81 -285 -39 -81 -76 -165 -82 -186 -18 -56 -16 -140 3 -169 l16
-24 -65 -7 c-228 -23 -499 -138 -992 -420 -230 -131 -343 -186 -385 -186 -14
0 -29 -6 -36 -13 -18 -23 8 -37 69 -37 42 0 61 -5 72 -17 23 -27 59 -103 122
-258 70 -170 111 -247 184 -343 94 -125 214 -207 369 -256 95 -29 192 -42 391
-52 78 -4 142 -10 142 -14 0 -16 -102 -73 -163 -92 -69 -22 -154 -24 -293 -9
-238 25 -533 -46 -694 -167 -195 -148 -229 -379 -89 -615 53 -90 192 -229 279
-280 356 -207 885 -177 1254 72 285 193 562 510 919 1052 679 1032 1385 2308
1711 3093 187 448 259 715 276 1013 14 276 -8 535 -65 752 -14 52 -24 95 -23
96 2 1 19 8 38 15 67 26 146 91 273 224 129 137 152 174 100 162 -94 -20 -298
-56 -353 -62 l-65 -7 26 34 c41 54 154 249 215 370 68 136 127 311 148 439 24
144 46 442 34 458 -10 11 -79 14 -153 6z m110 -126 c-30 -388 -64 -525 -193
-781 -75 -146 -178 -320 -227 -381 -20 -26 -32 -30 -84 -34 -57 -4 -62 -3
-101 31 -91 78 -271 150 -455 183 -146 27 -448 24 -606 -4 -343 -62 -586 -192
-734 -393 -72 -97 -56 -128 32 -65 27 18 71 45 98 59 47 23 188 77 203 77 4 0
-79 -85 -183 -190 -134 -134 -186 -193 -179 -200 14 -14 367 -93 559 -125 382
-64 670 -46 858 52 87 46 200 129 288 211 l66 61 48 -14 c26 -8 81 -15 120
-15 l73 0 21 -80 c56 -207 76 -401 68 -675 -6 -207 -18 -301 -62 -468 -169
-651 -769 -1841 -1643 -3257 -408 -661 -654 -994 -929 -1261 -283 -272 -496
-378 -828 -409 -207 -19 -412 17 -585 102 -70 35 -102 60 -185 143 -149 148
-212 283 -203 429 11 171 135 298 365 376 175 58 287 67 578 44 129 -10 255
31 364 117 46 37 60 42 126 50 162 18 359 82 493 161 85 50 210 179 254 263
66 128 111 332 89 411 -8 30 -7 38 15 59 52 52 69 110 69 230 0 106 -1 113
-36 186 -42 88 -114 165 -204 219 -56 33 -64 35 -150 35 -49 0 -124 -4 -165
-9 -59 -7 -87 -5 -128 7 -29 9 -80 19 -115 23 -102 11 -137 38 -137 106 0 54
18 105 95 268 41 85 76 173 80 195 14 92 7 85 88 85 96 0 168 22 218 67 36 32
45 36 102 37 67 2 179 46 225 89 13 12 42 31 65 42 81 39 106 116 87 272 -23
182 -77 401 -190 764 -72 232 -112 389 -142 564 -19 112 -23 166 -23 390 0
233 2 272 23 374 114 560 450 971 1018 1243 136 65 498 190 764 263 297 82
691 152 868 154 l73 1 -6 -82z m-1095 -1023 c52 -8 129 -24 170 -35 87 -24
249 -101 276 -132 l19 -21 -170 6 c-112 3 -204 12 -270 25 -197 40 -328 56
-475 56 -165 0 -234 -15 -340 -70 -36 -18 -118 -49 -183 -69 -66 -20 -148 -49
-184 -65 -37 -17 -68 -28 -70 -26 -8 8 122 118 185 156 132 78 332 145 519
174 120 19 404 20 523 1z m-441 -149 c-2 -2 -47 -6 -99 -8 -52 -3 -81 -2 -65
2 30 8 172 13 164 6z m1463 -43 c-89 -112 -263 -253 -312 -253 -5 0 -28 37
-51 81 l-40 81 29 36 c28 36 31 36 153 54 68 9 144 21 169 27 83 17 85 15 52
-26z m-1001 -9 c113 -22 162 -26 316 -26 l181 -1 21 -28 21 -28 -68 -71 -67
-72 -195 96 c-107 52 -235 108 -285 125 -111 38 -96 38 76 5z m-231 -9 c117
-25 214 -62 413 -160 l189 -92 -64 -55 c-165 -145 -299 -222 -443 -255 -116
-26 -411 -24 -592 5 -126 20 -500 98 -535 111 -13 5 13 37 123 153 77 81 172
171 212 202 73 54 74 54 198 75 161 26 173 28 311 29 72 1 144 -4 188 -13z
m814 -20 c-4 -8 -10 -15 -14 -15 -4 0 -10 7 -14 15 -4 10 1 15 14 15 13 0 18
-5 14 -15z m9 -138 c14 -24 29 -55 32 -70 7 -26 6 -27 -31 -27 -46 1 -122 15
-131 24 -5 5 94 116 103 116 1 0 13 -19 27 -43z m-3263 -2053 c89 -20 254
-103 318 -159 81 -72 173 -220 202 -325 19 -69 28 -180 14 -180 -27 0 -60 47
-73 103 -16 73 -62 133 -126 166 -43 23 -65 26 -163 29 -159 5 -233 -18 -418
-129 -103 -62 -132 -68 -178 -40 -41 26 -92 99 -107 155 -25 91 14 219 90 295
102 102 245 130 441 85z m227 -439 c41 -47 29 -64 -57 -88 -83 -23 -154 -30
-237 -22 l-75 7 27 28 c31 33 114 74 187 95 72 20 127 13 155 -20z m919 -90
c-11 -8 -44 -24 -72 -35 -105 -39 -129 -36 -81 7 26 25 77 41 132 42 37 0 39
-1 21 -14z m-645 -910 c24 -9 71 -19 104 -22 80 -8 111 -25 125 -69 21 -62 -5
-132 -115 -312 -30 -51 -58 -106 -62 -122 -4 -20 -13 -32 -28 -36 -36 -9 -126
13 -229 57 -71 29 -108 39 -149 39 -110 0 -273 -46 -392 -110 -150 -82 -268
-89 -505 -31 -69 17 -136 33 -149 37 -19 4 0 18 115 83 77 42 218 122 314 176
335 189 574 283 810 319 59 8 120 5 161 -9z m553 -34 c112 -55 211 -182 236
-306 20 -99 -6 -222 -57 -268 -19 -17 -22 -17 -64 3 -34 15 -66 20 -136 20
-88 0 -95 2 -165 40 -84 46 -119 49 -196 20 -93 -36 -93 -31 -2 125 89 153
113 214 107 280 -2 27 -7 59 -11 71 -7 19 -2 21 66 31 103 15 166 10 222 -16z
m-781 -510 c96 -43 162 -61 227 -61 52 0 58 -2 69 -26 6 -15 10 -28 9 -29 -11
-11 -132 -46 -173 -51 -66 -8 -353 11 -540 36 -82 11 -152 20 -155 20 -20 1
152 83 219 104 169 54 237 55 344 7z m542 -23 c25 -12 45 -25 45 -28 0 -5
-202 -50 -226 -50 -6 0 -16 11 -22 24 -10 23 -8 25 56 49 85 31 92 32 147 5z
m295 -68 c12 -8 12 -10 -5 -9 -11 0 -29 4 -40 9 -18 8 -18 9 5 9 14 0 32 -4
40 -9z m-116 -26 c53 -19 87 -25 134 -23 81 3 87 -6 79 -110 -9 -105 -30 -181
-79 -281 -32 -67 -58 -102 -120 -162 -66 -66 -96 -86 -191 -133 -108 -53 -271
-102 -391 -120 -45 -6 -48 -5 -40 12 18 36 9 155 -19 240 -72 224 -59 358 43
446 31 27 56 38 103 46 34 6 74 20 88 30 14 11 77 31 140 44 63 14 123 28 134
30 37 9 47 7 119 -19z m-1589 -58 c55 0 154 4 220 8 99 7 148 4 280 -13 88
-12 228 -25 311 -28 l151 -6 -33 -48 c-49 -74 -57 -108 -51 -228 4 -81 12
-129 36 -206 38 -120 44 -189 17 -227 -22 -34 -35 -34 -306 -13 -188 14 -260
28 -359 68 -164 66 -316 226 -402 424 -12 26 -46 107 -76 178 -30 72 -56 135
-59 142 -3 6 34 -3 83 -20 75 -26 103 -30 188 -31z"/>
</g>
</svg>
