<?xml version="1.0" standalone="no"?>
<!DOCTYPE svg PUBLIC "-//W3C//DTD SVG 20010904//EN"
 "http://www.w3.org/TR/2001/REC-SVG-20010904/DTD/svg10.dtd">
 
<svg version="1.0" xmlns="http://www.w3.org/2000/svg"
width="1920.000000pt" height="1080.000000pt" viewBox="0 0 1920.000000 1080.000000"
preserveAspectRatio="xMidYMid meet" >

<g   fill="#000000" stroke="none" >
  <path
      d="m17.495 348.1c-1.17-3.31-2.44-10.61-2.391-13.75 0.042-2.68 0.38-1.98 1.448 3 0.765 3.58 1.855 7.53 2.42 8.8 1.281 2.86 1.281 3.2-0.003 3.2-0.568 0-1.231-0.56-1.474-1.25zm-10.471-7c0.0363-4.96 1.6439-10.85 3.4491-12.64 1.488-1.48 1.487-1.29-0.011 2.31-0.987 2.37-1.4996 5.83-1.297 8.75 0.2342 3.38-0.0413 4.83-0.915 4.83-0.7484 0-1.2404-1.3-1.2261-3.25zm16.978-2.75c-1.122-2.19-2.254-6.13-2.516-8.75l-0.478-4.75 1.904 5.79c1.047 3.18 2.62 6.87 3.496 8.21 1.846 2.82 1.966 3.5 0.612 3.5-0.538 0-1.897-1.8-3.018-4zm-24.002-0.98c0-2.6 2.7782-9.58 5.6443-14.19 4.0565-6.53 6.3747-15.03 7.8567-28.83 2.304-21.45 4.296-33.07 6.991-40.78 1.63-4.67 2.515-9.38 2.528-13.45 0.011-3.45 0.465-9.42 1.01-13.27s1.232-8.8 1.527-11 0.945-5.35 1.443-7 1.191-5.02 1.538-7.5c0.348-2.47 0.962-4.95 1.365-5.5 0.402-0.55 1.566-3.54 2.587-6.65 1.08-3.29 3.367-7.26 5.473-9.5 4.625-4.92 12.169-10.19 13.787-9.62 0.688 0.24 1.25-0.1 1.25-0.75 0-0.66 0.661-0.94 1.468-0.63s1.713 0.17 2.012-0.32c0.299-0.48 2.788-1.62 5.532-2.53 2.743-0.91 4.988-2.03 4.988-2.48s1.238-1.26 2.75-1.79c5.911-2.08 9.685-8.46 10.49-17.73 0.215-2.48-0.085-2.96-1.74-2.77-4.125 0.48-6.098 0.43-9.605-0.25-3.716-0.72-4.598 0.19-5.378 5.54-0.46 3.16-4.312 10.56-6.496 12.48-1.894 1.67-1.762 1.2 0.799-2.86 1.688-2.67 3.373-6.27 3.745-8s1.271-4.31 1.999-5.73c1.261-2.47 1.158-2.67-2.154-4.25-4.407-2.1-4.41-2.1-4.41 0.62 0 2.26-5.217 13.31-7.19 15.22-0.566 0.55-0.032-0.99 1.188-3.42 1.219-2.43 3.029-6.88 4.021-9.89l1.804-5.47-2.914-2.45c-1.603-1.35-2.662-2.86-2.353-3.36s0.305-0.91-0.01-0.91c-0.693 0-4.962 9.51-5.834 13-0.344 1.38-2.763 4.53-5.377 7l-4.751 4.5 3.995-4.5c2.297-2.59 5.004-7.26 6.371-11 1.306-3.57 2.783-7.03 3.28-7.68 0.572-0.75 0.283-2.13-0.79-3.77-1.328-2.03-1.989-2.34-3.066-1.44-0.756 0.62-1.374 1.65-1.374 2.28 0 1.55-5.048 8.9-5.677 8.27-0.274-0.28 0.524-2 1.774-3.83s3.129-4.6 4.176-6.16c1.261-1.87 1.691-3.68 1.273-5.34-0.584-2.33-0.793-2.41-2.783-1.09-1.184 0.79-2.628 2.25-3.208 3.25-1.858 3.19-10.847 12.55-11.462 11.93-0.326-0.33 0.582-1.57 2.018-2.76 4.385-3.63 13.57-15.12 13.133-16.43-0.807-2.42-4.261-1.15-11.444 4.22-6.869 5.13-10.8 7.21-10.8 5.7 0-0.36 1.337-1.25 2.971-1.98 1.634-0.72 5.538-3.3 8.675-5.74s6.472-4.43 7.412-4.43c2.39 0 3.068-3.47 0.974-4.98-1.063-0.76-1.546-2.11-1.272-3.54 0.428-2.24 0.31-2.28-3.909-1.34-2.393 0.54-5.658 1.62-7.255 2.42-1.597 0.79-3.569 1.44-4.382 1.44s-2.881 0.85-4.596 1.89c-2.119 1.28-3.759 1.62-5.118 1.07-1.88-0.77-1.886-0.82-0.108-0.89 1.041-0.04 5.876-1.64 10.744-3.57 4.868-1.92 9.952-3.5 11.298-3.5 2.811 0 4.273-1.693 2.765-3.201-0.703-0.703-2.554-0.685-5.863 0.058-7.513 1.685-17.336 2.873-17.336 2.103 0-0.387 2.362-0.987 5.25-1.336 11.952-1.443 17.72-2.954 18.305-4.796 0.934-2.942-0.486-4.06-4.422-3.48-5.485 0.807-16.28 2.534-19.383 3.101-1.512 0.276-2.75 0.063-2.75-0.474 0-0.536 0.788-0.961 1.75-0.945 0.962 0.015 6.788-0.768 12.946-1.741 8.923-1.411 11.29-2.127 11.656-3.528 0.657-2.509-0.679-2.978-6.619-2.324-10.712 1.18-18.801 1.483-18.308 0.684 0.28-0.453 5.958-1.074 12.618-1.381s12.29-0.739 12.511-0.961c0.222-0.221 0.525-1.499 0.674-2.84 0.218-1.957-0.123-2.367-1.728-2.076-5.581 1.01-21.807 1.23-22.73 0.308-0.698-0.699 2.116-1.025 8.853-1.027 13.751-0.005 17.377-0.761 17.377-3.624 0-2.151-0.49-2.297-9.968-2.969-5.482-0.388-11.22-1.116-12.75-1.617-2.077-0.68-1.38-0.775 2.752-0.377 3.043 0.293 9.439 0.732 14.213 0.974 7.313 0.372 8.591 0.212 8.12-1.018-0.308-0.802-2.204-1.709-4.214-2.015-2.009-0.306-5.035-0.994-6.724-1.527-1.689-0.534-3.971-0.971-5.072-0.971-2.394 0-11.643-3.047-11.05-3.64 0.229-0.229 1.716 0.088 3.304 0.703 1.589 0.615 4.464 1.228 6.389 1.362 3.239 0.226 8.506 1.451 15.25 3.547 2.648 0.823 2.908 0.649 3.15-2.111 0.055-0.627-2.15-1.768-4.9-2.536-11.848-3.31-20.753-6.405-20.153-7.005 0.231-0.231 3.158 0.503 6.505 1.631 3.347 1.127 6.705 2.049 7.463 2.049s2.684 0.622 4.281 1.382c4.652 2.212 9.142 2.742 9.753 1.151 0.716-1.865-2.63-3.896-9.849-5.978-6.063-1.749-15.878-6.51-15.075-7.313 0.24-0.239 2.604 0.697 5.255 2.081 2.651 1.385 6.845 3.084 9.32 3.776 2.475 0.693 6.196 2.093 8.27 3.111 3.439 1.689 3.824 1.708 4.395 0.22 0.72-1.876-1.185-3.392-4.293-3.414-1.17-0.009-2.687-0.691-3.372-1.516s-1.977-1.504-2.872-1.509c-2.1-0.012-14.558-7.894-13.752-8.7 0.337-0.336 1.402 0.09 2.368 0.948 2.467 2.191 17.433 9.757 19.306 9.759 0.852 0.002 2.093 0.546 2.757 1.21 0.943 0.942 1.576 0.838 2.891-0.477 0.925-0.925 1.485-1.806 1.242-1.957-0.603-0.375-5.81-3.128-16.179-8.555-4.807-2.516-8.564-4.749-8.35-4.963 0.56-0.56 13.461 5.507 17.589 8.273 5.779 3.872 8.119 4 11.355 0.623 3.131-3.268 2.764-5.29-1.599-8.824-1.241-1.005-2.842-2.953-3.558-4.328-0.717-1.375-3.079-3.823-5.25-5.441-2.172-1.618-3.948-3.328-3.948-3.8 0-1.897 7.793 4.47 10.469 8.554 0.968 1.478 3.208 4.267 4.978 6.2l3.218 3.513 2.415-2.095c2.149-1.864 2.241-2.224 0.828-3.263-0.874-0.642-3.732-4.302-6.353-8.134s-5.285-7.432-5.92-8-2.276-2.347-3.645-3.953l-2.49-2.92 2.532 1.844c1.392 1.015 4.092 3.841 6 6.282 11.295 14.45 12.129 15.325 13.516 14.173 0.751-0.622 1.857-0.827 2.46-0.455 1.745 1.079-1.716-6.368-4.494-9.671-1.383-1.643-2.514-3.788-2.514-4.766 0-0.979-1.619-3.9-3.598-6.492s-3.383-4.9275-3.121-5.1902c0.743-0.7423 6.199 6.6142 8.615 11.614 4.213 8.719 6.129 12 7.005 12 2.193 0 1.726-3.383-1.336-9.679-1.825-3.751-4.124-8.621-5.11-10.821-0.985-2.2-1.967-4.337-2.182-4.7495s0.017-0.75 0.516-0.75 1.72 1.9125 2.712 4.2495c0.993 2.338 3.086 6.986 4.652 10.329 1.566 3.344 2.847 6.606 2.847 7.25 0 0.645 1.125 1.171 2.5 1.171s2.5-0.263 2.5-0.585c0-1.918-3.541-13.415-4.132-13.415-0.392 0-1.255-1.687-1.917-3.75-0.662-2.062-1.754-4.4245-2.425-5.2495-2.218-2.7239-2.7-4.004-1.305-3.4688 1.208 0.4637 4.779 7.3933 4.779 9.2753 0 0.437 0.561 1.355 1.247 2.04 0.686 0.686 2.148 4.039 3.25 7.45 1.572 4.869 2.433 6.203 4.003 6.203 2.627 0 3.171-4.302 1.06-8.383-0.858-1.66-1.56-3.969-1.56-5.131 0-1.163-0.945-4.312-2.101-6.998-1.155-2.6858-1.918-5.4304-1.695-6.099 0.545-1.6342 7.796 20.368 7.796 23.655 0 2.225 0.318 2.494 2.25 1.9 3.056-0.94 3.072-0.972 1.735-3.472-0.648-1.209-0.983-3.836-0.745-5.835 0.237-2-0.164-5.887-0.892-8.6365-0.729-2.75-1.289-5.9-1.246-7s0.939 1.15 1.99 5c1.052 3.8495 1.708 7.8635 1.459 8.9195-0.664 2.817 1.652 10.58 3.156 10.58s1.492 0.129 1.447-15.356c-0.019-6.5214 0.255-11.568 0.608-11.215 0.352 0.3526 0.73 5.2381 0.839 10.856 0.287 14.831 0.273 14.715 1.789 14.715 2.01 0 2.8-4.188 2.83-15l0.03-9.4995 0.79 9.4735c0.46 5.507 0.41 10.189-0.12 11.184-1.33 2.468-1.13 3.842 0.53 3.842 1.65 0 2.21-2.431 3.52-15.5 0.9-8.9726 0.9-8.9628 0.5 3.25-0.42 12.522-0.36 12.728 3.28 12.127 1.29-0.213 4.76-12.22 6.19-21.376 0.75-4.8473 0.78-4.8815 0.92-1.1166 0.14 3.7862-0.41 6.4486-3.58 17.478-1.3 4.531-1.32 5.497-0.16 6.235 2.94 1.859 4.29 0.282 6.27-7.333 0.8-3.092 1.95-6.524 2.54-7.627s1.09-3.4971 1.11-5.3208c0.01-1.8237 0.72-4.4407 1.56-5.8157 0.99-1.6083 1.28-1.7866 0.82-0.50004-0.4 1.1-1.07 4.25-1.5 7-0.44 2.7495-1.7 8.3605-2.81 12.468-2.08 7.667-1.71 9.397 1.84 8.776 1.59-0.276 4.64-7.481 6.36-14.994 0.6-2.612 1.41-4.7495 1.8-4.7495 0.85 0-1.31 9.6475-2.79 12.5-0.57 1.1-1.33 3.187-1.67 4.636-0.5 2.093-0.22 2.744 1.37 3.158 1.66 0.436 2.57-0.683 5.49-6.74 1.92-3.995 3.5-7.891 3.51-8.658 0.01-1.18 0.15-1.183 0.88-0.018 0.97 1.53-1.95 9.033-5.08 13.052-1.71 2.199-1.74 2.576-0.33 3.987s1.79 1.276 4.02-1.429c1.35-1.643 4.28-6.25 6.5-10.238 2.22-3.987 4.25-7.25 4.52-7.25 0.61 0-5.88 12.604-8.5 16.5-2.61 3.878-2.55 4.943 0.34 6.261 2.1 0.953 2.8 0.645 5.94-2.589 1.97-2.02 4.07-4.797 4.67-6.172 1.52-3.436 3.14-6.093 5.66-9.288 3.6-4.546 3.59-3.021 0 2.095-1.86 2.644-3.71 5.906-4.12 7.25-0.4 1.344-2.58 4.357-4.84 6.697-3.78 3.918-3.98 4.38-2.48 5.871 2.12 2.121 2.97 1.486 14.21-10.625 4.86-5.225 9.34-9.684 9.96-9.91 1.04-0.378-2.34 3.648-8.4 9.994-13.11 13.726-13.03 13.622-11.48 14.912 1.26 1.04 2.41 0.477 6.92-3.374 2.97-2.542 5.85-4.622 6.39-4.622s3.24-2.025 5.99-4.5c6.43-5.783 7.25-5.783 1.55 0-2.44 2.475-4.82 4.5-5.3 4.5s-3.05 2.025-5.7 4.5c-2.66 2.475-5.17 4.5-5.59 4.5-1.62 0-0.6 2.832 2.46 6.819 1.77 2.3 3.51 4.181 3.87 4.181 0.84 0 14.28-7.569 19.19-10.81 2.07-1.368 4.06-2.195 4.41-1.838 0.36 0.357 0.19 0.648-0.37 0.648-0.57 0-3 1.571-5.42 3.491-2.41 1.919-4.7 3.494-5.07 3.5-0.54 0.007-5.24 2.687-11.66 6.648-0.75 0.463 1.04 4.361 2.01 4.361 0.56 0 2.67-0.734 4.68-1.632 16.2-7.244 21.29-9.368 22.47-9.368 1.06 0-4.6 2.874-13.32 6.76-2.48 1.104-6.38 2.847-8.68 3.873-3.7 1.653-6.86 5.644-4.02 5.083 0.6-0.118 1.49 1.89 1.99 4.463 0.85 4.405 1.12 4.715 4.64 5.31 2.06 0.348 9.11 0.685 15.66 0.748 9.48 0.093 10.99 0.285 7.41 0.942-2.48 0.455-9.34 0.671-15.25 0.481-10.72-0.344-11.88 0.014-9.93 3.079 0.98 1.55 7.97 2.884 19.93 3.806 5.09 0.393 9.25 1.063 9.25 1.491 0 0.427-0.79 0.598-1.75 0.378-0.96-0.219-7.14-0.842-13.72-1.383-11.97-0.984-15.34-0.439-12.83 2.073 1.53 1.525 12.65 3.801 19.3 3.947 4.83 0.107 5.14 0.228 2.55 1.003-2.65 0.791-11.74 0.046-19.68-1.61-2.32-0.485-2.68-0.193-3.07 2.496-0.25 1.675-0.28 2.876-0.07 2.668 0.2-0.207 2.6 0.472 5.33 1.508s6.44 1.884 8.25 1.884 3.83 0.543 4.49 1.21c0.67 0.66 3.31 1.44 5.87 1.74 2.9 0.34 4.86 1.12 5.16 2.05 0.42 1.28 0.26 1.3-1.15 0.14-0.91-0.75-2.33-1.11-3.15-0.79-0.82 0.31-3.41-0.3-5.76-1.37-2.35-1.06-5.68-1.95-7.39-1.96-1.72-0.01-4.94-0.66-7.16-1.443s-4.3-1.158-4.63-0.834c-1.43 1.426-0.4 4.377 1.81 5.217 1.32 0.51 2.7 1.39 3.06 1.98 0.36 0.58 1.31 1.06 2.11 1.06s3.36 0.86 5.69 1.91 4.92 2.14 5.74 2.42c0.97 0.33 0.72 0.54-0.69 0.59-1.21 0.04-2.43-0.31-2.73-0.79s-2-1.16-3.79-1.52c-1.78-0.36-5.21-1.6-7.62-2.77-4.56-2.21-6.16-1.65-6.13 2.16 0.02 2.21 13.66 10 17.51 10 0.73 0 1.59 0.42 1.91 0.93 1.11 1.81-11.02-2.32-15.26-5.19-4.34-2.93-7.66-3.09-6.59-0.32 0.32 0.83 1.34 1.75 2.28 2.05 0.94 0.29 4.16 2.81 7.16 5.58s6.43 5.28 7.63 5.58 2.4 1.13 2.67 1.85c0.79 2.05-7.59-3.04-11.9-7.23-2.13-2.06-5-4.34-6.38-5.06-2.16-1.12-2.68-1.07-3.7 0.32-1.01 1.38 0.03 2.85 6.72 9.58 4.35 4.37 7.91 8.47 7.91 9.1s-0.16 0.96-0.36 0.73c-7.08-8.22-10.62-11.86-13.39-13.76-3.27-2.25-3.45-2.26-4.79-0.5-1.9 2.5-1.82 2.91 0.9 5.06 1.3 1.02 3.07 3.19 3.92 4.82s3.2 4.54 5.22 6.46c2.01 1.93 4.15 4.39 4.74 5.47 0.59 1.09-1.7-0.89-5.08-4.39-3.39-3.5-6.16-6.69-6.16-7.09 0-0.39-1.33-2.24-2.96-4.1-2.74-3.14-3.08-3.27-4.6-1.76-1.83 1.84-0.75 5.15 2.03 6.22 0.84 0.32 1.53 1.11 1.53 1.75s2.25 4.46 5 8.5c2.75 4.03 5 7.84 5 8.45 0 0.62-2.48-2.56-5.5-7.05s-5.5-8.39-5.5-8.66-1.3-1.8-2.9-3.39c-2.43-2.43-3.09-2.67-4.07-1.49-0.91 1.1-0.73 2.25 0.8 5.22 5.43 10.53 6.16 12.27 6.08 14.46l-0.08 2.36-0.78-2.5c-0.43-1.37-2.41-5.94-4.39-10.14l-3.6-7.64-4.03 2c-2.22 1.09-4.03 2.28-4.03 2.63 0 0.36-1.17 0.72-2.6 0.8-4.73 0.27-4.96 1.75-1.42 9.06 1.81 3.73 4.06 7.69 5.01 8.79 2.09 2.44 3.26 5.5 2.1 5.5-0.47 0-1.13-0.79-1.47-1.75s-2.18-4.45-4.1-7.75c-1.91-3.3-4.28-7.38-5.25-9.07-1.39-2.42-2.25-2.95-4.01-2.5-2.08 0.53-2.14 0.76-0.86 3.22 0.76 1.46 1.94 4.36 2.63 6.45 0.69 2.08 3.33 6.02 5.86 8.75 2.54 2.72 3.71 4.48 2.61 3.89-4.17-2.2-9.51-10.75-12.87-20.55-0.96-2.81-2.29-1.19-2.94 3.58-0.86 6.27 2.71 16.01 7.46 20.39 2.96 2.72 10.07 6.42 13.07 6.8 7.22 0.91 15.91 2.98 20.28 4.83 5.71 2.41 11.91 7.79 13.39 11.61 2.49 6.38 6.65 30.68 7.64 44.6 0.65 9.14 2.83 20.49 6.5 33.89 1.12 4.08 2.17 10.72 2.33 14.76 0.35 8.78 1.31 10.73 10.53 21.35 3.82 4.4 6.78 8.17 6.57 8.38-0.21 0.2-1.63-1.13-3.17-2.97-1.53-1.85-4.7-5.51-7.04-8.16-6.78-7.68-7.32-8.95-8.3-19.2-0.49-5.28-2.46-15.33-4.36-22.34-2.01-7.42-3.71-16.49-4.08-21.72-1.45-20.4-5.38-41.42-9.11-48.66-2.2-4.28-6.62-8.61-10.4-10.18-1.92-0.81-7.78-2.25-13-3.2-12.27-2.25-17-4.34-22.44-9.94-4.44-4.57-7.56-11.95-7.56-17.88 0-3.67 4.53-17.17 7.93-23.63 4.59-8.72 6.41-16.38 6.31-26.5-0.1-10.304-0.48-14.784-1.34-15.5-0.32-0.275-1.23-1.846-2.01-3.492-2.78-5.886-19.36-13.947-28.24-13.731-7.566 0.184-18.933 5.499-24.309 11.367-3.824 4.174-8.215 14.083-8.36 18.865-0.253 8.381 1.725 19.671 4.492 25.631 4.483 9.66 5.781 15.17 5.288 22.45-0.792 11.7-6.01 18.82-16.761 22.87-3.839 1.45-12.713 5.33-17.636 7.71-5.951 2.89-11.001 9.27-13.792 17.45-3.117 9.13-6.198 20.88-6.917 26.38-1.302 9.96-1.717 14.6-2.057 23-0.273 6.74-0.874 9.88-2.395 12.5-1.716 2.96-2.974 8.68-5.718 26-1.122 7.09-2.202 20.2-2.1 25.5l0.115 6 5.5 0.27 5.5 0.27 3.356-7.27c1.846-4 5.312-12.89 7.703-19.77 3.504-10.08 4.53-14.66 5.291-23.62 0.833-9.83 1.478-12.39 5.534-22 4.812-11.4 7.052-20.52 6.405-26.06-0.377-3.23-0.272-3.33 5.663-5.24 3.327-1.06 7.623-2.27 9.548-2.67 6.023-1.27 21.556-0.49 30.11 1.5 4.51 1.05 8.81 1.67 9.56 1.39 0.74-0.29 1.94-0.03 2.66 0.56 1.53 1.27 34.96 1.89 41.18 0.77l4.01-0.72-0.36 4.54c-0.2 2.5-0.75 4.55-1.22 4.55-0.97 0-1.62 3.52-2.49 13.5-0.75 8.57-2.17 16.92-2.29 13.5-0.15-3.85 2.52-27.67 3.22-28.81 0.34-0.55 0.2-2.06-0.31-3.35-0.91-2.26-0.95-2.24-1.09 0.66-0.07 1.65-0.36 2.33-0.64 1.5-1.41-4.22-1.71-4.35-2.38-1-0.62 3.12-0.71 3.2-0.83 0.75-0.11-2.3-0.58-2.75-2.88-2.77-19.72-0.11-37.71-1.08-42.25-2.26-3.025-0.79-6.85-1.34-8.5-1.22-1.65 0.11-3.313-0.28-3.696-0.87s-4.634-1.2-9.459-1.35c-7.828-0.26-16.455 1.19-25.02 4.19-0.887 0.31-0.835 1.87 0.21 6.35 3.592 15.4 6.836 47.18 4.816 47.18-0.494 0-0.968-3.94-1.053-8.75-0.169-9.54-2.978-31.85-4.31-34.24-0.63-1.12-0.994-0.76-1.503 1.5-1.282 5.71-1.724 7.03-4.527 13.5-3.793 8.76-6.956 20.89-6.966 26.72-0.013 7.98-6.429 29.62-11.938 40.27-0.996 1.93-2.35 5.19-3.01 7.25-1.101 3.44-1.5 3.75-4.872 3.73-2.019-0.02-5.292-0.4-7.271-0.86-3.478-0.81-3.643-0.72-4.869 2.67-0.698 1.93-2.7952 6.11-4.6608 9.29-1.8655 3.19-3.6734 7.85-4.0175 10.36-0.6182 4.51-2.3537 6.41-2.3537 2.58zm78.398-198.52c1.833-1.39 1.839-1.6 0.159-6.22-0.957-2.63-2.568-6.58-3.581-8.78-1.012-2.2-2.584-6.14-3.491-8.75-1.269-3.65-2.152-4.76-3.818-4.81-2.103-0.06-2.097-0.09 0.188-1.01 1.723-0.69 2.16-1.41 1.632-2.69-1.215-2.93-1.32-5.74-0.404-10.851 0.76-4.242 5.432-15.947 6.94-17.389 0.288-0.275 1.285-1.698 2.217-3.164 0.931-1.465 4.567-4.522 8.08-6.794 5.494-3.553 6.32-4.473 5.916-6.586-0.342-1.788-0.03-2.456 1.147-2.456 0.982 0 1.617 0.835 1.617 2.125 0 1.847 0.409 2.044 3.125 1.5 1.719-0.343 4.365-0.625 5.885-0.625 1.96 0 2.73-0.481 2.63-1.642-0.08-0.903 0.49-1.863 1.26-2.134 1.01-0.352 1.25 0.096 0.86 1.578-0.55 2.114 0.82 3.193 4.07 3.205 0.92 0.003 2.96 0.678 4.53 1.5 3.37 1.755 3.98 1.851 3.14 0.493-0.34-0.55 0.31-1 1.44-1 1.16 0 2.06 0.653 2.06 1.5 0 0.825 0.7 1.5 1.56 1.5s1.31-0.402 1-0.895c-0.65-1.061 2.45-2.451 3.33-1.491 0.34 0.363 0.05 0.861-0.64 1.107-2.07 0.741-1.4 2.278 1 2.295 1.43 0.01 1.81 0.295 1.04 0.782-0.85 0.542-0.26 1.772 2 4.198 1.77 1.887 2.99 3.635 2.71 3.884-0.28 0.25 0.13 0.665 0.91 0.924 0.97 0.323 1.21-0.042 0.78-1.167-0.46-1.194-0.06-1.637 1.46-1.637 1.84 0 1.93 0.205 0.72 1.692-0.91 1.121-0.95 1.441-0.13 0.948 0.84-0.505 1.05-0.246 0.64 0.809-0.33 0.853-1.24 1.551-2.02 1.551-1.09 0-1.19 0.45-0.43 1.869 0.55 1.028 0.82 2.053 0.59 2.278s0 2.197 0.5 4.382c1.1 4.815-0.55 21.741-2.51 25.721-0.75 1.51-0.98 2.75-0.53 2.75 0.46 0 0.61 0.87 0.33 1.93-0.3 1.15-1.08 1.71-1.91 1.39-0.77-0.29-1.4-0.04-1.4 0.57s0.71 1.11 1.58 1.11 1.39 0.56 1.14 1.25c-0.24 0.69-1.31 1.16-2.37 1.05-2.04-0.21-4.43 4.11-5.83 10.55l-0.72 3.35 3.35-0.65c4.33-0.85 10.35-3.36 15.17-6.32 3.08-1.89 3.6-2.62 2.67-3.74-1.43-1.73-0.46-3.53 1.82-3.37 1.52 0.1 1.52 0.16-0.06 0.57-0.96 0.25-1.75 0.9-1.75 1.44s0.52 0.67 1.15 0.27c0.72-0.44 0.89-0.27 0.45 0.45-1.84 2.96 1.61 0.62 6.14-4.17 9.12-9.64 11.32-16.5 11.62-36.18 0.08-4.95 0.59-9.33 1.14-9.734 0.63-0.46 0.55-0.741-0.21-0.75-0.67-0.009-1.76-1.928-2.42-4.266-0.67-2.337-1.88-5.037-2.7-6-0.81-0.962-1.17-1.75-0.79-1.75 0.39 0 0.22-0.562-0.36-1.25-0.59-0.687-2.07-3.15-3.29-5.474-3.5-6.633-13-18.227-15.48-18.89-1.24-0.331-2.25-1.004-2.25-1.494s-0.53-0.892-1.18-0.892c-0.66 0-3.2-0.973-5.66-2.162-3.28-1.588-6.42-2.18-11.84-2.228-4.06-0.035-6.57-0.348-5.6-0.695 5.7-2.024-16.34-2.903-23.615-0.943-2.283 0.615-4.591 0.846-5.128 0.514s-0.977-0.171-0.977 0.358c0 0.528-1.384 1.443-3.075 2.033-1.883 0.656-2.804 1.511-2.375 2.205 0.482 0.778 0.024 0.918-1.465 0.446-1.64-0.521-3.531 0.362-7.798 3.642-7.499 5.765-16.501 14.675-15.865 15.704 0.28 0.454-0.55 1.392-1.846 2.086-1.295 0.693-2.822 2.285-3.393 3.538-0.907 1.991-0.795 2.214 0.89 1.773 1.096-0.286 1.927 0.003 1.927 0.672 0 0.646-0.445 0.901-0.989 0.565-0.566-0.351-0.734 0.051-0.393 0.941 0.694 1.808-0.71 2.059-2.35 0.42-0.842-0.842-1.549-0.139-2.764 2.75-2.261 5.371-2.982 9.381-1.688 9.381 0.586 0 1.344-0.45 1.684-1s1.749-1 3.13-1c1.382 0 3.217-0.703 4.077-1.564 1.796-1.795 3.905-0.472 3.001 1.883-0.418 1.09-1.703 1.324-5.152 0.935-3.947-0.445-4.507-0.289-3.972 1.106 0.761 1.982-2.427 3.512-3.546 1.702-0.518-0.838-0.96-0.486-1.386 1.104-0.926 3.461-0.85 3.657 1.598 4.129 2.175 0.419 2.178 0.438 0.109 0.569-1.643 0.105-2.23 0.908-2.528 3.458-0.213 1.826-0.082 4.414 0.291 5.75 0.373 1.335 0.723 1.866 0.778 1.178 0.055-0.687 0.827-1.25 1.717-1.25 1.124 0 1.457 0.61 1.093 2-0.383 1.467-0.03 2 1.325 2 1.016 0 2.172 0.527 2.57 1.17 0.495 0.8 0.164 0.96-1.052 0.49-1.32-0.507-1.627-0.294-1.196 0.83 0.378 0.98-0.019 1.52-1.138 1.53-1.478 0.01-1.509 0.15-0.219 1 1.248 0.81 1.113 1.09-0.801 1.61-1.98 0.54-2.208 1.07-1.638 3.75 1.336 6.29 4.19 13.11 5.373 12.85 0.668-0.16 0.964 0.13 0.659 0.62-0.552 0.89 4.36 8.39 6.272 9.57 0.548 0.34 1.279 0.16 1.625-0.4 1.111-1.8 2.666-1.09 2.027 0.93-0.668 2.1 2.579 4.39 9.483 6.68 4.747 1.57 6.175 1.55 8.398-0.13zm-7.22-2.79c-0.807-0.97-0.598-1.28 0.853-1.28 1.056 0 2.141 0.58 2.413 1.28 0.271 0.71-0.113 1.29-0.853 1.29s-1.826-0.58-2.413-1.29zm-4.178-3.82c0-0.61-0.631-0.86-1.401-0.57-1.419 0.55-1.634-1.62-0.295-2.96 1.688-1.69 0.41-2.54-3.054-2.04-2.062 0.29-3.009 0.32-2.103 0.05 0.906-0.26 1.9-1.44 2.207-2.62 0.54-2.06 0.63-2.07 2.531-0.35 1.196 1.08 2.732 1.54 3.902 1.17 1.062-0.34 2.67-0.33 3.572 0.01 2.112 0.82 2.138 3.42 0.034 3.42-1.018 0-1.396-0.55-1.031-1.5 0.819-2.13-2.082-1.91-3.192 0.25-1.247 2.43-0.382 4.27 1.645 3.5 1.577-0.6 1.578-0.53 0.006 1.06-1.946 1.96-2.821 2.14-2.821 0.58zm5-0.69c0-1.54 0.443-1.97 1.584-1.53 0.871 0.34 1.208 0.89 0.75 1.23-0.459 0.34-1.172 1.03-1.584 1.53s-0.75-0.06-0.75-1.23zm68-1.13c0-0.59-1.42-1.07-3.15-1.07-3.13 0-3.14-0.02-1.29-2.07 1.64-1.8 2.01-1.87 2.98-0.54 0.71 0.96 1.94 1.3 3.39 0.92 1.84-0.48 2.2-0.24 1.91 1.29-0.38 1.98-3.84 3.31-3.84 1.47zm3-1.13c0-0.58-0.45-0.78-1-0.44s-1 0.82-1 1.06 0.45 0.44 1 0.44 1-0.48 1-1.06zm-88-3.38c0-1.74 1.64-2.9 2.956-2.09 1.331 0.83 0.133 3.53-1.563 3.53-0.766 0-1.393-0.65-1.393-1.44zm88.49-1.58c-0.96-1.54 0.87-3.25 3.01-2.82 1.56 0.31 1.53 0.52-0.29 2.16-1.42 1.28-2.22 1.47-2.72 0.66zm2.51-1.54c0-0.24-0.45-0.44-1-0.44s-1 0.48-1 1.06 0.45 0.78 1 0.44 1-0.82 1-1.06zm-77.875-0.31c0.206-0.62 0.713-1.13 1.125-1.13 1.171 0 0.88 1.46-0.375 1.88-0.619 0.2-0.956-0.14-0.75-0.75zm71.385-0.11c-0.74-1.2 0.2-3.02 1.55-3.02 1.22 0 1.22 2.71 0.01 3.46-0.51 0.31-1.21 0.12-1.56-0.44zm-83.164-1.15c1.324-0.77 2.159-0.76 2.95 0.03 0.805 0.8 0.305 1.09-1.846 1.07-2.586-0.03-2.722-0.16-1.104-1.1zm4.507-2.12c0.504-0.51 1.981-0.75 3.282-0.55 2.001 0.32 1.861 0.46-0.916 0.92-1.988 0.33-2.921 0.18-2.366-0.37zm76.577-0.82c0-1.06 0.35-1.93 0.78-1.93 0.44 0 0.79 0.65 0.79 1.44s-0.35 1.66-0.79 1.93c-0.43 0.27-0.78-0.38-0.78-1.44zm-85.68 0.41c0.688-0.28 1.812-0.28 2.5 0s0.125 0.5-1.25 0.5-1.938-0.22-1.25-0.5zm92.25-1.34c0-0.55 0.42-1 0.94-1s1.22 0.45 1.56 1-0.08 1-0.94 1-1.56-0.45-1.56-1zm7.56 0.09c-0.31-0.49 0.34-0.67 1.44-0.38 2.33 0.61 2.63 1.29 0.56 1.29-0.79 0-1.69-0.41-2-0.91zm-90.831-0.69c-1.587-1.59-0.556-2.4 3.021-2.37 3.043 0.03 3.419 0.22 1.992 1.05-0.967 0.57-2.166 0.78-2.665 0.47-0.498-0.31-1.066-0.08-1.262 0.51-0.196 0.58-0.685 0.74-1.086 0.34zm-4.458-1c0.332-0.34 1.195-0.37 1.917-0.08 0.797 0.32 0.56 0.55-0.605 0.6-1.054 0.04-1.644-0.19-1.312-0.52zm91.729 0.16c0-0.24 0.45-0.72 1-1.06s1-0.14 1 0.44-0.45 1.06-1 1.06-1-0.2-1-0.44zm9-1.06c0-0.82 0.68-1.5 1.5-1.5s1.5 0.68 1.5 1.5c0 0.83-0.68 1.5-1.5 1.5s-1.5-0.67-1.5-1.5zm-17-0.48c1.2-0.77 1.27-1.34 0.32-2.86-1.46-2.36 0.01-4.16 3.38-4.16 1.38 0 2.3-0.6 2.3-1.5 0-0.92 0.87-1.45 2.25-1.38 1.69 0.08 1.82 0.23 0.5 0.57-0.96 0.25-1.75 0.9-1.75 1.44s0.52 0.67 1.15 0.27c0.72-0.44 0.89-0.27 0.44 0.45-0.43 0.7 0.2 1.54 1.6 2.1 1.55 0.62 1.77 0.94 0.67 0.99-0.91 0.03-1.89 0.7-2.19 1.48-0.34 0.9-1.35 1.22-2.69 0.86-1.56-0.4-1.8-0.78-0.86-1.35 0.71-0.44 1.57-0.62 1.92-0.41 0.34 0.22 0.63-0.26 0.63-1.06 0-0.99-1.09-1.46-3.34-1.46-1.83 0-3.33 0.48-3.33 1.06s0.34 0.85 0.76 0.59 0.82 0.83 0.89 2.44c0.09 2.35-0.3 2.91-2.02 2.9-1.73-0.02-1.85-0.2-0.63-0.97zm12.45-1.11c-1.03-1.66 0.82-2.91 3.34-2.25 2.12 0.55 2.15 0.67 0.48 1.93-2.18 1.66-2.96 1.72-3.82 0.32zm-104.94-0.89c-0.737-1.2 0.199-3.02 1.549-3.02 1.217 0 1.225 2.71 0.01 3.46-0.512 0.31-1.213 0.12-1.559-0.44zm6.49-2.02c0-1.32 0.667-2 1.965-2 1.08 0 2.475-0.95 3.1-2.12 0.882-1.65 0.861-1.95-0.095-1.36-0.799 0.49-1.058 0.27-0.741-0.63 0.291-0.83 1.664-1.31 3.38-1.19 2.385 0.17 2.585 0.03 1.141-0.8-2.14-1.22-2.336-3.062-0.241-2.258 0.829 0.318 1.802 1.748 2.162 3.178 0.602 2.41 0.717 2.45 1.483 0.64 0.814-1.92 0.824-1.92 0.575 0.04-0.162 1.28-1.507 2.43-3.741 3.19-2.811 0.97-3.031 1.21-1.131 1.25 1.728 0.05 2.195 0.48 1.75 1.64-0.334 0.87-0.607 1.77-0.607 2s-0.45 0.42-1 0.42-0.888-0.54-0.75-1.19c0.39-1.86-3.445-2.21-4.452-0.41-1.246 2.22-2.798 2-2.798-0.4zm10-5c0-0.55-0.675-1-1.5-1s-1.5 0.45-1.5 1 0.675 1 1.5 1 1.5-0.45 1.5-1zm94 3.56c0-0.79 0.4-1.69 0.9-1.99 1.02-0.64 2.27 1.93 1.36 2.83-1.07 1.08-2.26 0.63-2.26-0.84zm-5.64-1.06c-0.8-2.09 1.09-4.19 2.18-2.43 0.5 0.8 0.36 0.99-0.39 0.53-0.63-0.4-1.15-0.28-1.15 0.26 0 0.53 0.54 1.15 1.2 1.37 0.93 0.31 0.93 0.57-0.01 1.15-0.71 0.44-1.46 0.08-1.83-0.88zm-101.36-3.31c0-1.33 2.06-2.82 5-3.63 1.883-0.52 2.13-0.44 1 0.34-0.825 0.56-1.5 1.61-1.5 2.31 0 0.71-1.012 1.43-2.25 1.61s-2.25-0.11-2.25-0.63zm90-0.02c0-1.41 1.13-2.06 2.59-1.5 0.77 0.3 1.15 0.94 0.85 1.44-0.7 1.12-3.44 1.17-3.44 0.06zm17.5-0.17c-1.56-0.67-1.64-0.87-0.36-0.93 0.91-0.04 1.91-0.74 2.22-1.57 0.89-2.306 2.82-1.78 2.46 0.67-0.37 2.53-1.53 3.02-4.32 1.83zm-3.83-2.41c-0.56-1.46 0.09-2.59 1.5-2.59 1.11 0 1.06 2.74-0.07 3.44-0.49 0.3-1.13-0.08-1.43-0.85zm-13.17-1.59c-0.7-1.132 0.2-3 1.44-3 0.46 0 1.06 0.9 1.35 2 0.55 2.09-1.63 2.88-2.79 1zm5.71-0.75c0.23-1.111 1.08-1.624 2.33-1.404 2.49 0.439 2.81 0.772 2 2.084-1.14 1.85-4.73 1.28-4.33-0.68zm-88.461-0.504c-0.217-0.65-1.712-1.196-3.322-1.213-3.389-0.038-4.346-1.584-1.876-3.033 1.217-0.713 1.837-0.639 2.163 0.257 0.251 0.691 0.868 1.002 1.371 0.691s0.915-0.057 0.915 0.565c0 0.653 0.663 0.467 1.571-0.441 0.865-0.864 2.102-1.565 2.75-1.556 0.695 0.009 0.562 0.42-0.321 1-1.131 0.742-1.202 1.178-0.29 1.769 0.881 0.571 0.696 1.105-0.679 1.964-1.451 0.911-1.98 0.901-2.282-0.003zm-3.749-3.305c0-0.242-0.45-0.441-1-0.441s-1 0.477-1 1.059c0 0.583 0.45 0.781 1 0.441 0.55-0.339 1-0.816 1-1.059zm10 1.059c0-0.825 0.45-1.5 1-1.5s1 0.675 1 1.5-0.45 1.5-1 1.5-1-0.675-1-1.5zm90-1.468c0-0.533 0.68-0.71 1.5-0.393 0.82 0.316 1.5 0.752 1.5 0.968 0 0.217-0.68 0.393-1.5 0.393s-1.5-0.435-1.5-0.968zm-11.1-1.812c-2.17-0.269-2.52-0.736-2.13-2.772 0.44-2.306 2.23-3.525 2.23-1.519 0 0.511 0.73 1.657 1.62 2.548 1.93 1.932 1.7 2.169-1.72 1.743zm8.1-0.22c-1.21-0.779-1.05-0.972 0.81-0.984 1.29-0.009 2.03 0.427 1.69 0.984-0.74 1.203-0.64 1.203-2.5 0zm-93.75-0.709c0.962-0.236 1.75-0.818 1.75-1.293s1.394-0.824 3.099-0.776c3.826 0.109 1.861 1.407-3.099 2.047-1.925 0.249-2.712 0.259-1.75 0.022zm89.4-0.798c-2.16-1.585-1.39-3.493 1.41-3.493 2.05 0 2.22 0.472 1.12 3.176-0.59 1.444-0.94 1.488-2.53 0.317zm2.35-2.052c0-0.242-0.45-0.441-1-0.441s-1 0.477-1 1.059c0 0.583 0.45 0.781 1 0.441 0.55-0.339 1-0.816 1-1.059zm-103.73 0.955c0.332-0.332 1.195-0.368 1.917-0.079 0.797 0.32 0.56 0.557-0.605 0.605-1.054 0.043-1.644-0.193-1.312-0.526zm5.491-0.103c1.244-0.239 3.044-0.23 4 0.02 0.956 0.251-0.062 0.446-2.262 0.435s-2.982-0.216-1.738-0.455zm102.91 0.041c-1.26-1.258-0.67-4.334 0.83-4.334 0.82 0 1.5 0.45 1.5 1s-0.45 1-1 1-1 0.477-1 1.059c0 0.583 0.52 0.738 1.15 0.346 0.72-0.442 0.89-0.274 0.45 0.441-0.83 1.339-1.03 1.39-1.93 0.488zm6.67-0.901c-0.33-0.862-0.21-1.964 0.28-2.449 0.51-0.509 0.94 0.152 1.02 1.567 0.17 2.792-0.42 3.188-1.3 0.882zm-97.088-1.334c-2.223-0.592-2.217-0.62 0.583-2.495 2.174-1.455 2.736-2.501 2.42-4.5-0.325-2.055-0.187-2.287 0.651-1.104 0.945 1.334 1.073 1.334 1.149 0 0.056-0.986 0.357-0.815 0.879 0.5 0.468 1.18 0.365 2.275-0.25 2.67-0.574 0.369-1.156 1.44-1.294 2.381-0.364 2.477-1.584 3.228-4.138 2.548zm2.748-2.158c0-0.582-0.45-0.78-1-0.441-0.55 0.34-1 0.817-1 1.059 0 0.243 0.45 0.441 1 0.441s1-0.476 1-1.059zm-20.729 0.455c0.332-0.332 1.195-0.368 1.917-0.079 0.797 0.32 0.56 0.557-0.605 0.605-1.054 0.043-1.644-0.193-1.312-0.526zm11.729-0.927c0-1.513 2.637-3.165 3.567-2.235 0.264 0.264 0.196 1.22-0.15 2.123-0.796 2.074-3.417 2.159-3.417 0.112zm-4 0.138c0-0.216 0.675-0.652 1.5-0.968 0.825-0.317 1.5-0.14 1.5 0.393s-0.675 0.968-1.5 0.968-1.5-0.176-1.5-0.393zm87.17-1.266c0.2-1.012 1.03-1.841 1.84-1.841 2.15 0 1.84 2.906-0.35 3.328-1.34 0.257-1.74-0.15-1.49-1.487zm8.08 0.997c-1.95-0.786-1.53-4.35 0.5-4.259 1.05 0.048 1.25 0.282 0.5 0.584-0.69 0.277-1.25 0.943-1.25 1.48 0 0.536 0.38 0.744 0.83 0.46 0.46-0.283 0.84 0.141 0.84 0.941 0 0.801-0.04 1.421-0.09 1.378-0.04-0.044-0.64-0.306-1.33-0.584zm5-1.056c-1.89-0.679-1.5-3.284 0.5-3.266 1.4 0.012 1.47 0.192 0.35 0.898-1.11 0.707-1.01 0.959 0.5 1.259 1.05 0.206 1.45 0.641 0.9 0.966s-1.56 0.39-2.25 0.143zm-102.58-1.7c-0.321-0.835-0.193-1.758 0.283-2.053 1.332-0.823 4.179 0.575 3.756 1.845-0.583 1.753-3.391 1.897-4.039 0.208zm109.33-0.5c0-1.544 1.17-4.082 1.89-4.082 0.37 0 0.77 1.125 0.88 2.5 0.14 1.64-0.3 2.5-1.28 2.5-0.82 0-1.49-0.413-1.49-0.918zm-100.24-3.625c0.258-1.351 1.092-2.457 1.853-2.457 2.021 0 1.69 2.766-0.47 3.922-1.61 0.861-1.791 0.669-1.383-1.465zm86.236 0.5c0-0.574-0.58-0.912-1.28-0.75-0.7 0.161-1.38-0.044-1.5-0.457-1.03-3.518 1.82-3.72 3.44-0.242 0.63 1.371 0.74 2.492 0.25 2.492-0.5 0-0.91-0.469-0.91-1.043zm3.27 0.439c0.33-0.332 1.2-0.368 1.92-0.079 0.8 0.32 0.56 0.557-0.61 0.605-1.05 0.043-1.64-0.193-1.31-0.526zm-78.764-1.387c-0.685-1.107 2.476-5.928 3.918-5.977 0.509-0.017-0.101 1.06-1.354 2.394-1.254 1.335-1.981 2.91-1.616 3.5 0.365 0.591 0.439 1.074 0.164 1.074s-0.776-0.445-1.112-0.991zm83.174 0.25c0.65-0.433 1.1-1.664 1-2.735-0.12-1.277 0.51-2.026 1.82-2.178 1.53-0.176 1.59-0.11 0.25 0.285-2.36 0.697-2.21 2.089 0.33 2.893 2.55 0.813 1.74 1.78-1.87 2.204-1.56 0.184-2.21-0.015-1.53-0.469zm-5.68-2.259c0-1.111 0.67-2 1.5-2s1.5 0.889 1.5 2c0 1.112-0.67 2-1.5 2s-1.5-0.888-1.5-2zm12.5 0c-0.34-0.55-0.14-1 0.44-1s1.06 0.45 1.06 1-0.2 1-0.44 1-0.72-0.45-1.06-1zm-97.5-1.732c1.375-0.253 2.865-1.101 3.311-1.885 0.95-1.668 2.689-0.907 2.689 1.176 0 1.05-1.153 1.405-4.25 1.305-2.771-0.089-3.38-0.296-1.75-0.596zm73.35-1.402c1.32-0.769 2.16-0.76 2.95 0.031 0.8 0.805 0.3 1.095-1.85 1.073-2.59-0.027-2.72-0.163-1.1-1.104zm23.15 0.134c0.34-0.55 1.04-1 1.56-1s0.94 0.45 0.94 1-0.7 1-1.56 1-1.28-0.45-0.94-1zm-112.77-0.607c-0.361-0.361-0.18-1.545 0.402-2.631 0.777-1.453 1.352-1.681 2.172-0.862 0.819 0.82 0.713 1.516-0.402 2.631-0.835 0.835-1.812 1.222-2.172 0.862zm12.274-1.893c0.685-0.825 1.865-1.5 2.622-1.5 0.758 0 1.378 0.675 1.378 1.5 0 0.952-0.958 1.5-2.622 1.5-2.218 0-2.431-0.231-1.378-1.5zm73.39 0.318c-0.74-1.197 0.51-2.818 2.17-2.818 0.79 0 1.44 0.45 1.44 1 0 0.563 2.52 0.957 5.75 0.901 4.39-0.076 5.16-0.29 3.25-0.901-2.91-0.931-3.04-0.876 3.75-1.637 3.91-0.438 5.25-0.261 5.25 0.691 0 0.704-0.28 1.004-0.61 0.667-0.34-0.338-2.25 0.006-4.25 0.763-4.22 1.597-16.01 2.536-16.75 1.334zm2.61-0.818c0-0.55-0.45-1-1-1s-1 0.45-1 1 0.45 1 1 1 1-0.45 1-1zm-81 0c-1.375-0.44-1.99-0.845-1.367-0.9 0.624-0.055 1.369-1 1.657-2.1 0.287-1.1 1.24-2 2.116-2 1.763 0 2.178 2.522 0.578 3.511-0.559 0.345-0.758 1.047-0.441 1.559 0.316 0.512 0.436 0.886 0.266 0.831s-1.434-0.46-2.809-0.901zm3-3.059c0-0.582-0.45-0.78-1-0.441-0.55 0.34-1 0.817-1 1.059 0 0.243 0.45 0.441 1 0.441s1-0.476 1-1.059zm14.493 3.071c0.35-0.567-0.051-0.735-0.941-0.393-0.854 0.327-1.552 0.097-1.552-0.512 0-0.608 1.05-1.107 2.333-1.107 1.408 0 2.334 0.596 2.334 1.5 0 0.825-0.627 1.5-1.393 1.5-0.765 0-1.117-0.444-0.781-0.988zm3.874-0.262c0.325-2.145 1.691-3.75 3.192-3.75 1.981 0 1.81 2-0.309 3.608-2.219 1.685-3.124 1.73-2.883 0.142zm62.943-1.451c-0.66-0.235-0.95-1.074-0.65-1.863 0.42-1.089-0.35-1.436-3.17-1.436-3.23 0-3.65-0.264-3.2-2 0.46-1.747 0.03-2-3.38-2-4.05 0-4.52-0.479-2.96-2.96 0.8-1.259 1.19-1.225 2.82 0.25 1.04 0.941 2.95 1.71 4.26 1.71 1.84 0 2.1 0.267 1.17 1.2-1.95 1.946-1.43 2.357 2.88 2.299 2.24-0.029 4.29 0.296 4.56 0.724 0.26 0.427 0 0.777-0.58 0.777s-1.06 0.436-1.06 0.969 0.79 0.715 1.75 0.406c1.03-0.332 1.34-0.212 0.75 0.293-0.55 0.471-1.22 1.126-1.5 1.457s-1.04 0.409-1.69 0.174zm-11.31-9.358c0-0.582-0.45-0.78-1-0.441-0.55 0.34-1 0.817-1 1.059 0 0.243 0.45 0.441 1 0.441s1-0.476 1-1.059zm28.73 8.404c0.68-0.274 2.03-0.291 3-0.038 0.97 0.254 0.42 0.478-1.23 0.499-1.65 0.02-2.45-0.188-1.77-0.461zm-72.73-2.345c0.589-1.1 1.73-2 2.535-2 1.648 0 1.996 2.554 0.476 3.493-0.577 0.358-0.751-0.137-0.418-1.191 0.541-1.709 0.496-1.712-0.872-0.052-1.955 2.374-3.041 2.216-1.721-0.25zm63.27 0.396c0.33-0.332 1.2-0.368 1.92-0.079 0.8 0.32 0.56 0.557-0.61 0.605-1.05 0.043-1.64-0.193-1.31-0.526zm12.23-0.396c-0.34-0.55-0.14-1 0.44-1s1.06 0.45 1.06 1-0.2 1-0.44 1-0.72-0.45-1.06-1zm-87.054-1.087c-1.03-1.667 1.287-3.579 2.667-2.2 1.154 1.154 0.432 3.287-1.113 3.287-0.485 0-1.184-0.489-1.554-1.087zm2.554-0.913c0-0.55-0.477-1-1.059-1s-0.781 0.45-0.441 1 0.816 1 1.059 1 0.441-0.45 0.441-1zm70 0.218c0-0.735 0.45-1.057 1-0.718 0.55 0.34 1 0.175 1-0.367s-0.56-1.178-1.25-1.413c-0.69-0.236-0.27-0.268 0.93-0.072 1.5 0.244 2.38-0.273 2.82-1.646 0.65-2.05 2.95-2.702 3.93-1.114 0.3 0.487-0.1 0.825-0.88 0.75-0.79-0.076-1.36 0.312-1.27 0.862s0.85 0.869 1.69 0.709c1.31-0.251 1.32-0.154 0.08 0.684-0.8 0.536-1.81 0.754-2.25 0.482-0.44-0.271-1.36-0.138-2.05 0.295-0.83 0.521-0.23 0.987 1.75 1.375 2.81 0.551 2.74 0.616-1.25 1.048-3.11 0.337-4.25 0.102-4.25-0.875zm-87.468-0.27c0.322-0.521 1.534-0.948 2.694-0.948 2.553 0 1.87 0.904-1.117 1.48-1.2 0.231-1.902-0.006-1.577-0.532zm99.218-0.781c0.96-1.008 1.93-1.694 2.14-1.524 0.59 0.465-2 3.357-3.01 3.357-0.49 0-0.09-0.825 0.87-1.833zm-76.75-0.044c0-0.483 0.675-1.438 1.5-2.123 1.253-1.04 1.5-0.895 1.5 0.878 0 1.22-0.638 2.122-1.5 2.122-0.825 0-1.5-0.394-1.5-0.877zm41 0.27c0-0.828 1.94-1.296 2.39-0.576 0.29 0.468-0.13 0.85-0.93 0.85s-1.46-0.123-1.46-0.274zm-57.603-1.558c-0.283-0.459 0.663-0.835 2.103-0.835 1.477 0 2.351-0.432 2.005-0.992-0.337-0.545-0.251-1.635 0.191-2.422 0.639-1.136 1.14-1.183 2.442-0.229 1.518 1.112 1.518 1.346 0 3.172-1.671 2.011-5.809 2.813-6.741 1.306zm6.603-2.835c0-0.55-0.45-1-1-1s-1 0.45-1 1 0.45 1 1 1 1-0.45 1-1zm-12.952 2.051c-0.799-0.505-1.811-0.697-2.25-0.426-0.439 0.272-0.798 0.069-0.798-0.451 0-1.519 4.814-4.284 5.507-3.162 0.336 0.543-0.091 0.988-0.948 0.988s-1.559 0.499-1.559 1.109c0 0.702 0.98 0.862 2.675 0.437 2.343-0.588 2.514-0.478 1.377 0.892-1.493 1.799-2.006 1.877-4.004 0.613zm30.355-1.414c-0.025-2.027 1.203-3.588 2.847-3.621 0.412-0.009 0.75 0.686 0.75 1.543 0 0.858-0.445 1.285-0.989 0.949-0.547-0.339-0.745 0.023-0.442 0.811 0.3 0.783-0.058 1.655-0.797 1.939-0.862 0.331-1.353-0.25-1.369-1.621zm48.977 0.95c0.36-2.391 1.61-3.135 1.7-1.003 0.04 1.116 0.29 1.38 0.59 0.633 0.29-0.706-0.09-2.017-0.83-2.913-1.14-1.384-1.11-1.554 0.16-1.133 2.07 0.686 1.94 5.218-0.17 5.624-1.04 0.199-1.58-0.259-1.45-1.208zm-23.93-0.674c-0.96-1.544 0.63-2.813 4.08-3.259 1.63-0.211 2.18-0.188 1.22 0.051s-1.75 0.839-1.75 1.334c0 0.494-0.79 0.604-1.75 0.243-1.53-0.574-1.58-0.446-0.38 1.031 0.81 0.998 0.94 1.687 0.31 1.687-0.58 0-1.36-0.489-1.73-1.087zm4.55 0.119c0-0.533 0.68-0.71 1.5-0.393 0.82 0.316 1.5 0.752 1.5 0.968 0 0.217-0.68 0.393-1.5 0.393s-1.5-0.435-1.5-0.968zm-33-1.032c-0.901-0.582-1.025-0.975-0.309-0.984 0.655-0.009 1.469 0.434 1.809 0.984 0.767 1.242 0.421 1.242-1.5 0zm-7.827-1.659c0.421-2.188 3.327-2.498 3.327-0.354 0 0.817-0.828 1.646-1.841 1.841-1.336 0.257-1.743-0.15-1.486-1.487zm53.587 1.083c-1.02-1.013 0.34-3.424 1.92-3.424 0.83 0 1.33 0.722 1.14 1.668-0.34 1.789-2.05 2.767-3.06 1.756zm12.24-0.412c0-0.544 1.09-0.899 2.43-0.788 1.33 0.11 2.21 0.555 1.94 0.989-0.7 1.138-4.37 0.97-4.37-0.201zm-80.564-2.634c0.599-3.303 1.084-3.776 3.084-3.008 0.884 0.339 1.297 1.118 0.918 1.73-0.483 0.782-0.944 0.71-1.548-0.243-0.562-0.887-0.865-0.949-0.875-0.178-0.008 0.648 0.692 1.886 1.556 2.75 1.429 1.429 1.336 1.571-1.019 1.571-2.25 0-2.529-0.344-2.116-2.622zm34.064 1.588c-1.724-0.771-1.626-0.859 0.712-0.635 1.492 0.143 3.029 0.578 3.417 0.965 0.971 0.971-1.695 0.758-4.129-0.33zm5.83-0.313c-0.46-0.803-1.955-1.665-3.33-1.915s-0.348-0.419 2.28-0.377c3.61 0.058 4.71 0.432 4.5 1.525-0.4 2.045-2.46 2.503-3.45 0.767zm5.14 0.297c-0.95-1.537 0.35-2.529 1.63-1.246 0.72 0.718 0.74 1.278 0.06 1.7-0.56 0.346-1.32 0.142-1.69-0.454zm15.8 0.446c0.33-0.332 1.2-0.368 1.92-0.079 0.8 0.32 0.56 0.557-0.61 0.605-1.05 0.043-1.64-0.193-1.31-0.526zm-39.595-2.054c-0.901-0.901 1.251-3.342 2.947-3.342 1.697 0 1.774 1.205 0.178 2.8-1.356 1.357-2.169 1.498-3.125 0.542zm41.325 0.1c0-0.204 0.9-0.853 2-1.442 1.1-0.591 2-0.659 2-0.151 0 0.505-0.9 1.154-2 1.441-1.1 0.288-2 0.356-2 0.152zm10.17-1.502c0.18-1.256 0.93-2.481 1.66-2.723 0.91-0.298 1.23 0.292 1 1.844-0.18 1.255-0.93 2.481-1.66 2.723-0.91 0.298-1.23-0.293-1-1.844zm-21.29-0.185c-1.81-0.664-1.87-0.911-0.53-2.25 1.69-1.684 4.65-2.026 4.65-0.536 0 0.533-0.68 0.71-1.5 0.393-0.82-0.316-1.5-0.077-1.5 0.531 0 0.625 1.74 1.107 4 1.107 2.2 0 4 0.45 4 1 0 1.096-5.89 0.938-9.12-0.245zm26.12 0.363c0-0.55 0.45-1.278 1-1.618 0.55-0.339 1-0.168 1 0.382s-0.45 1.279-1 1.618c-0.55 0.34-1 0.168-1-0.382zm3-0.118c0-0.55 0.45-1 1-1s1 0.45 1 1-0.45 1-1 1-1-0.45-1-1zm7.55-0.25c0.62-1.633-0.91-2.359-3.87-1.843-0.46 0.079-0.57-0.276-0.25-0.788 0.67-1.086 4.33-0.32 5.2 1.089 0.33 0.532 0.07 1.49-0.58 2.13-0.89 0.886-1.01 0.747-0.5-0.588zm-77.471-0.869c-0.063-1.3 0.957-1.614 5.171-1.594 2.961 0.015 3.942 0.214 2.25 0.458-1.65 0.238-3.649 0.955-4.442 1.594-1.117 0.9-1.273 0.88-0.691-0.089 0.413-0.687 0.312-1.25-0.225-1.25-0.536 0-1.202 0.563-1.48 1.25-0.322 0.8-0.533 0.667-0.583-0.369zm18.248 0.4c0.807-1.306 7.607-2.197 8.293-1.087 0.274 0.444-0.842 0.806-2.479 0.806-1.638 0-3.763 0.302-4.723 0.67-1.107 0.425-1.506 0.282-1.091-0.389zm10.673-2.697c0-0.871 0.71-1.584 1.58-1.584 1.77 0 1.46 2.153-0.39 2.771-0.66 0.218-1.19-0.316-1.19-1.187zm6-0.084c0-0.825 0.66-1.5 1.47-1.5 0.89 0 1.24 0.587 0.89 1.5-0.31 0.825-0.98 1.5-1.47 1.5s-0.89-0.675-0.89-1.5zm33.1 0.586c-1.5-0.951-0.83-4.086 0.87-4.086 0.57 0 1.03 0.863 1.03 1.917s0.56 2.144 1.25 2.421c0.85 0.344 0.77 0.525-0.25 0.568-0.82 0.035-2.13-0.334-2.9-0.82zm-73.654-1.173c-0.369-0.598-0.162-1.597 0.462-2.22 1.384-1.384 8.092-1.937 8.092-0.667 0 0.501-0.589 0.686-1.308 0.41-0.72-0.277-2.364 0.413-3.653 1.531-2.732 2.369-2.716 2.365-3.593 0.946zm2.554-2.031c0-0.55-0.45-0.721-1-0.382-0.55 0.34-1 1.068-1 1.618s0.45 0.722 1 0.382c0.55-0.339 1-1.068 1-1.618zm49.18 1.368c0.24-1.215 1.4-1.815 3.83-1.963 1.92-0.118 2.93 0.032 2.24 0.333s-1.25 1.185-1.25 1.964c0 0.855-1.02 1.416-2.57 1.416-1.91 0-2.49-0.45-2.25-1.75zm-41.059-1.674c1.16-1.334 2.724-2.189 3.475-1.9 2.236 0.858-0.269 4.324-3.125 4.324h-2.458l2.108-2.424zm2.879-0.635c0-0.582-0.45-0.78-1-0.441-0.55 0.34-1 0.817-1 1.059 0 0.243 0.45 0.441 1 0.441s1-0.476 1-1.059zm16 2.666c0-0.216 0.675-0.652 1.5-0.968 0.825-0.317 1.5-0.14 1.5 0.393s-0.675 0.968-1.5 0.968-1.5-0.176-1.5-0.393zm34.75-0.269c0.69-0.277 1.81-0.277 2.5 0 0.69 0.278 0.13 0.505-1.25 0.505s-1.94-0.227-1.25-0.505zm-43-2c0.687-0.277 1.812-0.277 2.5 0 0.687 0.278 0.125 0.505-1.25 0.505s-1.938-0.227-1.25-0.505zm45.01-0.045c1.25-0.239 3.05-0.23 4 0.02 0.96 0.251-0.06 0.446-2.26 0.435s-2.98-0.216-1.74-0.455zm-34.965-0.973c-2.492-0.656-1.975-6.315 0.577-6.318 1.618-0.001 1.688 0.22 0.52 1.629-1.218 1.467-1.03 1.559 1.878 0.92 2.55-0.561 3.23-0.385 3.23 0.835 0 1.285-3.12 3.891-4.184 3.498-0.174-0.063-1.083-0.317-2.021-0.564zm3.625-0.927c0.87-0.333 1.58-1.098 1.58-1.7 0-0.755-0.36-0.737-1.15 0.061-0.86 0.856-1.7 0.865-3.253 0.036-1.887-1.005-1.96-0.951-0.725 0.547 1.567 1.899 1.445 1.863 3.548 1.056zm12.61 0.626c-1.16-0.717-1.18-1.138-0.09-2.442 1.62-1.956 2.68-2.003 3.39-0.15 0.74 1.921-1.52 3.694-3.3 2.592zm29.97 0.04c0-0.517 0.52-1.262 1.15-1.654 0.69-0.422 0.89-0.276 0.5 0.356-0.37 0.588-0.1 1.297 0.59 1.575 0.76 0.306 0.57 0.538-0.49 0.586-0.96 0.043-1.75-0.345-1.75-0.863zm-56.25-0.721c0.687-0.277 1.812-0.277 2.5 0 0.687 0.278 0.125 0.505-1.25 0.505s-1.938-0.227-1.25-0.505zm19.48-0.525c0.62-1.852 2.46-2.062 3.12-0.355 0.41 1.081-0.03 1.542-1.46 1.542-1.14 0-1.88-0.528-1.66-1.187zm-34.094-1.504c-0.167-2.697 1.631-3.975 3.201-2.274 0.908 0.983 0.792 1.13-0.525 0.668-1.193-0.419-1.812 0.051-2.114 1.603l-0.426 2.194-0.136-2.191zm59.134 1.087c0.33-0.332 1.2-0.368 1.92-0.079 0.8 0.32 0.56 0.557-0.61 0.605-1.05 0.043-1.64-0.193-1.31-0.526zm-46.581-1.51c-0.996-0.579-2.383-0.833-3.083-0.565-0.7 0.269-1.273-0.143-1.273-0.916 0-1.773 1.629-1.749 4.014 0.059 1.016 0.769 2.433 1.174 3.149 0.9 0.716-0.275 1.599-0.019 1.962 0.568 0.848 1.373-2.384 1.342-4.769-0.046zm34.811-0.605c2.26-0.551 5.5-3.162 5.5-4.436 0-0.464-0.98-0.845-2.17-0.845-2.69 0-2.17-0.518 1.4-1.373 2.62-0.628 2.69-0.545 1.71 2.028-1.24 3.275-3.77 5.31-6.44 5.198-2-0.085-2-0.085 0-0.572zm17.77-0.885c0.33-0.332 1.2-0.368 1.92-0.079 0.8 0.32 0.56 0.557-0.61 0.605-1.05 0.043-1.64-0.193-1.31-0.526zm-30.4-0.562c-0.07-0.184-0.23-1.287-0.35-2.453-0.18-1.638 0.2-2.006 1.67-1.62 2.06 0.538 2.1 3.31 0.06 3.99-0.69 0.229-1.31 0.266-1.38 0.083zm5.51-1.543c-1.12-0.818-1.29-1.291-0.46-1.291 0.75 0 1.05-0.641 0.71-1.523-0.48-1.242-0.22-1.328 1.39-0.464 1.09 0.582 1.98 1.462 1.98 1.956s1.24 1.055 2.75 1.245c2.45 0.308 2.34 0.403-0.93 0.857-2.2 0.306-4.38-0.007-5.44-0.78zm-24.88-0.185c1.724-0.757 1.516-0.946-1.5-1.372l-3.5-0.495 3.5 0.131c3.723 0.139 4.862 1.929 1.5 2.358-2 0.255-2 0.255 0-0.622zm47.23 0.239c0.68-0.274 2.03-0.291 3-0.038 0.97 0.254 0.42 0.478-1.23 0.499-1.65 0.02-2.45-0.188-1.77-0.461zm-39.999-1c0.677-0.274 2.027-0.291 3-0.038 0.973 0.254 0.419 0.478-1.231 0.499-1.65 0.02-2.446-0.188-1.769-0.461zm5.769-1.345c-0.82-1.319 0.38-3.192 1.57-2.457 1.21 0.751 1.21 3.457-0.01 3.457-0.52 0-1.22-0.45-1.56-1zm17.01 0.017c-0.35-0.559 0.07-1.017 0.93-1.017 1.76 0 2.02 0.601 0.63 1.458-0.51 0.316-1.21 0.118-1.56-0.441zm13.24 0.321c0.69-0.277 1.81-0.277 2.5 0 0.69 0.278 0.13 0.505-1.25 0.505s-1.94-0.227-1.25-0.505zm-36.75-1.256c0-0.505-0.273-1.63-0.607-2.5-0.49-1.276 0.137-1.576 3.25-1.551 3.117 0.024 3.517 0.227 2.099 1.054-0.967 0.563-2.204 0.748-2.75 0.411-0.546-0.338-0.992-0.137-0.992 0.445 0 0.583 0.648 1.059 1.441 1.059s1.719 0.45 2.059 1c0.351 0.568-0.49 1-1.941 1-1.407 0-2.559-0.413-2.559-0.918zm-11.729-0.686c0.332-0.332 1.195-0.368 1.916-0.079 0.798 0.32 0.561 0.557-0.604 0.605-1.054 0.043-1.644-0.193-1.312-0.526zm24.239-1.384c-0.37-0.588 0.08-0.721 1.11-0.326 1.39 0.531 1.58 0.283 0.99-1.262-0.55-1.467-0.45-1.648 0.44-0.761 1.21 1.193 0.53 3.337-1.05 3.337-0.49 0-1.16-0.444-1.49-0.988zm-61.71 68.788c1.687-1.69 1.502-2.568-0.8-3.8-1.796-0.961-2-0.76-2 1.97 0 3.22 0.85 3.78 2.8 1.83zm59.2 233.77c0-0.27 0.9-0.98 2-1.57s2-0.84 2-0.57c0 0.28-0.9 0.98-2 1.57s-2 0.85-2 0.57zm-0.14-3.51c1.3-1.13 2.84-2.06 3.42-2.06 1.23 0 1.17 0.05-2.78 2.36l-3 1.76 2.36-2.06zm-1.86-1.49c0-0.27 0.9-0.98 2-1.57s2-0.84 2-0.57c0 0.28-0.9 0.98-2 1.57s-2 0.85-2 0.57zm37.73-0.23c0.68-0.27 2.03-0.29 3-0.03 0.97 0.25 0.42 0.48-1.23 0.5s-2.45-0.19-1.77-0.47zm-88.73-5.2c0-2.19 1.092-10.43 2.426-18.31 1.335-7.88 3.241-20.8 4.235-28.7 1.021-8.11 2.056-13.34 2.377-12 0.313 1.3 0.198 4.62-0.254 7.37-0.453 2.75-1.013 6.58-1.244 8.5-0.232 1.93-0.711 5.08-1.065 7-0.483 2.63-0.377 3.13 0.425 2 0.827-1.16 1.05-0.59 0.985 2.5-0.07 3.33-0.204 3.58-0.795 1.5-0.678-2.39-0.742-2.34-1.426 1-1.835 8.97-4.704 30.13-4.198 30.95 0.312 0.5 0.109 1.19-0.45 1.54-0.623 0.39-1.016-0.91-1.016-3.35zm56 2.47c0-0.22 0.7-0.66 1.55-0.99 0.89-0.34 1.29-0.17 0.94 0.39-0.58 0.95-2.49 1.41-2.49 0.6zm12.39-3.67c2.98-3.83 3.53-5.32 3.45-9.29-0.05-2.6 0.19-5.01 0.53-5.36 0.35-0.34 0.63 1.81 0.63 4.79-0.01 4.94-0.37 5.82-4.08 9.92l-4.08 4.5 3.55-4.56zm37.33 1.09c-0.3-1.12-1.34-7.21-2.33-13.54l-1.79-11.49h-4.24c-2.33 0-4.49-0.39-4.78-0.87-0.3-0.49 1.54-0.65 4.08-0.36l4.63 0.52-0.7-7.39c-0.38-4.07-1.39-11.67-2.26-16.9-1.61-9.76-1.96-25.76-0.6-27.14 0.42-0.42 0.63 2.97 0.45 7.53-0.22 5.62 0.67 14.91 2.74 28.71 5.51 36.71 6.24 42.08 5.78 42.53-0.24 0.25-0.69-0.47-0.98-1.6zm-97.857-1.43c-0.795-1.74-0.792-3.19 0.009-5.25l1.104-2.85-0.517 3.02c-0.315 1.84 0.061 3.79 0.967 5 1.381 1.84 1.443 1.73 0.911-1.68-0.389-2.5-0.066-4.39 1.018-5.94 1.24-1.77 1.332-2.61 0.421-3.83-0.927-1.25-0.794-1.23 0.65 0.09 1.691 1.54 1.704 1.82 0.196 3.97-1.868 2.67-2.129 6.44-0.515 7.44 0.771 0.47 0.696 0.94-0.25 1.54-2.114 1.34-2.816 1.07-3.994-1.51zm6.377-0.37c-1.612-3.42-1.564-4.44 0.315-6.79 1.482-1.85 1.502-1.83 0.416 0.4-0.862 1.77-0.842 3.06 0.08 5.28 1.536 3.71 0.855 4.64-0.811 1.11zm61.83 0.02c0.06-2.44 0.17-2.52 0.93-0.75 1.17 2.73 1.17 3.5 0 3.5-0.55 0-0.97-1.24-0.93-2.75zm-55.759-1.22c-2.182-2.69-2.183-2.71-0.265-5.86 1.058-1.75 2.182-3.17 2.496-3.17s-0.129 1-0.985 2.22c-1.995 2.85-1.968 4.67 0.104 6.96 0.913 1.01 1.475 2 1.25 2.19-0.226 0.2-1.396-0.85-2.6-2.34zm13.203 0.04c0.652-4.4 0.702-4.44 5.174-3.6 3.642 0.68 3.698 0.75 1.515 1.92-1.246 0.67-1.952 1.53-1.568 1.91 0.384 0.39-0.389 0.69-1.718 0.67l-2.417-0.04 2.361-1.96c2.285-1.91 2.294-1.97 0.278-1.97-1.472 0-2.382 0.95-3.107 3.25l-1.025 3.25 0.507-3.43zm18.216 1.81c0.68-0.69 1.49-0.99 1.8-0.69 0.3 0.31-0.25 0.87-1.24 1.25-1.42 0.54-1.54 0.42-0.56-0.56zm28.54 0.52c0.33-0.34 1.2-0.37 1.92-0.08 0.8 0.32 0.56 0.55-0.61 0.6-1.05 0.04-1.64-0.19-1.31-0.52zm-18.27-2.4c0-0.55-0.76-1-1.69-1-1.56 0-1.56-0.1-0.06-1.25 0.9-0.69 1.82-2.82 2.05-4.75 0.22-1.92 0.38-0.91 0.34 2.25s-0.2 5.75-0.35 5.75c-0.16 0-0.29-0.45-0.29-1zm78.08-1c-0.25-2.72-1.92-7.37-3.72-10.43-1.12-1.89-1.22-1.89-4-0.12-1.57 1-3.8 2.96-4.95 4.35-2.61 3.17-3.93 1.57-2.5-3.04 2.42-7.83 5.03-14.09 5.06-12.14 0.02 1.17-0.82 4.1-1.86 6.5-3.94 9.1-3.79 9.82 1.07 5.13 2.42-2.34 4.93-4.25 5.59-4.25 2.02 0 6.39 9.8 5.95 13.33-0.33 2.65-0.44 2.76-0.64 0.67zm4.18-5.12c-1.24-3.42-2.03-6.44-1.77-6.71 0.84-0.83 4.65 8.81 4.32 10.92-0.2 1.27-1.13-0.26-2.55-4.21zm-78.97-0.38c0-2.75 0.2-3.76 0.43-2.24s0.22 3.77-0.02 5c-0.23 1.23-0.42-0.01-0.41-2.76zm11.87 2.5c0-1.37 0.22-1.94 0.5-1.25s0.28 1.81 0 2.5-0.5 0.13-0.5-1.25zm9.84 1.07c0-0.51-0.79-1.13-1.75-1.38-1.09-0.28-0.72-0.5 0.97-0.57 2.03-0.09 2.57 0.26 2.14 1.38-0.64 1.68-1.36 1.98-1.36 0.57zm7.5-1.07c-2.55-1.09 0.08-1.09 3.5 0 2.01 0.64 2.11 0.81 0.5 0.83-1.1 0.02-2.9-0.36-4-0.83zm-13.5-3c0-1.65 0.17-3 0.39-3 0.21 0 0.58 1.35 0.82 3 0.25 1.65 0.07 3-0.38 3-0.46 0-0.83-1.35-0.83-3zm-51.775-0.25c0.576-3.18 0.133-3.38-2.402-1.09-1.01 0.91-2.008 1.48-2.219 1.25-0.211-0.22 1.704-1.96 4.256-3.85 2.552-1.9 3.981-2.64 3.176-1.64-0.806 0.99-1.622 2.98-1.815 4.42-0.194 1.44-0.609 2.86-0.923 3.14-0.314 0.29-0.347-0.72-0.073-2.23zm39.005-0.75c0-1.92 0.21-2.71 0.46-1.75s0.25 2.54 0 3.5-0.46 0.18-0.46-1.75zm-59.659-0.57c-2.285-2.29-1.928-3.06 0.429-0.93 1.1 1 2 1.97 2 2.16 0 0.74-0.927 0.27-2.429-1.23zm142.53-2.06c-1.86-1.85-2.96-3.37-2.43-3.37 1.14 0 6.87 5.82 6.26 6.36-0.24 0.21-1.96-1.14-3.83-2.99zm-134.78 1.97c0.362-0.36 0.099-1.37-0.584-2.25-1.098-1.41-1.039-1.43 0.509-0.22 2.005 1.58 2.295 3.13 0.583 3.13-0.641 0-0.87-0.3-0.508-0.66zm16.833-1.34c0-1.37 0.227-1.94 0.504-1.25 0.278 0.69 0.278 1.81 0 2.5-0.277 0.69-0.504 0.13-0.504-1.25zm2.842-0.94c0-0.58 0.45-1.06 1-1.06s1 0.2 1 0.44-0.45 0.72-1 1.06-1 0.14-1-0.44zm14.35-1.67c2.66-1.39 5.06-2.31 5.33-2.04 0.47 0.47-8.304 4.7-9.557 4.6-0.343-0.02 1.559-1.18 4.227-2.56zm41.65-0.39c-1.83-1.18-0.25-1.18 2.5 0 1.32 0.57 1.49 0.88 0.5 0.91-0.82 0.04-2.18-0.38-3-0.91zm-43-2.5c2.48-1.32 4.95-2.41 5.5-2.41s-1.02 1.09-3.5 2.41c-2.48 1.33-4.95 2.41-5.5 2.41s1.025-1.08 3.5-2.41zm-14.137 0.26c1.425-1.82 3.194-1.5 3.058 0.55-0.054 0.82-0.241 0.79-0.597-0.1-0.424-1.06-0.821-1.06-2.171 0-1.475 1.15-1.506 1.1-0.29-0.45zm-24.458-1.91c-1.892-2.13-1.89-2.13 0.289-0.99 2.431 1.28 3.928 3.14 2.52 3.14-0.497 0-1.761-0.97-2.809-2.15zm9.674-0.27c-0.043-1.05 0.193-1.64 0.525-1.31s0.368 1.2 0.079 1.92c-0.319 0.8-0.556 0.56-0.604-0.61zm2.683-0.78c0.545-2.08 0.609-2.1 1.264-0.25 0.575 1.62 0.815 1.39 1.428-1.37 0.931-4.2 1.779-3.6 0.928 0.66-0.426 2.13-1.214 3.16-2.413 3.16-1.343 0-1.64-0.54-1.207-2.2zm5.317-0.22c-0.043-1.05 0.193-1.64 0.525-1.31s0.368 1.2 0.079 1.92c-0.319 0.8-0.556 0.56-0.604-0.61zm-15.099-1.1c-1.932-2.33-0.554-2.77 1.514-0.49 0.999 1.11 1.351 2.01 0.783 2.01-0.567 0-1.601-0.69-2.297-1.52zm62.72 0.19c-0.28-0.74 0.08-1.34 0.8-1.34s1.08 0.6 0.8 1.34c-0.28 0.73-0.64 1.33-0.8 1.33s-0.52-0.6-0.8-1.33zm6.3 0.39c0-0.52 0.44-1.22 0.99-1.55 0.57-0.35 0.73 0.05 0.39 0.94-0.66 1.73-1.38 2.05-1.38 0.61zm9.63 0.15c-0.27-0.44 1.17-0.63 3.19-0.43 5.53 0.55 6.19 1.05 1.49 1.14-2.31 0.04-4.41-0.28-4.68-0.71zm-40.09-1.27c0.3-0.49-0.2-2.13-1.1-3.66-1.49-2.5-1.49-2.58-0.02-0.78 0.89 1.1 2.3 2.51 3.12 3.13 1.3 0.97 1.23 1.2-0.52 1.65-1.11 0.3-1.78 0.14-1.48-0.34zm28.46-0.94c0.59-1.1 1.3-2 1.57-2 0.28 0 0.02 0.9-0.57 2s-1.3 2-1.57 2c-0.28 0-0.02-0.9 0.57-2zm-17.81-1.5c-0.02-1.65 0.19-2.45 0.47-1.77 0.27 0.68 0.29 2.03 0.03 3-0.25 0.97-0.47 0.42-0.5-1.23zm-38.111 0.08c-0.043-1.05 0.193-1.64 0.525-1.31s0.368 1.2 0.079 1.92c-0.319 0.8-0.556 0.56-0.604-0.61zm5.091 0.42c0.016-0.82 0.39-2.62 0.83-4 0.644-2.01 0.806-2.11 0.83-0.5 0.016 1.1-0.357 2.9-0.83 4-0.527 1.23-0.848 1.42-0.83 0.5zm24.91-1.59c-1.7-1.42-3.05-3.33-3.02-4.25 0.05-1.17 0.33-1 0.97 0.58 0.49 1.24 2.38 3.15 4.19 4.25 1.8 1.1 2.75 2 2.11 2.01-0.65 0-2.56-1.16-4.25-2.59zm20.42 0.59c-0.34-0.55 0.08-1 0.94-1s1.56 0.45 1.56 1-0.42 1-0.94 1-1.22-0.45-1.56-1zm3.5 0.62c0-0.2 0.79-0.99 1.75-1.75 1.59-1.24 1.62-1.21 0.38 0.38-1.31 1.67-2.13 2.2-2.13 1.37zm-62.559-2.09c-1.067-0.81-1.434-1.48-0.813-1.5 0.62-0.02 1.687 0.65 2.372 1.47 1.581 1.91 0.935 1.92-1.559 0.03zm6.638 0.05c-0.043-1.05 0.193-1.64 0.525-1.31s0.368 1.2 0.079 1.92c-0.319 0.8-0.556 0.56-0.604-0.61zm45.081-0.58c0-1.37 0.22-1.94 0.5-1.25s0.28 1.81 0 2.5-0.5 0.13-0.5-1.25zm-40.081-0.42c-0.043-1.05 0.193-1.64 0.525-1.31s0.368 1.2 0.079 1.92c-0.319 0.8-0.556 0.56-0.604-0.61zm-2.079-1.02c0-0.79 0.408-1.69 0.907-2 0.498-0.31 0.671 0.34 0.383 1.44-0.611 2.33-1.29 2.63-1.29 0.56zm102.98-0.31c-0.02-0.96-1.18-4.45-2.58-7.75-4.34-10.18-6.44-16.44-9.38-27.93-1.56-6.09-3.61-12.87-4.56-15.07-1.9-4.41-7.68-25.61-7.13-26.17 0.19-0.19 1.14 2.47 2.12 5.91 0.97 3.45 3.74 12.2 6.16 19.46 2.41 7.26 4.39 14.01 4.39 15 0 2.57 5.26 18.73 8.33 25.59 2.63 5.87 4.4 12.71 3.28 12.71-0.33 0-0.62-0.79-0.63-1.75zm-64.82-1.25c0-1.37 0.22-1.94 0.5-1.25s0.28 1.81 0 2.5-0.5 0.13-0.5-1.25zm-53.145-2.08c0.009-1.88 0.465-4.09 1.015-4.92 0.698-1.05 0.802-0.14 0.345 3-0.813 5.6-1.38 6.4-1.36 1.92zm58.065 0.66c-0.04-1.05 0.19-1.64 0.52-1.31 0.34 0.33 0.37 1.2 0.08 1.92-0.32 0.8-0.55 0.56-0.6-0.61zm8.92 1.04c0-0.2 0.79-0.99 1.75-1.75 1.59-1.24 1.62-1.21 0.38 0.38-1.31 1.67-2.13 2.2-2.13 1.37zm-63-3.49c0-0.49 1.012-1.12 2.25-1.38 1.238-0.27 3.15-0.85 4.25-1.28 3.545-1.4 1.025 0.41-2.801 2.01-2.035 0.85-3.699 1.14-3.699 0.65zm42.08-1.55c-0.04-1.05 0.19-1.64 0.52-1.31 0.34 0.33 0.37 1.2 0.08 1.92-0.32 0.8-0.55 0.56-0.6-0.61zm2.48-0.87c0.38-0.99 0.94-1.54 1.25-1.24 0.3 0.31 0 1.12-0.69 1.8-0.98 0.98-1.1 0.86-0.56-0.56zm-22.248-1.22c-1.022-0.75-1.231-1.42-0.568-1.83 0.575-0.36 1.304 0.02 1.62 0.85 0.315 0.82 1.023 1.49 1.573 1.49s0.769-0.6 0.486-1.34 0.294-1.97 1.281-2.75c1.643-1.29 1.677-1.26 0.403 0.36-1.506 1.92-1.493 1.96 1.221 3.42 1.533 0.82 1.325 0.98-1.287 0.98-1.713 0-3.841-0.53-4.729-1.18zm17.848-1.49c0-1.37 0.22-1.94 0.5-1.25s0.28 1.81 0 2.5-0.5 0.13-0.5-1.25zm8.14-3c0-3.02 0.19-4.26 0.42-2.75s0.23 3.99 0 5.5-0.42 0.28-0.42-2.75zm14.7 4c0.82-0.53 2.18-0.97 3-0.97 1.33 0 1.33 0.11 0 0.97-0.82 0.53-2.18 0.97-3 0.97-1.33 0-1.33-0.11 0-0.97zm11 0.06c0-0.52 0.44-1.22 0.99-1.55 0.57-0.35 0.73 0.05 0.39 0.94-0.66 1.73-1.38 2.05-1.38 0.61zm-30.92-1.48c-0.04-1.05 0.19-1.64 0.52-1.31 0.34 0.33 0.37 1.2 0.08 1.92-0.32 0.8-0.55 0.56-0.6-0.61zm13.92 0.7c0.82-0.31 3.19-1.4 5.25-2.44 2.06-1.03 3.75-1.66 3.75-1.38 0 0.78-7.77 4.55-9.21 4.46-0.85-0.05-0.78-0.27 0.21-0.64zm20.56-0.57c0.38-0.99 0.94-1.54 1.25-1.24 0.3 0.31 0 1.12-0.69 1.8-0.98 0.98-1.1 0.86-0.56-0.56zm-70.922-1.21c-0.316-0.82-0.139-1.5 0.393-1.5 0.533 0 0.969 0.68 0.969 1.5 0 0.83-0.177 1.5-0.393 1.5s-0.652-0.67-0.969-1.5zm64.962 0.67c-0.28-0.46 0.12-0.84 0.9-0.84s1.18 0.38 0.9 0.84c-0.29 0.46-0.69 0.83-0.9 0.83s-0.61-0.37-0.9-0.83zm-68.429-5.67c1.639-3.02 3.166-5.5 3.393-5.5 0.228 0-0.8 2.48-2.283 5.5-1.484 3.03-3.011 5.5-3.393 5.5-0.383 0 0.645-2.47 2.283-5.5zm42.909 4.08c-0.04-1.05 0.19-1.64 0.52-1.31 0.34 0.33 0.37 1.2 0.08 1.92-0.32 0.8-0.55 0.56-0.6-0.61zm-36.58-2.58c-0.38-1.73-0.465-3.37-0.19-3.64 0.275-0.28 0.81 0.91 1.19 2.64s0.465 3.37 0.19 3.64c-0.275 0.28-0.81-0.91-1.19-2.64zm41.68-1.75c-0.1-2.95 0.26-5.25 0.82-5.25 0.55 0 1-0.45 1-1 0-2.3-2.9-0.77-3.32 1.75-0.35 2.11-0.13-3.97 0.24-6.84 0.05-0.32 1.32-1.11 2.83-1.74 2.71-1.14 2.72-1.13 0.5 0.46-1.24 0.89-2.25 2.16-2.25 2.83 0 1.29 4.13 3.54 6.49 3.54 0.76 0 1.63 0.39 1.92 0.86s-0.69 0.68-2.19 0.47c-2.56-0.35-2.59-0.31-0.47 0.62 3.11 1.36 2.84 2.23-0.32 1.03-4-1.53-4.3-1.29-4.69 3.77l-0.38 4.75-0.18-5.25zm26.32 2.75c1-1.1 2.03-2 2.31-2 0.27 0-0.31 0.9-1.31 2s-2.03 2-2.31 2c-0.27 0 0.31-0.9 1.31-2zm-51.095-0.86c2.038-2.29 2.595-2.59 2.595-1.38 0 0.42-1.013 1.38-2.25 2.14-2.242 1.38-2.243 1.38-0.345-0.76zm47.395-0.18c1.17-0.94 1.8-2.03 1.41-2.42s-0.06-0.56 0.74-0.37c0.8 0.18 1.48-0.19 1.5-0.84 0.03-0.64 0.35-1.47 0.72-1.84 1.28-1.27 0.26 2.21-1.37 4.69-0.9 1.37-2.41 2.49-3.37 2.49-1.5 0-1.46-0.23 0.37-1.71zm-67.721-0.38c-0.043-1.05 0.193-1.64 0.525-1.31s0.368 1.2 0.079 1.92c-0.319 0.8-0.556 0.56-0.604-0.61zm12.421-0.92c2.952-2.48 2.968-2.55 1-4.06-1.1-0.84-1.55-1.54-1-1.54s1.9 0.69 3 1.53c2 1.53 2 1.53 0 3.05-3.665 2.77-6.045 3.58-3 1.02zm15.454 0.25c-0.614-1.14-0.896-2.3-0.626-2.57 0.269-0.27 0.782 0.44 1.152 1.59 0.88 2.79 2.44 2.65 1.92-0.18-0.23-1.24-0.13-1.57 0.22-0.75 0.36 0.83 1.09 2.06 1.64 2.75 0.72 0.92 0.43 1.25-1.1 1.25-1.15 0-2.59-0.94-3.206-2.09zm8.046-5.91c-0.64-1.19-0.94-2.4-0.66-2.67 0.27-0.28 1.02 0.48 1.66 1.67s0.94 2.4 0.66 2.67c-0.27 0.28-1.02-0.48-1.66-1.67zm-15 0.6c0-0.3 1.237-1.19 2.75-1.99 2.367-1.25 2.506-1.55 1-2.14-0.963-0.38-1.75-1.14-1.75-1.7 0-0.69 0.404-0.69 1.25 0 0.687 0.56 2.094 1.18 3.125 1.37 1.445 0.28 0.925 0.89-2.25 2.67-2.269 1.28-4.125 2.08-4.125 1.79zm17.31-1.35c-0.34-0.96-0.81-2.2-1.04-2.75s0.29-0.13 1.16 0.94c1.57 1.94 2.04 3.56 1.04 3.56-0.29 0-0.81-0.79-1.16-1.75zm-44.81-2.25c0.853-1.65 1.776-3 2.051-3s-0.198 1.35-1.051 3-1.776 3-2.051 3 0.198-1.35 1.051-3zm2.5 2.06c0-0.52 0.445-1.22 0.989-1.55 0.566-0.35 0.734 0.05 0.393 0.94-0.665 1.73-1.382 2.05-1.382 0.61zm6.564-3.35c0.376-0.99 0.935-1.54 1.243-1.24 0.308 0.31 0.001 1.12-0.683 1.8-0.988 0.98-1.102 0.86-0.56-0.56zm62.166 0.63c0.68-0.27 2.03-0.29 3-0.03 0.97 0.25 0.42 0.48-1.23 0.5s-2.45-0.19-1.77-0.47zm-10.92-3.05c1.88-0.36 2.09-0.71 1.11-1.89s-0.9-1.33 0.44-0.82c0.9 0.35 1.64 1.06 1.64 1.59 0 0.52 0.52 0.63 1.15 0.23 0.72-0.44 0.89-0.27 0.45 0.45-0.4 0.63-2.15 1.09-3.91 1.01-2.45-0.1-2.65-0.23-0.88-0.57zm15.94 0.05c0.69-0.28 1.81-0.28 2.5 0s0.13 0.5-1.25 0.5-1.94-0.22-1.25-0.5zm-48.191-1.78c1.918-1.42 1.917-1.45-0.059-2.97-1.1-0.84-1.585-1.54-1.079-1.56 0.507-0.02 1.74 0.71 2.741 1.62 1.725 1.56 1.729 1.71 0.079 2.97-0.958 0.72-2.165 1.33-2.682 1.35-0.518 0.02-0.068-0.62 1-1.41zm38.981-0.62c0.36-0.59-0.18-2.01-1.19-3.16l-1.85-2.09 2.77 1.78c2.17 1.4 2.52 2.08 1.63 3.16-1.35 1.62-2.31 1.84-1.36 0.31zm5.38-1.27c1.85-2.04 2.06-2.67 0.88-2.67-0.86 0-2.11-0.66-2.78-1.47-1.03-1.25-0.75-1.24 1.88 0.07 3.76 1.88 3.8 2.37 0.32 4.82l-2.72 1.92 2.42-2.67zm-55.42-0.67c-1.319-0.57-1.489-0.88-0.5-0.91 0.825-0.03 2.175 0.38 3 0.91 1.828 1.18 0.249 1.18-2.5 0zm21.25 0.34c0.69-0.28 1.81-0.28 2.5 0s0.13 0.5-1.25 0.5-1.94-0.22-1.25-0.5zm17.25-0.84c1.38-0.79 2.95-1.43 3.5-1.43s-0.12 0.64-1.5 1.43-2.95 1.43-3.5 1.43 0.12-0.64 1.5-1.43zm-53.962-1c0.003-0.55 0.927-2.12 2.051-3.5 1.359-1.66 1.698-1.83 1.012-0.5-1.686 3.26-3.071 5.07-3.063 4zm31.233-0.1c0.332-0.34 1.195-0.37 1.919-0.08 0.8 0.32 0.56 0.55-0.607 0.6-1.054 0.04-1.644-0.19-1.312-0.52zm20.729 0.17c0-0.27 0.9-0.98 2-1.57s2-0.84 2-0.57c0 0.28-0.9 0.98-2 1.57s-2 0.85-2 0.57zm-35-1.57c-0.825-0.53-1.05-0.97-0.5-0.97s1.675 0.44 2.5 0.97 1.05 0.97 0.5 0.97-1.675-0.44-2.5-0.97zm19.25 0.31c0.96-0.25 2.54-0.25 3.5 0s0.17 0.46-1.75 0.46-2.71-0.21-1.75-0.46zm-4.519-1.97c0.677-0.27 2.029-0.29 2.999-0.03 0.97 0.25 0.42 0.48-1.23 0.5s-2.446-0.19-1.769-0.47zm13.519-1.37c-2.95-1.19-2.78-1.98 1.06-4.88l3.19-2.42-2.73 2.87-2.73 2.88 2.73 1.21c3.15 1.4 1.84 1.69-1.52 0.34zm-27.75-0.97c-1.261-0.54-1.445-0.86-0.5-0.86 0.825 0 2.4 0.39 3.5 0.86 1.261 0.54 1.445 0.86 0.5 0.86-0.825 0-2.4-0.39-3.5-0.86zm31.46-0.55c-1.06-1.28-1-1.84 0.38-3.21 0.92-0.93 1.66-1.16 1.66-0.54s-0.56 1.32-1.25 1.55c-0.97 0.33-0.95 0.79 0.12 2.09 0.76 0.91 1.15 1.66 0.87 1.66-0.27 0-1.07-0.7-1.78-1.55zm4.05 0.58c-1.27-0.81-1.29-1.14-0.1-2.24 0.88-0.82 1.14-0.86 0.72-0.1-0.37 0.65 0.12 1.65 1.1 2.22 0.97 0.57 1.32 1.04 0.77 1.04-0.55 0.01-1.67-0.4-2.49-0.92zm-52.04-1.97c0.573-1.07 1.535-2.25 2.139-2.63 0.604-0.37 0.325 0.5-0.62 1.95-2.002 3.05-3.038 3.52-1.519 0.68zm29.03 1.55c0-0.21 1.575-0.57 3.5-0.8 1.92-0.22 3.5-0.05 3.5 0.39s-1.58 0.8-3.5 0.8c-1.925 0-3.5-0.18-3.5-0.39zm-10.5-3.16l-3-1.37 3 0.6c3.217 0.65 4.079 1.08 3.417 1.73-0.23 0.22-1.767-0.21-3.417-0.96zm36.77-2.45c0-2.47 0.2-3.49 0.44-2.25 0.23 1.24 0.23 3.26 0 4.5-0.24 1.24-0.44 0.23-0.44-2.25zm-26.79 1.97c-0.349-0.57 1.161-0.97 3.63-0.97 4.8 0 4.86 0.43 0.18 1.32-1.767 0.34-3.481 0.18-3.81-0.35zm28.52-0.41c0-0.8 0.63-1.82 1.4-2.26 0.78-0.44 1.61-1.92 1.87-3.3 0.36-1.96 0.49-1.75 0.59 1.01 0.1 2.52-0.42 3.86-1.86 4.76-1.66 1.03-2 1-2-0.21zm-28.25-2.22c0.687-0.28 1.812-0.28 2.5 0 0.687 0.28 0.125 0.5-1.25 0.5s-1.938-0.22-1.25-0.5zm-16.43-6.34c0-3.57 0.182-5.04 0.403-3.25 0.222 1.79 0.222 4.71 0 6.5-0.221 1.79-0.403 0.33-0.403-3.25zm20.95 5.4c0.33-0.34 1.2-0.37 1.92-0.08 0.8 0.32 0.56 0.55-0.61 0.6-1.05 0.04-1.64-0.19-1.31-0.52zm42.23-0.4c-0.34-0.55-0.14-1 0.44-1s1.06 0.45 1.06 1-0.2 1-0.44 1-0.72-0.45-1.06-1zm-57.5-0.39c0-0.21 1.326-0.58 2.947-0.82 1.621-0.23 2.72-0.06 2.441 0.39-0.495 0.8-5.388 1.2-5.388 0.43zm48-0.06c0-0.27 1.35-1.2 3-2.05s3-1.33 3-1.05c0 0.27-1.35 1.2-3 2.05s-3 1.33-3 1.05zm-23.73-1.15c0.33-0.34 1.2-0.37 1.92-0.08 0.8 0.32 0.56 0.55-0.61 0.6-1.05 0.04-1.64-0.19-1.31-0.52zm-13.27-0.79c0-0.22 1.8-0.57 4-0.78s4-0.03 4 0.39c0 0.43-1.8 0.78-4 0.78s-4-0.18-4-0.39zm-7-1.05c0-0.24 0.45-0.72 1-1.06s1-0.14 1 0.44-0.45 1.06-1 1.06-1-0.2-1-0.44zm21.75-0.22c0.69-0.28 1.81-0.28 2.5 0s0.13 0.5-1.25 0.5-1.94-0.22-1.25-0.5zm22.33 0.3c0.23-0.2 1.54-0.9 2.92-1.56 2.36-1.12 2.39-1.1 0.56 0.37-1.59 1.27-4.85 2.39-3.48 1.19zm-64.516-4.35c-0.542-1.42-0.428-1.54 0.56-0.56 0.684 0.68 0.991 1.49 0.683 1.8-0.308 0.3-0.867-0.25-1.243-1.24zm6.594-0.29c0-1.37 0.227-1.94 0.504-1.25 0.278 0.69 0.278 1.81 0 2.5-0.277 0.69-0.504 0.13-0.504-1.25zm68.842 1c-0.9-0.58-1.02-0.98-0.31-0.98 0.66-0.01 1.47 0.43 1.81 0.98 0.77 1.24 0.42 1.24-1.5 0zm-58.736-0.72c1.52-0.23 3.77-0.22 5 0.02 1.23 0.23-0.014 0.42-2.764 0.41-2.75 0-3.756-0.2-2.236-0.43zm37.506-0.45c0.58-0.58 1.65-0.86 2.37-0.62 0.75 0.25 0.29 0.71-1.06 1.06-1.66 0.43-2.05 0.3-1.31-0.44zm-23.58-2.33c-0.02-1.65 0.19-2.45 0.47-1.77 0.27 0.68 0.29 2.03 0.03 3-0.25 0.97-0.47 0.42-0.5-1.23zm2.81 0.5c0-1.1 0.41-2 0.91-2 0.49 0 0.67 0.9 0.38 2s-0.7 2-0.91 2-0.38-0.9-0.38-2zm-34.289-3c-0.288-1.1-0.115-2.25 0.383-2.56s0.906 0.59 0.906 2c0 3.07-0.57 3.31-1.289 0.56zm17.539 1.31c0.962-0.25 2.537-0.25 3.5 0 0.962 0.25 0.175 0.46-1.75 0.46s-2.713-0.21-1.75-0.46zm38.75-0.31c0.82-0.53 1.95-0.97 2.5-0.97s0.32 0.44-0.5 0.97-1.95 0.97-2.5 0.97-0.32-0.44 0.5-0.97zm13.73-0.12c0.68-0.69 1.49-0.99 1.8-0.69 0.3 0.31-0.25 0.87-1.24 1.25-1.42 0.54-1.54 0.42-0.56-0.56zm-76.247-0.85c0.267-0.43 1.393-1.03 2.503-1.32 1.109-0.29 1.798-0.17 1.531 0.26-0.267 0.44-1.393 1.03-2.503 1.32-1.109 0.29-1.798 0.17-1.531-0.26zm24.248-1.69c0.677-0.27 2.027-0.29 3-0.03 0.973 0.25 0.419 0.48-1.231 0.5s-2.446-0.19-1.769-0.47zm38.769-0.34c2.75-1.18 4.33-1.18 2.5 0-0.82 0.53-2.18 0.95-3 0.91-0.99-0.03-0.82-0.34 0.5-0.91zm12.23-0.12c0.68-0.69 1.49-0.99 1.8-0.69 0.3 0.31-0.25 0.87-1.24 1.25-1.42 0.54-1.54 0.42-0.56-0.56zm-36.57-1.88c0-1.37 0.22-1.94 0.5-1.25s0.28 1.81 0 2.5-0.5 0.13-0.5-1.25zm-27.889 0.4c0.332-0.34 1.195-0.37 1.917-0.08 0.797 0.32 0.56 0.55-0.605 0.6-1.054 0.04-1.644-0.19-1.312-0.52zm24.808-0.82c-0.043-1.05 0.193-1.64 0.525-1.31s0.368 1.2 0.079 1.92c-0.319 0.8-0.556 0.56-0.604-0.61zm6.001 0c-0.04-1.05 0.19-1.64 0.52-1.31 0.34 0.33 0.37 1.2 0.08 1.92-0.32 0.8-0.55 0.56-0.6-0.61zm9.67 0.76c0.69-0.28 1.81-0.28 2.5 0s0.13 0.5-1.25 0.5-1.94-0.22-1.25-0.5zm-46.613-1.23c-1.151-0.73-1.151-0.97 0-1.5 0.75-0.35-0.179-0.4-2.064-0.11-4.067 0.62-3.628-0.19 0.791-1.46 2.901-0.83 3.136-0.72 3.136 1.53 0 2.73 0.011 2.72-1.863 1.54zm59.133 0.29c0.33-0.34 1.2-0.37 1.92-0.08 0.8 0.32 0.56 0.55-0.61 0.6-1.05 0.04-1.64-0.19-1.31-0.52zm19.73-0.4c-0.82-0.53-1.05-0.97-0.5-0.97s1.68 0.44 2.5 0.97 1.05 0.97 0.5 0.97-1.68-0.44-2.5-0.97zm-72.147-1.25c0.504-0.51 1.981-0.75 3.282-0.55 2.001 0.32 1.861 0.46-0.916 0.92-1.988 0.33-2.921 0.18-2.366-0.37zm65.147 0.25c0.82-0.53 1.95-0.97 2.5-0.97s0.32 0.44-0.5 0.97-1.95 0.97-2.5 0.97-0.32-0.44 0.5-0.97zm-50.805-2.5c-0.02-1.65 0.187-2.45 0.461-1.77s0.291 2.03 0.037 3-0.478 0.42-0.498-1.23zm20.805 2.11c0-0.21 1.35-0.58 3-0.82 1.65-0.25 3-0.07 3 0.38 0 0.46-1.35 0.83-3 0.83s-3-0.17-3-0.39zm27-1.11c1.38-0.79 2.95-1.43 3.5-1.43s-0.12 0.64-1.5 1.43-2.95 1.43-3.5 1.43 0.12-0.64 1.5-1.43zm-11.92 0.14c0.23-0.2 1.77-0.66 3.42-1.03 2.19-0.49 2.6-0.4 1.5 0.34-1.35 0.92-5.92 1.56-4.92 0.69zm22.42-0.64c-1.63-0.7-1.69-0.87-0.31-0.93 0.93-0.04 1.97 0.38 2.31 0.93 0.71 1.15 0.68 1.15-2 0zm-60.268-3c0-1.92 0.206-2.71 0.457-1.75 0.252 0.96 0.252 2.54 0 3.5-0.251 0.96-0.457 0.18-0.457-1.75zm48.498 1.88c0.68-0.69 1.49-0.99 1.8-0.69 0.3 0.31-0.25 0.87-1.24 1.25-1.42 0.54-1.54 0.42-0.56-0.56zm-57.572-1.88c0-1.37 0.227-1.94 0.504-1.25 0.278 0.69 0.278 1.81 0 2.5-0.277 0.69-0.504 0.13-0.504-1.25zm3.074-1c0-1.92 0.206-2.71 0.457-1.75 0.252 0.96 0.252 2.54 0 3.5-0.251 0.96-0.457 0.18-0.457-1.75zm14 0c0-1.92 0.206-2.71 0.457-1.75 0.252 0.96 0.252 2.54 0 3.5-0.251 0.96-0.457 0.18-0.457-1.75zm16.028 2.28c1.52-0.23 3.77-0.22 5 0.02 1.23 0.23-0.01 0.42-2.76 0.41-2.75 0-3.76-0.2-2.24-0.43zm-27.028-3.28c0-1.92 0.206-2.71 0.457-1.75 0.252 0.96 0.252 2.54 0 3.5-0.251 0.96-0.457 0.18-0.457-1.75zm42.358 2.14c-0.29-0.47 0.58-0.64 1.94-0.38s2.47 0.65 2.47 0.86c0 0.77-3.9 0.35-4.41-0.48zm-62.511-1.56c-0.043-1.05 0.193-1.64 0.525-1.31s0.368 1.2 0.079 1.92c-0.319 0.8-0.556 0.56-0.604-0.61zm3.116-1.08c-0.02-1.65 0.187-2.45 0.461-1.77s0.291 2.03 0.037 3-0.478 0.42-0.498-1.23zm3.091-2c0.008-2.75 0.202-3.76 0.432-2.24 0.229 1.52 0.223 3.77-0.014 5s-0.425-0.01-0.418-2.76zm3 0c0.008-2.75 0.202-3.76 0.432-2.24 0.229 1.52 0.223 3.77-0.014 5s-0.425-0.01-0.418-2.76zm24.793 3.08c-0.043-1.05 0.193-1.64 0.525-1.31s0.368 1.2 0.079 1.92c-0.319 0.8-0.556 0.56-0.604-0.61zm46.631-0.59c0.29-1.11 0.89-2.24 1.32-2.51 0.43-0.26 0.55 0.43 0.26 1.53-0.29 1.11-0.89 2.24-1.32 2.51-0.43 0.26-0.55-0.42-0.26-1.53zm-68.458-2.49c-0.011-2.2 0.185-3.22 0.435-2.26 0.25 0.95 0.259 2.75 0.02 4-0.239 1.24-0.444 0.46-0.455-1.74zm33.478 2.84c0.68-0.27 2.03-0.29 3-0.03 0.97 0.25 0.42 0.48-1.23 0.5s-2.45-0.19-1.77-0.47zm5.77-0.34c-0.34-0.55-0.14-1 0.44-1s1.06 0.45 1.06 1-0.2 1-0.44 1-0.72-0.45-1.06-1zm-55.342-3c0-1.37 0.227-1.94 0.504-1.25 0.278 0.69 0.278 1.81 0 2.5-0.277 0.69-0.504 0.13-0.504-1.25zm67.592 1.34c0.69-0.28 1.81-0.28 2.5 0s0.13 0.5-1.25 0.5-1.94-0.22-1.25-0.5zm-63.671-1.76c-0.043-1.05 0.193-1.64 0.525-1.31s0.368 1.2 0.079 1.92c-0.319 0.8-0.556 0.56-0.604-0.61zm35.079-0.58c0-1.37 0.227-1.94 0.504-1.25 0.278 0.69 0.278 1.81 0 2.5-0.277 0.69-0.504 0.13-0.504-1.25zm10.922 1.63c0.23-0.21 2.67-0.63 5.42-0.95 3.37-0.39 4.19-0.3 2.5 0.27-2.5 0.85-8.7 1.38-7.92 0.68zm-30.922-2.63c0-1.37 0.227-1.94 0.504-1.25 0.278 0.69 0.278 1.81 0 2.5-0.277 0.69-0.504 0.13-0.504-1.25zm24.862 0.42c0-1.06 0.47-2.59 1.03-3.42 0.74-1.09 0.83-0.69 0.34 1.5-0.82 3.68-1.4 4.48-1.37 1.92zm23.48 0.6c2.58-1.13 4.5-1.23 4.5-0.23 0 0.43-1.46 0.86-3.25 0.95-2.65 0.13-2.88-0.01-1.25-0.72zm-13.74-1.73c1.25-0.24 3.05-0.23 4 0.02 0.96 0.25-0.06 0.45-2.26 0.44s-2.98-0.22-1.74-0.46zm-6.6-2.29c0-1.37 0.22-1.94 0.5-1.25s0.28 1.81 0 2.5-0.5 0.13-0.5-1.25zm-17.889 0.4c0.332-0.34 1.195-0.37 1.916-0.08 0.798 0.32 0.561 0.55-0.604 0.6-1.054 0.04-1.644-0.19-1.312-0.52zm23.989-1.12c1.52-0.23 3.77-0.22 5 0.02 1.23 0.23-0.01 0.42-2.76 0.41-2.75 0-3.76-0.2-2.24-0.43zm-25.492-2c1.797-0.23 4.497-0.22 6 0.01 1.503 0.22 0.032 0.41-3.268 0.4s-4.529-0.19-2.732-0.41zm65.332-52.81c-1.7-1.95-3.1-4.2-3.1-5 0-0.81-0.42-1.47-0.93-1.47-0.52 0-1.23-0.91-1.58-2.03s-1.74-3.21-3.07-4.65-2.42-3.26-2.42-4.04c0-2 4.16 3.17 7.24 8.99 1.38 2.62 3.7 5.94 5.14 7.38 2.32 2.32 3.36 4.35 2.22 4.35-0.21 0-1.79-1.59-3.5-3.53zm-84.85-3.3c2.062-2.3 3.757-5.19 3.765-6.42 0.009-1.24 0.446-2.92 0.972-3.75 0.65-1.02 0.756-0.22 0.332 2.5-0.616 3.95-4.025 9.12-7.193 10.92-0.894 0.51 0.062-0.95 2.124-3.25zm-34.25-11.92c0-1.13 4.908-7.25 4.968-6.19 0.018 0.3-1.093 2.08-2.468 3.94s-2.5 2.88-2.5 2.25zm-11.953-24.75c-0.009-0.55 0.314-1.48 0.718-2.08 0.808-1.18 16.235-9.7 16.235-8.97 0 0.26-3.262 2.38-7.25 4.73s-7.798 4.96-8.468 5.8c-0.67 0.83-1.226 1.07-1.235 0.52zm81.993-6.43c-0.57-1.07-1.04-5.29-1.04-9.39v-7.444l-3.75 1.338c-7.649 2.73-14.862 0.962-14.05-3.445 0.502-2.727 7.244-5.398 11.716-4.643 6.674 1.128 7.254 2.046 7.184 11.422-0.05 9.062 0.92 12.092 3.9 12.092 2.58 0 3.66-2.31 4.47-9.5 1.17-10.479 3.22-13.268 10.03-13.667 6.62-0.387 9.77 2.583 7.08 6.68-2.23 3.41-6.42 3.788-10.73 0.97l-3.66-2.384-0.52 2.201c-0.29 1.21-0.84 4.85-1.23 8.08-0.75 6.27-2.98 9.62-6.4 9.62-1.09 0-2.44-0.87-3-1.93zm-3.106-17.034c2.706-1.449 1.616-3.698-2.437-5.036-5.698-1.881-14.528 3.344-10.393 6.149 1.658 1.125 10.002 0.401 12.83-1.113zm-7.684-0.708c-2.667-1.055-1.054-2.328 2.95-2.328 2.492 0 3.814 0.361 3.25 0.888-1.331 1.244-4.711 2.029-6.2 1.44zm35.06 0.558c1.9-3.037 0.11-4.886-4.74-4.886-3.43 0-4.75 0.462-5.54 1.941-2.19 4.096 7.77 6.951 10.28 2.945zm-6.64-0.552c-1.44-1.434-0.54-2.334 2.33-2.334 3.21 0 4.03 1.391 1.42 2.393-2.04 0.781-2.93 0.767-3.75-0.059zm56.33-22.803c4.12-0.677 8.77-1.748 10.32-2.381 1.54-0.632 4.47-1.112 6.5-1.066 3.29 0.075 3.04 0.238-2.32 1.525-12.66 3.042-14.11 3.302-18 3.228-3-0.057-2.12-0.384 3.5-1.306zm-7.85-2.969c0.35-0.379 5.75-2.429 12-4.558 6.24-2.129 10.45-3.206 9.35-2.394-1.1 0.813-3.12 1.754-4.5 2.092s-3.4 1.174-4.5 1.858-3.58 1.547-5.5 1.917-4.4 0.92-5.5 1.222c-1.1 0.303-1.71 0.241-1.35-0.137zm-11.13-19.312c0.02-0.412 3.87-3.225 8.57-6.25s10.09-6.784 11.98-8.353c1.89-1.57 3.43-2.576 3.43-2.236 0 0.886-6.33 6.525-7.37 6.56-0.47 0.016-4.15 2.504-8.17 5.529-7.31 5.498-8.48 6.158-8.44 4.75zm-106.19-6c-8.983-6.191-10.232-7.181-9.712-7.7 0.273-0.274 2.721 1.079 5.439 3.006 2.719 1.926 6.405 4.434 8.193 5.572 1.788 1.139 3.25 2.251 3.25 2.471 0 1.098-2.232 0.055-7.17-3.349zm-13.969-10.216c-1.299-1.082-1.868-1.982-1.266-2 0.602-0.019 1.91 0.866 2.905 1.966 2.316 2.56 1.415 2.578-1.639 0.034zm104.64-23.034c0.85-1.65 1.78-3 2.05-3 0.28 0-0.2 1.35-1.05 3-0.85 1.6495-1.78 2.9995-2.05 2.9995-0.28 0 0.2-1.35 1.05-2.9995z"
  />
  </g>
</svg>
