<?xml version="1.0" standalone="no"?>
<!DOCTYPE svg PUBLIC "-//W3C//DTD SVG 20010904//EN"
 "http://www.w3.org/TR/2001/REC-SVG-20010904/DTD/svg10.dtd">
<svg version="1.0" xmlns="http://www.w3.org/2000/svg"
 width="1080.000000pt" height="1080.000000pt" viewBox="0 0 1080.000000 1080.000000"
 preserveAspectRatio="xMidYMid meet">

<g 
fill="#000000" stroke="none">
    <path d="m305.87 989.92c-3.45-0.51-7.06-0.57-10.16-2.39-4.74-2.3-9.68-4.14-14.31-6.66-3.52-1.49-6.96-3.59-10.72-4.27-3.28-2.1-7.46-1.69-11.06-3.02-3.29-1.5-6.89-0.73-10.25-1.87-4.37-0.88-7.21-4.69-8.93-8.53-2.39-1.85-6.09-2.07-9.07-2.89-3.99-0.72-6.24-5.37-4.08-8.83 1.1-3.06 0.41-6.45 1.54-9.47 0.2-4.09 3.29-7.73 7.29-8.65 3.32-1.02 6.85-1.23 10.04-2.63 3.6-0.01 6.39-2.18 9.44-3.62 5.68-1.26 11.57-0.36 17.28-1.43 3.34-0.22 6.41-1.3 9.16-3.16 2.6-1.18 0.27-4.13 1.41-6.32-0.28-3.67 1.12-7.27 0.17-10.94-0.08-3.8 0.26-7.6-0.64-11.35-0.77-8.12-0.81-16.32-1.92-24.41-0.16-3.28-2.22-6.28-1.6-9.58 0.06-3.64-1.04-7.2-1.82-10.73-1.43-3.1-1.13-6.61-2.41-9.78-0.95-4.16-1.21-8.44-2.51-12.52-1.07-4.93-1.91-9.92-2.11-14.96-1.31-4.71-0.77-9.68-1.51-14.49-0.48-12.74-1.07-25.49-1.02-38.25 0.1-3.18-0.36-6.3-1.03-9.39 0.21-3.33-1.79-5.88-2.37-8.97-0.97-3.18-2.58-5.63-3.82-8.61-1.35-2.77-2.54-5.75-4.5-8.11-0.49-3.94-1.56-7.86-1.03-11.87-0.21-3.48 0.32-6.91 0.46-10.37-0.36-3.43-2.8-6.17-3.96-9.36-3.02-6.05-5.84-12.21-8.29-18.52-1.6-3.06-2.73-6.3-4.61-9.22-0.8-3.84-3.35-6.83-7.57-5.98-4.12-0.14-7.74-2.31-11.73-3.03-3.45-1.06-6.67-3.02-8.89-5.76-2.29-2.32-6.09-4.36-4.27-8.33-0.04-3.81-0.84-7.59-1.08-11.4-0.96-3.47-4.02-5.48-6.25-8.09-2.13-2.85-0.22-6.48-0.57-9.71-0.03-3.62 0.29-7.31 2.21-10.39 0.4-4.31-6.15-4.29-5.18-8.79 0.85-3.35 3.25-6.2 4.09-9.55 1.66-3.11 2.77-6.61 5.05-9.48 0.59-3.59 5.86-4.89 4.12-8.88-1.21-8.68-1.27-17.48-1.35-26.23-0.18-9.41 0.98-18.77 1.07-28.17 0.12-4.05 0.08-8.19 1.52-12.02 0.72-2.64 1.28-5.52 1.74-8.32 0.37-3.25 2.33-5.87 3.62-8.78 2.47-2.78 3.67-6.44 5.89-9.45 2.27-4.63 5.53-8.77 7.19-13.7 1.61-1.94 5.14-5 1.42-6.41-0.56-2.98-2.5-6.2-1.15-9.32 0.72-3.22 5.36-3.56 5.31-6.79 0.58-3.95 3.9-5.96 7.31-6.91-0.79-3.57-3.6-6.67-5.84-9.55-1.2-2.82-3.72-4.47-5.11-7.25-2.12-2.99-4.36-5.89-6.7-8.7-1.36-3.44-3.93-6.26-5.47-9.62-1.97-2.57-3.34-5.44-5.08-8.18-1.61-4.11-3.17-8.23-4.27-12.52-2.25-7.5-4.85-14.9-7.77-22.15-1.16-2.63-1.82-5.89-3.8-7.71-0.28-2.79 3.7-4.84 4.88-7.41 3.54-0.64 6.15-3.67 8.03-6.53 1.98-2.38 3.11-5.46 4.8-7.98 2.59-2.18 4.44-5.16 6.4-7.95 3.56-5.51 6.68-11.29 10.29-16.76 2.29-2.85 4.51-5.7 6.87-8.58 3-2.22 1.47-4.44-0.95-6.33-3.16-2.84-5.11-6.93-8.99-8.93-3.72-2.71-7.97-4.65-12.34-5.98-3.98-1.37-2.84-5.98-5.75-8.26-1.77-3.13-5.18-4.55-7.79-6.82-2.7-1.19-6.84-2.1-7.11-5.67-0.52-3.88-1.77-7.85-4.15-10.99-1.82-2.82-3.97-5.52-5.82-8.32-0.78-2.89 3.49-4.81 0.71-7.68-2.22-3.44-2.87-7.41-3.52-11.35-0.72-3.55 0.38-7 0.04-10.54 0.89-3.25 2.41-6.43 4.04-9.5 1.67-2.82 3.94-5.24 5.46-8.16 2.85-2.21 5.37-4.86 8.65-6.49 1.64-2.24 6.24-1.89 6.96-4.04-3.08-2.01-4.99-4.94-5.12-8.77-0.65-3.39-0.26-7-1.54-10.24-1.66-2.46-3.3-4.96-5.84-6.38-2.04-1.12-2.99-3.31-2.76-5.55 3.92-0.53 7.88-1.02 11.78-0.09 3.42 0.58 6.23 2.79 9.35 4.17 2.13 2.12 4.12 4.52 6.21 6.74 1.38 1.5 3.59 5.76 4.68 1.7 1.22-2.91 2.58-7.22 6.68-6.24 3.36-0.22 4.32 3.59 1.36 5.11-3.84 3.99-5.18 9.62-5.5 14.98 2.12 2.25 6.42 0.15 9.36 1.23 2.9 1.01 6.09 0.75 8.85 2.25 3.05 0.69 5.98 1.88 8.86 3.04 3.7 2.59 7.32 5.37 10.61 8.46 2.08 2.9 4.3 5.77 5.09 9.34 0.52 4.42 0.41 8.95-0.17 13.36 0.22 3.29-3.47 7.41-0.56 9.91 3.19 2.89 5.32 8.14 2.47 11.97-2.4 3.05-4.85 6.45-5.58 10.32-0.05 3.45 1.04 6.71 1.79 10.01 0.92 3.13 1.74 6.34-0.02 9.27-0.32 1.85-3.18 4.16-2.62 5.49 2.94-2.26 5.26-5.15 7.04-8.38 2.49-3.09 3.87-6.88 6.5-9.87 4.61-5.41 9.46-10.84 15.45-14.77 5.55-2.93 11.58-5.01 17.71-6.29 5.49-0.17 11.03-0.11 16.48 0.63 3.12-0.24 6.06 4.89 8.36 3.62-0.31-3.89-3.36-7.26-7.43-7.03-6.92-1-13.76 1.65-20.67 1.02-4.53-1.12-7.9-4.7-11.16-7.83-2.61-2.48-3.97-6-4.05-9.52 0-3.82 2.28-7.52 0.12-11.17-0.42-2.24-0.45-5.24 2.05-6.17-0.84-1.27-2.47-3.42-1.95-5.54-0.63-6.68-2.08-13.51-0.34-20.16-0.66-2.41 4.28-7.34-0.45-6.55-4.9-0.1-9.67-1.64-13.65-4.49-4.51-2.69-8.14-6.61-11.21-10.81-1.52-3.27-1.07-7.05-2.6-10.34-1.37-2.39-0.66-5.48 2.55-3.9 2.53 2.27 3.35 6.44 6.71 7.76 4.04 0.87 7.61-1.62 11.39-2.53 3.04-1.48 6.23-3.24 8.36-5.87-2.95-2.03-6.9-2.39-9.28-5.32-3.92-2.9-4.55-8.08-5.12-12.57-0.48-3.414 0.35-7.069 1.35-10.349 0.7-2.804 2.29-5.72 3.53-7.976 1.41-2.717 3.56-4.927 5.84-6.763 4.98-0.384 1.6 5.715 2.82 8.494 0.87 3.102 5.58 5.837 6.58 1.427 2.08-2.418 3.91-5.228 6.27-7.597 4.02-4.155 7.88-8.576 12.55-12.008 3.24-2.323 7.19-3.568 10.36-5.911 2.92-1.697 6.38-2.687 9.5-4.124 3.53-0.755 6.77-2.255 10.28-3.163 4.52-1.449 9.31-1.027 13.85 0.1 2.1-0.263 5.13 2.585 6.45 0.784-2.77-0.077-8.03-5.103-2.9-5.67 8.31 0.413 16.88 1.069 24.6 4.422 4.69 2.151 9.36 4.852 12.19 9.298 2.72 3.575 4.9 7.576 6.01 11.947 2.17 2.029 5.61-1.405 8.39-1.295 4.06-0.987 8.25-1.624 12.43-1.03 3.16 0.323 5.99 1.726 8.84 3.038 4.11 1.177 7.49 3.966 10.71 6.67 2.85 2.838 5.79 5.757 7.78 9.26 1.83 2.504 2.61 8.476-2.3 6.06-2.86-1.337-5.65-3.197-8.96-3.181-1.67 0.117-4.42-0.943-1.73 1.007 2.76 2.563 5.68 4.98 7.82 8.09 2.84 2.3 3.78 5.86 5.26 8.93 1.86 5.9 3.73 11.92 3.65 18.19-0.05 3.44 0.37 6.87 0.53 10.29-0.86 3.65-0.2 7.57-1.49 11.1-0.85 4.77-1.76 9.54-2.98 14.23 0.03 2.02-4.26 1.76-2.62 3.66 1.55 2.6 3.04 5.1 3.48 8.12 1.49 2.91 1.81 6.54 1.83 9.94 0.69 2.82-0.46 5.57-0.81 8.34-0.72 5.06-2.99 9.97-6.98 13.25-2.02 2.78-4.32 5.39-6.97 7.64-2.53 2.23-5.32 4.77-8.7 5.23-2.76 0.33-7.92-0.92-4.56-4.35 3.68-0.7 5.89-4.29 5.2-8.06 0.15-4.22-3.36 1.56-4.32 2.59-2.46 2.68-5.76 4.42-8.85 6.31-2.92 2.12-3.63 6.05-6.23 8.5-2.13 2.57-5.16 4.55-6.8 7.42 3.78 0.86 7.06 3.67 11.12 3.3 5.57 1.19 11.24 2.79 15.9 6.24 2.38 1.95 4.66 4.48 5.78 7.41 1.38 2.92 2.39 6.01 2.48 9.28 0.12 3.83 0.49 7.79-0.34 11.55-1.66 2.53-1.8 6.22-2.24 9.17 0.82 4.5 1.42 9.09 1.29 13.65 0.85 3.66 1.48 7.25 3.02 10.65 0.27 5.97 0.72 12.22-1.32 17.96-1.53 2.67-1.57 5.92-2.36 8.79-1.8 4.44-4.56 8.42-7.04 12.47-5.47 6.48-11.61 12.46-18.36 17.6-3.79 1.49-4.58 5.52-6.81 8.45-1.84 2.79-3.37 5.8-5.76 8.13-2.84 3.46-5.74 6.9-7.83 10.89-1.91 2.3-3.52 4.77-4.93 7.4-2.15 3.12-4.48 6.11-6.81 9.08-2.59 4.55-3.71 9.74-5.54 14.61-2.34 7.85-5.86 15.41-6.68 23.64-1.12 3.36-1.64 6.81 0.78 9.7 1.1 3.5 2.22 7.05 3.53 10.5 0.66 2.35 2.22 5.71 3.36 1.67 2.13-3.77 1.35-8.57-1.22-11.91-1.56-1.46-7.57-1.18-5.88-4.3 3.62-1.09 7.31-0.26 10.53 1.56 4.06 1.14 6.05 5.38 8.02 8.75 2.17 4.9 1.33 10.42-0.16 15.38-1.99 3.72 2.33 5.72 2.79 9.21 0.43 3.37 2.23 6.43 2.12 9.94-0.94 3.74 2.77 5.46 3.62 8.58 0.85 4.23 2.17 8.67 0.56 12.9-0.96 4.57-2.75 9.06-5.37 12.92-1.23 2.51-2.58 4.64-4.14 7.15-3.05 3.41-6.57 6.62-8.11 11.08-1.16 3.04-1.91 6.23-3.42 9.13-0.61 3.18-2.92 5.42-3.18 8.63-0.22 9.65 0.36 19.31-0.01 28.96-0.07 4.94-0.53 9.87-1.96 14.61-0.83 3.68-0.65 7.53-1.92 11.12 0.1 3.29-1.51 6.26-1.75 9.42-0.35 4.01 5.85 2.93 8.56 4.23 6.45 0.69 11.82 4.57 17.67 6.99 3.38 1.18 6.04 3.67 9.18 5.26 2.45 2.62 6.19 3.26 8.61 5.83 2.82 1.68 5.12 4.26 6.84 7.16 2.14 2.32 3.31 5.29 4.23 8.3-0.36 3.44 3.18 5.33 3.47 8.63 1.03 3.46-0.62 7.21 0.17 10.39-1.66 2.04 0.01 5.82 0.11 8.47 2.95 0.54 6.4-0.6 9.56-0.04 4.14 0.15 8.25 0.81 12.06 2.49 4.7 1.41 9.15 3.65 13.1 6.56 2.81 1.51 4.15 3.94 6.36 6.29 1.59 2.73-3.28 4.99-5.58 4.37-3.74 2.69 3.76 4.11 5.08 6.5 2.33 1.89 5.52 4.56 4.03 7.74 1.11 3.27 1.93 7.52-0.9 10.09-1.2 3.63-4.12 5.67-6.86 8.05-2.11 2.53-5.55 2.67-8.14 4.36-3.24 2.65-7.27 5.93-6.93 10.57 0.08 3.8 3.88 4.86 5.92 7.4 1.62 1.57 3.26 7.36 5.34 2.93 1.15-2.84 2.85-5.61 2.54-8.8 0.19-4.34-0.05-8.75 0.11-13.03 3.23-2.47 3.55 3.55 4.45 5.5 0.59 3.43 2.13 7.2 0.23 10.49-1.46 3.04-1.25 6.64-3.39 9.4-2.14 2.5-3.33 5.62-5.74 7.9-0.9 2.89-6.27 5.41-7.89 2.43-1.47-3.33 4.28-5.84 1.04-9-2.79-4.2-6.97-7.34-9.47-11.74-0.47-3.71 0.24-7.65 1.65-11.1 2.17-2.75 1.92-6.58-0.09-9.31-1.3-3.61-4.23-6.3-6.3-9.31-2.99-1.52-6.19-2.56-9.44-2.88-5.65-1.46-11.51-1.97-17.05-3.9-3.23-0.76-6.06-3.16-7.55-6.1-1.9-2.58-2.7-7.01 0.01-9.34 2.59-3.61-5.04-2.91-5.82-5.85-1-2.31-2.44-4.89-2.86-7.2-1.45-3.01-1.23-6.85 0.06-9.9 2.63-1.88 2.53-4.31-0.27-6.02-2.75-1.93-5.26-4.1-8.15-5.87-2.57-2.54-5.82-3.53-8.99-5.01-4.69-1.55-9.46-3.1-14.46-3-2.28-0.13-4.56-0.36-6.84-0.58-1.36 3.85-1.48 8.01-2.92 11.84-1.12 3.98 4.02 4.57 6.34 6.41 3.43 2.22 6.49 4.99 9.53 7.72 6.36 6.21 12.68 12.56 17.89 19.79 1.9 4.08 5.83 6.75 7.86 10.77 2.47 3.18 4.98 6.34 6.9 9.9 3.76 5.35 6.19 11.51 9.1 17.35 1.92 4.01 3.66 8.12 5.13 12.31 3.9 7.82 6.06 16.33 9.58 24.3 1.47 3.76 2.66 7.54 4.4 11.17 1.65 2.7 1.85 6.16 3.87 8.58 2.31 2.28 3.45 5.48 5.49 8 3.59 4.73 6 10.26 9.96 14.73 1.6 4.4 6.54 2.98 9.84 5.01 3.16 1.25 6.39 2.28 9.5 3.66 3.22 1.1 5.71 3.06 8.72 4.71 4.4 2.85 6.97 7.66 8.47 12.55-1.28 2.85 0.36 5.52-1.18 8.38-0.69 3.7-2.18 7.37-4.33 10.46-0.7 2.44-2.97 4.72-3.23 7.34-1.29 3.29-2.54 6.72-2.44 10.34-0.25 4.65 0.55 9.25 1.02 13.85 0.02 3.03 2 5.77 1.99 8.88 0.91 3.28-0.18 7.07 1.44 9.67-1.38 3.29-2.54 6.75-3.29 10.23-1.04 2.91-1.48 6.02-2.52 8.94 0.13 3.65-2.58 5.57-5.71 6.26-3.05 0.57-5.57 2.78-8.26 4.23-2.33 2.8-6.15 3.08-9.12 4.82-6.33 0.75-12.74-0.15-19.05 0.63-3.67 1.62-7.75 1.46-11.63 2.25-3.77-0.43-5.67-4.4-8.97-5.87-1.66-2.53-4-5.18-4.18-8.37 0.06-3.24 0.46-6.83 2.31-9.5 2.64-2.74 7.23-2.46 10.36-0.79 2.72-0.1 5.6-5.07 2.01-6.1 0.58 0.19 2.55-1.11 1.78-2.94 0.8-6.46 0.22-13.04 1.25-19.47 0.64-3.55-2.24-6.68-2.45-10.12-0.9-4.06-1.57-8.19-3.55-11.9-1.25-2.96-1.65-6.03-3.17-8.96-0.96-3.38-2.49-6.58-3.56-9.93-2.19-2.15-1.13-5.56-3.35-7.65-0.98-3.29-3.32-5.86-5.09-8.74-2.29-2.97-3.5-6.59-5.92-9.45-1.5-3.1-3.98-5.6-5.45-8.64-2.45-2.74-3.57-6.41-5.69-9.44-1.72-2.58-3.65-5.06-5.77-7.19-2.77-2.98-4.96-6.49-7.96-9.25-1.86-2.63-4.49-4.49-6.3-7.24-2.67-2.11-5.68-3.82-8.11-6.25-4.36-3.05-7.81-7.1-11.56-10.83-0.99-0.99-3.35-3.02-3-0.34-0.56 5.07-0.61 10.19-1.04 15.28 1.61 3.22 0.81 6.69 0.15 10.09-1.12 7.87-2.51 15.73-5.13 23.26-1.13 3.58-0.99 7.38-1.95 10.99-0.53 5.12-0.8 10.31-2.5 15.22-1.28 4.36-2.44 8.76-3.49 13.19-1.77 3.38-1.38 7.47-2.08 11.17-0.08 4.45-0.55 8.87-0.95 13.3-0.04 5.38-0.88 10.68-0.92 16.07-0.12 5.28-0.46 10.58-0.13 15.86 0.82 3.68 0.24 7.69 1.72 11.23 0.57 3.09 0.9 6.39 2.08 9.49 0.71 6.41 1.12 12.91 0.58 19.35-0.92 3.97-2.14 8.02-4.59 11.31-0.27 4.26-5.21 3.69-8.25 4.22-3.65 1.12-7.42 1.78-11.23 2.15-1.33 0.05-2.68 0.1-3.99-0.16zm13.27-7.15c2.28-1.18 2.16-3.8 4.52-5.12 2.44-4.8 1.38-10.39 1.51-15.56-1.31-3.61-0.18-7.49-1.3-11.04-0.45-3.01-0.78-6.11-0.53-9.43 0.03-3.62-0.12-7.13 0.21-10.72-0.11-10.43-1.04-20.97 0.76-31.32 0.52-3.41-0.06-7.06 1.33-10.28-0.21-3.71 0.43-7.23 0.77-10.96 0.95-3.92 2.14-7.79 2.59-11.85 0.85-3.25 0.62-6.68 1.09-9.94 1.77-3.48 1.2-7.73 2.81-11.32 1.1-3.09 0.87-6.54 2.79-9.34 1.51-3.2 0.93-6.92 2.24-10.15 0.6-5.71 0.16-11.48 1.14-17.15 0.51-7.78 0.12-15.61-0.43-23.38-0.61-7.97-1.23-16.01-3.11-23.79-0.33-3.7-1.15-7.31-2.23-10.83-0.35-3.87-1.98-7.42-2.79-11.19-1.2-3.34-2.02-6.76-2.9-10.2-0.77-3.5-1.84-6.91-3.54-10.07-0.86-2.05-1.34-5.83-2.37-7.08-0.05 3.19-0.37 7.28-3.82 8.62-4.7 1.64 0.88-3.87-0.15-6.2-0.46-2.48-1.1-7.13 2.93-5.29 0.41-2.63-0.72-5.8-0.59-8.65-0.7-8.32-1.38-16.64-1.26-24.99-0.2-5.76 0.62-11.46 0.39-17.22 0-8.76-0.85-17.49-1.15-26.25-0.53-10.57-1.2-21.15-2.79-31.62-0.41-2.54-1.4-5.11-1.76-7.55-0.85-2.44-1.8-4.53-4.5-2.28-3.1 1.27-6.3 2.27-9.34 3.69-3.38 0.74-6.41 2.38-9.66 3.45-4.14 0.66-7.55 3.48-11.69 4.1-3.44 1.3-6.77 2.84-9.99 4.62-4.58 1.81-8.85 4.33-13.47 6.05-2.75 1.9-6.14 2.44-8.53 4.98-3.15 0.78-5.81 2.56-8.54 4.43-3.33 0.63-5.45 3.19-3.92 6.5 0.21 3.48 2.1 6.46 2.81 9.82 1.39 3.46 2.39 7.1 4.16 10.39 2.55 8.57 6.98 16.44 10.56 24.58 2.01 2.96 2.67 6.62 4.78 9.54 1.3 2.74 1.89 5.91 3.8 8.21 1.12 3.52 3.63 6.45 5 9.91 0.9 2.49 3.38 5.52 1.95 7.95 1.13 3.26-2.73 3.18-3.79 4.78 0.07 3.17 2.31 5.74 3 8.77 1.77 3.03 3.19 6.27 4.63 9.53 1.65 3.44 0.37 8.52 4.23 10.44 1.86 2.93 0.05 6.65 0.51 9.96-0.18 10.49 0.2 20.97 0.66 31.45-0.09 6.97 0.92 13.88 1.3 20.83 1.04 4.48 1.17 9.18 2.51 13.62 0.27 3.56 1.72 6.92 1.77 10.52 0.66 4.97 1.65 9.92 3.37 14.64 0.07 3.21 0.84 6.44 2.42 9.27 0.3 3.63 1.7 6.85 2.42 10.32 0.87 3.94 1.25 7.94 1.89 11.92 0.61 3.56 0.46 7.15 1.43 10.66 0.34 4.34 0.74 8.72 0.51 13.07-0.17 3.59 1.03 7.19 0.84 10.85 0.28 8.15 1.63 16.59-0.89 24.53-1.37 3.11-2.91 6.25-3.37 9.66-0.57 3.68 1.44 7.27 5.31 7.81 1.24 4.44-4.66 3.16-6.73 1.42-3-1.46-4.17-4.93-4.9-7.96-1.24-3.6 1.25-6.69 1.83-10.11-0.67-3.97 2.55-6.62 3.7-10.01 1.51-0.97 1.29-3.38-0.57-1.76-0.49 3.49-4.55 4.17-6.73 6.39-1.94 0.52-2.3 2.7-4.44 3.27 0.51 4.1-2.9 6.07-6.63 5.41-5.66 0.08-11.58 0.48-16.63 3.3-2.51 1.23-6.96 1.47-5.69-2.59-3.49 0.15-7.2 0.31-10.66 1.19-3.69 1.41-0.02 2.91 2.23 2.2 1.7-0.4 5.72-0.24 3.78 2.22-2.67 0.48-5.18 2.21-7.66 0.24-0.03 1.76 0.35 3.89-1.53 4.92-2.23 2.57-2.43 6.94 2.26 6.19 1.19-0.49 0.13-4.19 3.1-3.11 3.33 1.45 2.95 5.88 5.57 8 1.75 3.2 4.82 5.18 8.51 5.67 3.22 0.37 6.19 1.9 9.47 1.98 2.68 1.86 6.18 1.15 8.85 3.1 2.89 1.36 6.18 1.83 8.94 3.42 2.19 2.19 4.8 2.22 7.31 2.02 2.99 1.27 5.53 3.69 8.67 4.62 4.64 1.22 9.39 2.01 14.09 2.83 2.49-0.16 4.99-0.67 7.33-1.55zm-11.69-34.16c-0.31-2.7 1.88-5.58 1.48-8.57 0.32-4.08-0.92-7.99-1.92-11.88-0.17-4.51 5.29-1.05 4.79 1.96 1.78 4.58 0.83 9.66-0.33 14.28-0.56 1.5-1.78 6.11-4.02 4.21zm-12.72-228.56c-2.53-2.42-1.69-6.35-1.66-9.5-0.07-4.13 2.98-7.09 4.93-10.39 1.49-3.3 2.44-6.79 3.05-10.37-0.31-2.37 2.87-4.16 2.74-0.83 1.11 5.77-0.05 11.97-3.72 16.63-2.16 3.25-2.6 7.41-2.09 11.21 0.23 1.74-1.35 3.98-3.25 3.25zm133.83 238.05c3.33-0.7 6.82-0.22 10.12-0.85-0.14-3.36 5.04-0.27 7.07 0.01 3.1 1.06 6.36 1.53 9.34-0.47 3.49-2.59 4.13-7.31 4.25-11.36 0.31-1.62-0.06-8.51 2.45-5.32 0.86 3.83 0.54 7.97 2.15 11.62 3.05-0.11 6.44-2.22 6.9-5.43 1.07-3.08 3.43-5.65 3.35-9.08-0.02-2.96 1.53-5.61 2.23-8.22 1.02-3.57 0.34-7.44-0.35-11.03-0.84-3.59-1.44-7.23-2.24-10.83 0.06-3.41-1.22-6.76-0.99-10.07 0.26-1.66 0.98-4.34 0.71-5.55-1.83 1.4-5.26 2.35-6.25-0.27-0.18-3.65 4.74-4.41 6.51-7.25 2.82-2.98 5.08-6.51 7-10.13 2.12-4.36 3.68-9.42 2.2-14.22-1.98-3.23-5.5-5.12-8.46-7.36-2.83-2.34-6.44-2.7-9.81-3.6-3.11-0.38-6.61-2.09-9.57-1.11-2.68 0.59-8.16 4.03-8.21-1.23 0.57-3.33 8.19-2.44 4.4-6.25-3.78-5.67-7.87-11.16-12.04-16.54-3.09-0.84-3.36-3.62-4.39-6.15-2.48-2.49-4.54-5.49-5.62-8.76-2.65-4.9-3.9-10.43-6.16-15.52-1.52-3.18-2.91-6.55-4.02-9.73-0.68-3.22-2.15-6.32-3.29-9.44-2.35-5.21-4.85-10.35-7.3-15.51-1.69-2.62-3.12-5.71-5.01-8.35-4.03-5.89-7.41-12.17-11.61-17.95-2.09-3.04-4.36-5.89-6.73-8.71-3.54-5-8.03-9.29-12.29-13.68-2.66-2.17-5.28-4.42-8-6.52-2.72-2-5.1-4.47-8.15-6.01-3.36-1.97-6.9-3.8-10.56-4.99-3.02-1.59-6.45-2.28-9.72-3.04-3.01 0.59-9.38-0.58-4.43-4 3.15-2.07 7.06-0.98 10.53-1.96 3.25-0.08 8.66 1.99 8.35-3.4 1.72-2.97 2.17-6.43 3.79-9.5 1.07-3.35 2.93-6.41 3.87-9.83 0.59-3.36 2.53-6.24 3.16-9.59 0.92-4.69 1.59-9.43 3.1-13.98 1.27-6.46 2.26-12.97 2.95-19.51 0.72-4.99 0.95-10.04 1.77-15.01 0.17-3.6 0.22-7.21 1.1-10.72 0.42-4.96 0.76-9.95 0.78-14.93-1.72-3.51-5.24 1.69-8.17 0.23-3.3-1.59 2.58-4.13 2.52-6.31 3.33-2 5.64-5.38 7.95-8.45 1.24-1.55 2.5-4.66-0.41-2.47-3.85 2.17-7.37 4.89-11.42 6.71-4.52 2.99-9.7 4.84-14.2 7.82-2.9 1.04-5.87 2.59-8.74 3.98-3.38 1.97-6.9 3.65-10.66 4.75-2.39 1.58-6.76 1.61-7.75 4.19 1.22 2.71 0.85 5.98 1.6 8.9 1.31 6.46 2.21 13 3.3 19.49 1.01 2.9 0.54 6.12 1.05 9.15 1.1 13.25 1.35 26.54 1.76 39.82 0.32 3.13-1.08 6.4-0.93 9.67-0.37 6.66-1.2 13.29-1.03 19.98-0.13 4.41 0.01 8.89 1.72 13.02 1.36 3.36 1.43 7.23 3.79 10.11 1.54 3.07 2.01 6.53 3.71 9.55 3.55 7.95 5.38 16.55 7.34 25 1.16 6.16 1.94 12.37 3.2 18.5 0.04 3.95 2.28 7.31 5.09 9.9 2.36 2.2 5.07 4.01 7.08 6.61 4.76 4.82 10.04 9.21 15.75 12.88 3.13 2.12 6.3 4.14 9.55 5.95 3.64 3.12 8.1 5.11 11.32 8.7 2.69 2.31 5.36 4.57 7.01 7.81 0.98 2.07 2.38 4.56 2.21 6.69-2.59 0.66-5.87-2.56-7.54-4.93-2.39-2.65-4.83-5.48-7.97-7.23-0.29 2.52 4.95 4.51 5.85 7.51 2.8 4.33 6.99 7.58 9.54 12.11 2.6 3.66 4.81 7.61 7.67 11.07-0.28 1.71 2.96 6.5 2.1 2.25 0.19-3-5.57-7.51-1.08-9.06 3.77-0.46 4.26 4.31 5.9 6.7 2.13 2.96 2.86 6.16 3.64 9.7 1.2 3.13 1.67 7.19 5.35 8.39 2.32 2.18 8.26 0.17 7.72 4.41-1.54 2.98-5.67 1.44-7.58-0.15-2.22-0.45-6.38-3.23-6.2 0.96 1.46 3.92 2.79 7.91 4.19 11.84 1.39 2.56 2.41 5.49 3.74 8.27 1.42 4.51 2.89 9 4.67 13.38 1.41 2.93 1.61 5.68 0.48 8.39 0.57 5.71 0.51 11.5 0.11 17.23 0.22 3.16-0.77 6.01-1.15 9.18-0.06 2.65-0.39 5.25 1 7.81 2.36 2.4-1.98 4.96-3.28 1.66-2.79-2.87-6.5 0.15-7.29 3.25-1.62 3.4-5.73-1-3.04-3.23 1.58-4.24-6.7-1.96-4.1 1.58 0.45 3.36 3.16 5.2 5.01 7.68 1.85 2.14 4.45 0.61 6.74 0.38zm24.6-45.73c-0.8-3.11 0.96-6.31 1.97-9.23 1.6-3.24 2.6-6.77 3.45-10.22 4.53-1.45 2.77 5.72 1.23 7.94-1.23 3.22-3.54 5.9-4.29 9.34-0.2 1.1-0.77 3.43-2.36 2.17zm-13.07-55.77c-0.52-2.93-0.53-6.41-2.23-9.23-0.25-3.06-5.17-4.08-3.78-7.03 3.78-1.69 5.74 3.03 7.2 5.65 1.19 3.17 3.46 7.57 1.15 10.63-0.68 0.51-1.65 0.45-2.34-0.02zm-172.58 77.89c1.89 0.02 6.22-3.54 1.94-2.95-3.26 0.3-6.79-0.43-9.86 0.83-1.79 0.44-3.24 1.39-0.46 1.57 2.2 2.6 5.46 0.6 8.38 0.55zm189.34-183.55c2.36-2.85 6.63-2.28 8.94-4.98 1.52-2.83 4.87-4.1 5.66-7.52 1.7-3.13 1.23-7.32-2.14-8.99-1.57-3.18-6.19-2.03-8.49-4.72-3-1.58-3.33-5.73-1.08-8.16 0.51-1.77 2.48-3.09 3.16-4.47-1.44-2.53-4.2-3.7-6.42-5.41-5.13-2.4-10.96-2.55-16.5-3.14-3.09-0.07-6.17 0.58-9.28 0.55-3.44-0.27-6.59 1.56-9.95 0.95-4.68-0.41-9.58 0.17-14.05-1.55-0.52 3.22 4.26 4.31 6.28 6.23 3.14 1.88 3.37 5.73 0.39 7.8-2.5 3.1 2.09 6.68 5.2 6.87 6.29 2.31 13.3 1.34 19.48 4.12 4.48 2.05 9.33 3.85 12.93 7.33 2.71 2.96 4.88 6.74 4.4 10.89 0.31 1.51-1.56 8.06 1.47 4.2zm-3.62-30.54c-1.59-2.78-4.37-4.18-7.37-5.07-3.44-1.33-7.35-0.85-10.65-2.65-3.38-0.37-6.84 0.69-10.17-0.09-4.3-2.73 2.27-3.52 4.51-3.35 3.4-0.32 6.77 0.02 10.07 0.81 5 0.35 9.66 2.33 14.09 4.52 1.87 1.66 6.12 6.9 1.54 7.55-0.85-0.32-1.4-1.11-2.02-1.72zm-39.98-21.51c2.03-1.59 0.97-4.95 4.54-4.24 3.11-1.81 5.52-5.02 6.77-8.31 0.24-2.18 1.53-6.42-0.42-7.53-2.98 1.64-4.21 5.44-7.63 6.52-3.85 2.45-7.28 5.64-10.15 9.18-0.38 1.35-1 4.04-0.16 5.01 2.64 0.26 4.98 2.34 7.05-0.63zm11.37-0.69c1.32-0.2 2.23-3.17 0.1-1.32-1.59 0.36-4.13 2.62-0.9 1.44l0.44-0.08 0.36-0.04zm-15.06-13.52c1.85-1.21-2.17-1.59-1.56-3.46-2.68-1.97-3.76-5.63-7.17-6.69-2.69-2.07-6.17-2.6-8.83-4.73-4.2-2.05-8.35-4.46-12.92-5.55-3.53-0.23-6.62-2.31-10.19-2.25-2.33-0.08-4.11-3.24-4.53 0.58-1.4 1.97-2.28 4.97 1.22 4.37 4.75 0.55 9.86-0.16 14.18 2.29 4.05 1.69 8.67 2.26 12.12 5.13 4.24 1.86 7.64 5.11 11.78 7.14 2.07 0.66 3.69 5.29 5.9 3.17zm4.6-3.36c2.28-1.25 6.14-4.66 2.73-6.89-2.43-4.6-6.23-8.63-11.04-10.77-2.92-1.93-6.89-2.46-9.02-5.43 0.47-2.2 4.41 1.57 6.2 1.36 5.64 1.56 10.71 5.15 14.32 9.74 0.47 1.81 4.71 4.39 2.69 0.67-2.26-6.48-8.29-10.41-13.29-14.64-2.4-2.22-5.39-3.75-7.9-5.67-3.07-1.72-5.41-4.68-8.93-5.51-3.75-1.7-7.48-3.6-11.63-4.08-2.62-0.88-7.51-3.34-7.67 1.28-1.28 3.59-1.12 7.45-2.73 10.93-1.21 2.11-1.17 4.87 1.9 4.53 3.13 0.99 6.51 1.16 9.48 2.68 3.84 1.41 7.84 2.59 11.25 4.89 2.92 1.4 5.91 2.65 8.64 4.39 3.06 1.9 6.29 3.62 8.54 6.54 2.29 1.95 4.9 3.62 4.28 7.13 0.75-0.34 1.46-0.75 2.18-1.15zm-182.49-30.27c-1.05-4.18-2.68-8.24-4.4-12.17-1.92-1.24-1.41-8.49-4.38-5.64-2.02 2.43-3.88 5.11-4.19 8.44-2.1 3.15-2 7.26 2.05 8.64 3.47 1.36 7.25 1.7 10.87 2.5 0.37-0.47 0.03-1.24 0.05-1.77zm-17.4-10.54c0.62-5.07 4.24-8.95 6.82-13.15 2.55-3.12 5.08-6.36 8.51-8.58 2.93-2.58 5.9-5.09 9.42-6.77 5.49-3.64 11.6-6.24 17.38-9.39 4.32-2.34 9.29-3.22 13.33-6.08 3.12-0.66 5.95-2.3 9.07-2.93 5.38-2.25 11.05-3.76 16.47-5.94 8.92-3.88 18.46-6.11 27.33-10.12 3.36-1.61 6.95-2.66 10.43-3.96 2.82-2.51 6.75-2.83 9.82-4.91 4.05-2.14 8.32-3.86 12.36-5.99 3.69-2.51 7.69-4.58 11.16-7.38 3.23-1.08 5.35-4.1 7.89-6.26 4.33-4.27 8.99-8.22 13.18-12.63 2.48-2.39 1.91-5.93 4.72-8.06 2.02-3.1 3.34-6.62 4.59-10.08 1.06-3.25 1.95-6.68 1.17-9.88-2.19 2.73-3.27 6.43-4.71 9.67-1.93 3.24-4.84 6-6.01 9.66-1.92 2.5-3.54 6.11-6.96 6.49-0.76-1.05-3.65 2.23-2.94-0.59 2.07-2.56 3.51-5.58 5.81-8.02 2.73-2.55 3.38-6.18 4.74-9.45 2.58-3.27 2.74-7.51 4.06-11.3 0.4-4.73 0.34-9.6-0.66-14.25-1.42-3.94-2.98 3.43-5.62 3.58-3.36 2.37-5.86-2.32-2.67-4.47 0.72-3.03 4.51-5.15 3.54-8.31 0.96-3.06 3.31-5.74 3.23-9.19 0.2-3.11-0.03-6.55-1.48-9.26-1.03 2.92-0.79 6.19-2.55 8.88-1.47 3.18-3.89 5.79-6.32 8.3-2.79 3.55-5.29 7.51-9.28 9.86-3.47 2.49-6.2 5.88-9.87 8.07-4.69 4.25-10.98 5.9-16.22 9.32-3.85 2-7.97 3.64-11.44 6.24-3.44 0.24-5.54 3.49-8.83 3.93-3.46 1.41-6.96 2.75-10.37 4.23-2.7 1.06-5.64 1.48-8.09 3.13-5.35 2.12-10.76 4.11-16.08 6.32-3.45 0.57-5.97 3.33-9.48 3.65-3.24 0.79-5.62 3.45-9 3.86-3.17 1.49-6.52 2.63-9.67 4.3-4.33 2.1-8.95 3.53-13.12 5.97-6.09 3.16-11.99 6.67-17.53 10.73-3.03 1.75-5.15 4.73-8.36 6.21-1.81 2.61-4.5 4.45-7.07 6.22-2.77 2.58-5.06 5.62-7.29 8.68-1.94 3.26-3.44 6.82-4.21 10.54-3.43 1.74 1.8 6.84 3.01 2.35 3.12-5.37 8.06-9.35 12.57-13.5 2.72-1.83 4.73-4.54 7.83-5.72 2.27-0.37 5.82-6.89 6.73-1.8-1 3.65-4.51 5.83-7.13 8.3-2.87 2.4-5.79 4.76-8.9 6.8-2.61 2.42-5.02 5.34-6.59 8.36-1.69 2.5-3.07 4.76-3.43 7.8-2.12 1.89-4.46 7.24-1.7 9.07-1.5 2.8 0.92 6.48 1.23 9.58 2.51 1.95 3.78-4.36 5.49-5.89 2.04-3.15 4.69-6.88 8.83-6.91 4.79 1.63-2 5.14-2.66 7.63-2.15 3.01-3.19 6.63-5.43 9.58-1.34 2.99-2.35 6.31-1.48 9.61 0.58 0.75 1.47 6.63 2.43 3.85zm16.18-30.73c-0.94-2.68 3.78-3.72 5.25-5.81 4.29-2.3 8.43-4.89 12.41-7.71 3.79-2.48 8-4.24 11.69-6.9 2.44-1.89 5.42-2.51 8.36-3.07 3.52-1.07 6.52-3.53 10.3-3.78 1.66-0.6 5.39-0.7 2.28 1.28-5.25 2.29-10.43 4.99-16.03 6.41-3.24 1.24-6.26 2.98-9.07 4.97-3.15 1.51-6.3 2.86-9.07 5.01-2.51 1.74-5.23 3.35-7.71 5.34-2.8 0.72-5.8 5.87-8.41 4.26zm-9.44-3.28c-0.8-3.7-2.11-7.35-2.7-11.12-1.02-3.85 3.64-2.43 3.08 0.52 1.11 3.47 2.14 7.11 1.78 10.78-0.3 1.06-1.8 0.53-2.16-0.18zm77.21-25.99c1.92-3.47 7.35-2.36 10.31-4.94 3.22-1.4 6.8-1.91 9.64-4.13 4.93-2.95 11.02-3.63 15.38-7.58 2.5-1.08 5.28-4.49 7.73-3.97-1.88 3.48-5.43 5.76-8.53 8.1-2.85 2.05-6.25 2.6-9.47 3.82-3.75 1.66-7.13 4.19-11.24 4.95-4.02 1.36-7.66 3.84-11.98 4.26-0.6 0.05-1.98 0.69-1.84-0.51zm12.68-10.36c-1.93-3.06-1.28-7.1-3.02-10.29-1.36-4.38 4.58-3.97 4.69-0.01-0.12 3.42 2.06 7.75 0.85 10.5-0.82 0.19-1.75 0.22-2.52-0.2zm14.81-9.46c-3.7-0.64-6.99-3.49-8.76-6.63 0.04-4.53 4.72-0.05 6.43 1.23 2.27 1.75 6.99 0.72 7.54 4.15 0.32 3.18-3.59 1.39-5.21 1.25zm-35.77-1.12c-4.28-0.12-1.7-4.79 1.45-3.46 7.53 0.01 14.38-4.24 19.64-9.31 3.82-4.13 7.24-8.63 10.27-13.36 4.2-2.41 2.28 3.68 0.8 5.44-1.03 3.49-4.05 5.43-5.83 8.36-1.98 2.86-4.82 5.07-7.47 7.22-2.97 2.15-6.31 3.61-9.72 4.86-3 0.56-6.12 0.68-9.14 0.25zm-32.96-1.1c-0.19-2.66 4.42-3.67 6.19-5.41 3.29-1.06 6.05-2.82 8.82-4.82 2.95-1.56 6.11-2.73 9.22-3.94 2.98-1.48 6.18-2.27 9.01-4.01 4.01-1.05 7.4-3.73 11.46-4.73 3.69-0.94 6.35-3.76 9.79-5.07 2.78-1.5 5.96-2.31 8.48-4.19 3.35-1.91 7.02-3.4 10.56-5.05 2.82-1.26 4.58-4.1 7.85-4.47 3.15-1.4 6.42-2.51 9.51-4.03 5.05-2.92 10.78-4.71 15.22-8.64 2.28-1.02 4.07-3.54 6.8-3.23-1.44 1.49-2.6 3.19-3.73 4.9-3.42 3.78-7.7 6.58-12 9.25-3.78 2.97-7.81 5.86-12.53 7.08-5.51 2.21-10.02 6.86-16.16 7.39-3.25 1.14-6.64 1.95-9.56 3.85-4.64 2.32-9.38 4.46-13.91 6.99-3.13 0.87-6.08 2.39-9.31 3.18-2.8 0.88-5.37 2.33-8.34 2.7-3.02 1.11-5.99 2.04-8.91 3.56-4.99 3.15-11.04 4.13-15.8 7.69-0.79 0.33-1.79 1.66-2.66 1zm77.78-13.72c-1.44-1.95 4.02-3.28 5.35-4.59 3.85-2.08 7.71-4.22 11.36-6.62 5.54-4.8 10.72-10.03 16.36-14.71 2.05-1.75 3.01 0.14 0.96 1.47-5.99 6.53-12.12 13.26-19.92 17.64-4.49 1.98-8.3 5.24-12.86 7.07l-0.56-0.09-0.69-0.17zm49.45-34.37c0.81-3.1-1.01-5.49-0.69-8.5 2.29-3.16 3.67 3.39 3.3 5.44-0.13 2.53 1.46 7.72-2.4 7.7-1.1-0.12-0.09-2.22-0.31-3.16 0.03-0.49 0.07-0.99 0.1-1.48zm-163.83 50.81c3.05-1.88 5.71-4.35 8.84-6.14 2.74-2.17 5.77-3.78 8.78-5.5 8.21-5.15 17.29-8.73 25.76-13.41 3.45-0.99 6.6-2.75 9.92-4.13 4.14-1.12 7.86-3.33 12-4.47 4.38-1.42 8.4-3.77 12.86-4.95 3.12-1.68 6.28-3.4 9.75-4.21 5.73-2.47 11.91-4 17.31-7.21 1.16-1.53-0.2-3.5 1-5.31 0.68-4.31-0.91-8.53-0.88-12.8 3.01-1.36 4.67 4.68 4.68 7.27 0.8 2.08-0.82 8.72 2.7 6.7 6.13-2.88 12.24-5.88 18.1-9.24 3.21-1.22 5.51-4.01 8.53-5.58 3.44-3.08 7.34-5.59 10.62-8.86 2.47-2.15 5.34-4.15 4.03-7.65-0.65-3.4-1.65-6.85-3.59-9.73-0.62-3.7-2.84-6.84-3.97-10.36-2.64-2.63-4.06-6.3-1.91-9.71 0.62-3.22 2.14-6.62 3.42-9.86 0.6-2.38 2.18-4.61 2.73-7.14 0.28-2.93 1.66-5.54 2.41-8.33 0.81-3.22 2.95-5.96 3.64-9.3 0.69-3.18 2.42-6.13 4.39-8.68 1.73-3.75 4.81-6.53 7.52-9.56 1.93-3.08 4.45-5.79 6.34-8.94 1.7-1.55 5.02-5.05 4.71-6.48-3.17 1.46-5.81 3.95-9.3 4.84-3 1.45-6.05 3.21-9.53 2.94-3.37-0.37-6.12 1.64-9.17 2.65-3.46 0.87-7.48 1.17-8.15 5.39-2.94 4.36-5.02 9.23-7.4 13.89-1.93 2.98-3.04 6.37-5.12 9.42-0.87 3.25-3.07 5.88-4.04 9.1-1.12 2.86-2.61 5.57-3.02 8.66-1.92 3.02-0.46 8.26-4.3 9.73-4.43-0.42-1.49-5.54-1.01-8.13 1.93-6.71 4.47-13.23 7.02-19.71 0.79-4.97 4.06-9.01 5.58-13.69 1.73-2.94 4.17-6.27 4.37-9.63-3.26-0.31-6.22 2.01-9.42 2.49-6.54 1.56-13.35 0.94-19.93 2.25-7.96 1.17-16.11 1.3-23.84 3.75-4.67 1.2-9.56 1.58-13.99 3.62-2.88 1.54-6.8 1.56-8.88 4.33-0.81 2.79 4.48 1.52 5.42 4.18 3.32 1.89 3.35 6.17 3.69 9.53 0.4 4.3-0.38 8.79 0.91 12.97 1.29 3.37 1.16 7.49-0.26 10.8-2 2.52-5.36 3.5-7.22 6.12-3.42 3.97-6.9 8.09-11.28 11.02-3.22 1.54-6.69 2.71-10.34 2.26-3.57-0.12-5.47-3.47-8.54-4.51-3.22-0.83-5.51-3.6-8.58-4.53-3.61-1.13-5.51 2.49-6.93 5.19-2.53 4.96-5.1 10-8.51 14.41-1.85 4.04-4.61 7.75-6.29 11.95-1.64 3.07-2.17 6.5-3.11 9.79-1.89 3.85-1.59 8.21-2.5 12.32-1.07 7.91-0.99 15.93-1.25 23.89 0.18 3.66-0.52 7.32 0.33 10.93 0.41 3.71 0.3 7.53 1.41 11.11 0.01 2.26-0.07 7.57 3.49 4.25zm78.28-89.47c-1.31-2.92-1.38-6.46-3.67-9.01-2.59-1.85 0.64-4.82 2.11-1.86 2.65 3.07 4.39 7.16 4.13 11.26-0.51 1.21-2.17 0.56-2.57-0.39zm-30.03-11.64c3.85-1.34 5.13-5.61 6.36-9.07 1.65-1.65 4.8 1.28 6.05-1.98 1.4-2.12 3.73-3.2 5.22-5.35 1.21-0.82 1.03-2.08 0.81-3.36-0.35-4.79-3.15-9.09-2.75-13.99 0.29-3.88-0.19-8.83-4.15-10.72-2.86-1.61-6.54-2.63-7.46-6.08-1.93 1.76 0.83 5.64 1.33 8.14 1.95 4.32 4.53 8.35 6.22 12.77-1.19 3.21-5.84 0.54-6.64-1.93-2.67-4.84-5.23-9.77-7.28-14.9-0.49-3.24-1.56-6.24-2.08-9.45-0.36-3.64-1.38-7.13-2.26-10.66 0.07-2.87-1.2-5.39-1.37-8.24-1.96-8.58-1.45-17.64-4.38-26.03-1.76-3.51-2.88-7.37-3.82-11.11-1.58-1.34-6.1-0.48-3.95-3.84 1.97-2.87 5.22-4.82 7.53-7.51 4.49-4.61 10.14-7.76 15.25-11.59 2.97-1.4 5.28-3.7 7.96-5.53 3.34-2.16 6.63-4.44 9.96-6.58 3.25-2.78 6.77-5.25 9.78-8.31 2.72-1.98 4.92-4.32 6.19-7.52-0.34-4.91 8.37-3.14 4.65 0.9-1.2 3.56-3.44 6.32-5.7 9.23-2.16 2.77-4.56 5.48-7.32 7.49-2.59 2.48-5.16 4.76-8.03 6.95-2.52 2.55-7.49 3.61-7.7 7.56 0.07 3.66 1.97 7.93 5.66 8.97-0.9-2.86 3.13-7.38 4.31-2.93 0.3 2.95-0.19 6.29 0.16 9.45-0.46 4.34-1.69 8.65-1.65 13.02 2.58-0.07 5-2.98 7.9-3.33 3.41-1.46 6.81-3.02 10.35-4.11 3.4-0.52 5.55-3.84 9.1-3.86 3.29-0.54 6.25-2.21 9.52-2.82 3.06-0.9 6.21-1.23 9.14-2.51 4.57-0.8 8.68-3.14 13.07-4.52 3.9-1.36 8.11-1.77 11.9-3.54 4.44-1.8 8.66-4.12 13.2-5.68 2.7-1.81 6.26-2.81 8-5.65 1.35-3.27 2.65-6.59 3.66-9.98 1.36-3.35 1.9-7.01 2.47-10.59 0.91-6.32 1.7-12.68 2-19.05 3.49-2.77 4.77 3.32 3.94 5.92-0.24 6.04-0.49 12.17-2.21 18-0.65 3.77-0.8 7.64-2 11.3 3.06 0.04 6.47-4.48 8.94-6.89 2.97-3.52 5.92-7.38 6.72-12.02 1.85-3.54 2.79-7.46 2.86-11.46 0.48-6.83 0.27-13.79-1.81-20.37-0.73-3.61-1.51-7.21-2.98-10.61-0.84-3.54-1.25-8.06-5.01-9.75-3-2.53-5.48-5.76-6.62-9.54-1.64-2.42-3.36-4.74-3.07-7.73-0.76-3.03-1.87-6.35-2.16-9.26-3.26 0.41-6.12 2.33-9.43 2.51-3.52 1.86-7.51 0.26-11.16 1.34-3.87-0.55-7.76-1.63-11.48-2.87-3.89-2.21 1.5-3.92 3.48-4.61 3.81-2.44 6.98-5.94 9.17-9.87-1.18-2.52-5.44 1.13-6.93 2.86-2.49 1.92-5.11 4.43-7.87 5.33-1.24-2.24-4.59 1.33-7.05 0.49-4.28 0.18-0.32 5.89-1.14 8.71 0.33 3.77 0.25 7.62 1.08 11.32 2.57 3.66 4.25 8.12 7.71 11.05 1.42 4.09-5.94 2.46-6.88-0.29-1.91-3.09-4.66-5.55-6.29-8.75-2.16-2.34-2.82-6.54-6.43-7.08-2.52-2.3-6.01-2.63-9.3-2.54-4.6 0-9.18 0.79-13.64 1.8-5.59 1.78-10.65 4.86-15.93 7.36-3.37 1.81-5.17 5.42-8.24 7.67-1.87 2.82-3.69 5.77-5.98 8.33-1.85 3.05-3.98 5.89-6.38 8.54-1.77 2.95-4.02 5.45-5.85 8.36-1.7 2.63-4.47 4.27-6.03 7.08-3.48 2.89-6.27 6.53-9.89 9.29-1.93 2.03-4.49 4.07-6.6 6.33-2.2 2.58-4.28 5.12-6.29 7.84-1.92 3.41-5.02 5.97-6.71 9.5-1.65 3.12-4.38 5.48-5.94 8.61-1.83 2.7-3.06 5.52-5.26 7.92-1.97 2.81-3.35 5.93-5.92 8.21-2.1 4.12-6.63 6.42-8.45 10.67-0.68 3.31 1.67 6.5 2.77 9.6 1.43 2.82 1.92 5.9 3.35 8.7 1.2 3.38 3.14 6.45 4.06 9.99 1.95 3.71 2.72 7.96 5.26 11.38 0.99 3.23 3.55 5.6 4.63 8.77 2.44 2.12 3.39 5.32 5.13 8.02 1.98 2.67 3.09 5.86 5 8.56 2.66 3.64 5.42 7.4 6.99 11.65 1.91 1.92 2.91 4.51 4.03 7.08 1.67 3.19 3.66 6.23 4.76 9.77 1.23 3.07 4.66 6.29 3.12 9.72-3.73 2.61-4.95-2.83-6.51-5.17-2.22-2.69-3.05-6.04-5.18-8.71-3.88-0.19-5.27 5.96-0.36 5.57 3.4 1.06 0.71 3.87-1.81 2.97-2.64 0.56-9.4-1.27-8.5 3.16 0.03 3.97 3.49 5.29 6.61 6.71 2.19 1 4.49-1.68 6.54 0.91 2.63 2.62 5.8 4.75 9.4 5.68 2.87 1.16 5.93 1.63 8.92 2.37 1.26-0.38 2.32-1.27 3.61-1.59zm77.53-134.9c-3.42-0.97-6.09-3.4-7.45-6.6 2.57-3.27 5.33 2.73 8.26 2.44 3.31 0.29 6.81-0.09 9.43-2.33 3.16-2.15 4.84-5.61 6.97-8.63 3.73-3.81 6.48-8.52 7.96-13.64 3.26-2.82 2.4 4.35 1.41 6.26-1.59 4.5-3.64 8.87-6.12 12.94-3.28 3.7-6.9 7.38-11.57 9.24-2.69 1.42-6.07 1.2-8.89 0.32zm37.51-52.02c0.97-3.33 4.52-5.87 4.1-9.66-2.3-3.4 3.99-4.69 3.5-0.59 1.46 3.2-1.22 6.45-2.97 8.97-0.92 1.17-3.38 2.77-4.63 1.28zm-111.34 131.63c2.57-2.05 6.02-3.01 9.1-4.23 3.2-1.12 6.3-2.37 9.68-2.88 3.23-1.06 6.51-1.91 9.88-2.36 6.22-1.67 12.68-2.27 19.08-2.87 3.07-0.13 6.01-1.45 9.12-1.64 6.32-0.89 13.02-0.25 18.89-3.2 3.66-1.14 7.66-1.06 11.11-2.92 2.87-1.42 6.05-1.83 9.1-2.65 3.13-1.3 0.17-0.77-1.55-0.38-7.16 1.37-14.36 2.53-21.55 3.69-3.37-0.55-6.55 0.69-9.83 0.85-1.6 0.7-7.73 0.42-4.72-1.73 4.09-0.56 7.81-2.59 11.96-2.9 4.27-0.73 8.58-1.34 12.8-2.33 4.52-1.85 9.58-1.2 14.12-2.93 3.07-0.25 5.8-1.99 8.92-1.86 3.71-0.85 7.17-2.62 10.84-3.67 3.37-1.58 7.11-2.22 10.34-4.17 4.91-2.85 9.6-6.1 14.64-8.74 5.17-3.04 9.31-7.5 13.8-11.42 2.49-2.39 4.92-5.01 6.43-8.13 2.24-2.41 3.25-5.9 4.02-9.17 0.38-3.27 1.03-6.34 1.84-9.5 1.16-6.67 0.93-13.52 0.63-20.26-0.58-7.53-2.36-14.92-4.22-22.21-0.21-1.4-2.19-7.24-1.6-2.89 0.79 4.39 2.01 8.69 2.25 13.16 0.92 4.21 1.63 8.45 1.9 12.76 1.38 3.1-2.62 3.09-2.74 0.25-1.76-6.21-2.66-12.62-4.05-18.91-1.34-3.57-1.59-7.43-3.3-10.86-1.43-4-2.85-8.02-5.08-11.66-0.25-1.62-3.45-5.62-4.32-3.76 0.64 3.66 2.35 7.07 2.81 10.73 0.04 5.38 2.67 10.5 1.71 15.94-0.3 4.04-2.55 7.51-3.77 11.27-2.35 4.51-2.72-2.29-2.21-4.25 0.37-3.31 1.78-6.36 1.62-9.74 0.42-4.23-1.55-8.18-1.89-12.35-1.03-5.64-2.63-11.28-5.31-16.36-3.57-5.46-8.14-10.54-14.21-13.23-3.47-0.08 1.62 3.27 2.82 3.73 3.38 3.28 5.63 7.55 7.96 11.6 2.72 5.14 4.09 10.87 4.51 16.65 0.95 5.59 1.15 11.36 0.49 17 0.62 3.35-0.76 6.74-1.39 10.22-1.29 3.13-2.46 6.35-4.9 8.98-1.9 2.55-2.63 5.47-5.26 7.42-2.81 2.59-5 5.76-7.68 8.44-3.56 1.46-6.11 4.59-9.33 6.64-2.97 2.39-6.94 2.83-9.94 5.18-3.24 1.61-6.78 2.5-10.01 4.16-3.22 0.55-3.98 4.81-7.57 4.97-4.19 0.94-8.04 3.5-12.48 3.03-3.57 0.22-6.55 2.84-10.21 2.75-3.03 1.08-6.06 2.34-9.39 2.37-4.11 0.49-8.39 1.04-12.12 2.93-2.81 2.22-6.45 2.14-9.44 3.99-3.62 1.51-7.22 3.06-10.67 4.9-4.09-0.33-5.15 4.24-8.49 5.14-4.04 1.41-6.32 5.22-8.86 8.37 2.78-1.3 5.35-4.26 8.67-5.02 2.93-2.17 6.71-2.89 9.8-4.93 3.16-1.91 6.64-3.08 10.15-4.38 3.41-0.74 6.73-1.78 9.93-3.18 4.73-1.77 9.43-3.6 14.41-4.54 4.29-0.78 8.03-3.2 12.2-4.3 4.01-0.52 8.2-0.37 11.96-2.13 1.86-1.26 5.04-0.15 2.45 1.96-3.54 4.15-9.2 4.85-14.28 5.45-3.43 0.81-6.54 2.71-10 3.48-3.79-0.6-7 1.26-10.45 2.28-2.6 1.03-3.85 3.42-7.04 2.94-5.15 1.77-10.4 3.66-14.97 6.66-2.46 2.35-6.08 2.02-8.72 3.99-1.56 1.56-2.32 3.29-4.69 3.78-3.44 2.74-6.75 5.88-8.74 9.84-1.06 1.14-4.85 6.55-0.9 4.82 6.14-2.9 12.13-6.22 18.65-8.2 3.58-1.98 7.49-3.04 11.38-4.2 3.93-1.69 7.88-3.63 12.27-3.62 4.36-0.58 0.18 3.55-1.94 3.55-4.51 1.73-8.7 4.28-13.48 5.24-4.05 1.47-7.92 3.47-12.16 4.39-3.73 1.89-7.4 3.9-11.31 5.43-3.28 1.4-5.77 3.77-6.29 7.18-1.11 1.02-5.6 2.66-2.27 3.57 0.48-0.2 0.81-0.6 1.09-1.02zm74.16-31.89c-1.25-3.15 5.02-3.45 7.27-4.58 4.41-1.86 8.74-3.94 12.95-6.23 7.35-2.09 13.24-7.27 19.75-11.04 4.33-3.3 8.41-6.95 12.79-10.2 5.73-4.98 11.3-10.23 16.03-16.18 3.32-1.49 0.09 4.46-0.6 5.7-1.92 2.89-3.79 5.84-6.28 8.28-2.51 2.49-5.11 4.93-8.23 6.61-2.58 2.36-5.21 4.64-8.2 6.48-2.35 2.54-5.62 3.36-8.41 5.16-2.49 2.27-5.46 3.65-8.56 4.8-2.6 2.31-6 2.69-8.98 4.09-3.03 2.4-7.15 2.16-10.43 4.06-3.08 0.71-6.33 2.54-9.1 3.05zm23.84-17.03c-1.58-2.97 2.05-5.52 2.82-8.3 1.87-2.56 1.93-6.76 4.75-8.32 4.03 1.07-0.03 5.83-0.9 8.22-1.65 2.93-3.2 6-5.21 8.64-0.43 0.65-1.11 0.08-1.46-0.24zm50.72-11.03c0.69-4.83 2.27-9.45 4-13.98 1.19-4.3 2.83-8.46 3.81-12.81 1.56-2.61 0.96-6.54 3.42-8.48 0.79 4.41-0.7 8.91-1.48 13.25-1.34 4.53-2.74 9.05-4.28 13.51-1.49 2.97-2.07 7.32-5.4 8.64l-0.07-0.13zm-152.78 44.8c2.08-3.15-1.72-6.52-0.23-10.04 0.56-3.48 2.69-6.14 4.65-8.99 2.3-2.9 5.64-5.09 7.48-8.26 1.08-5.06 2.08-10.16 2.72-15.29-0.66-3.86-5.12-5.67-6.17-9.48-1.16-2.42-1.74-7.48-5.36-4.35-3.12 1.51-6.4 3.39-8.97 6.03-2.61 1.82-5.79 4.17-3.48 7.61 1.36 2.84 1.69 5.96 2.82 8.91 0.88 5.42 2.26 10.78 2.71 16.27 0.85 3.17 1.13 6.62 1.54 9.97 0.41 2.73-0.15 7.46 1.83 8.87 0.23-0.38 0.35-0.82 0.46-1.25zm-21.38-110.42c2.24-2.11 4.36-3.83 6.82-5.89 2.42-1.69 4.08-4.2 6.01-6.4-0.77-0.64-1.79-2.21-2.41-2.29-0.38 2.29-1.51 6.76-4.62 5.08-1.4-2.57 1.35-6.14-1.01-8.73-3.03-3.64-8.28-3.69-12.65-4-3.94 0.08-7.92-0.05-11.62-1.55-3.49-0.59-5.25-3.66-5.72-6.93-1.44-2.69-2.15-5.46-3.22-8.3-1.66-3.82-4.13-7.29-6.8-10.46-1.04-1.47-4.45-2.99-2.33-0.12 1.11 3.3 2.38 6.57 3.4 9.83-0.06 4.07 3.23 6.8 4.32 10.51 1.36 3 1.26 6.68 2.79 9.27 2.11 2.37 5.39 3.58 8.42 4.34 2.99-0.43 0.06 3.43 3.22 3.75 3.11 1.22 5.13 4.21 7.49 6.48 1.26 2.41 4.02 3.7 5.11 5.76-0.91 2.58 0.61 1.46 2.02 0.3l0.46-0.36 0.32-0.29zm187.4-11.48c-1.6-5.95-4.34-11.69-8.16-16.53-1.08-0.91-5.33-5.32-3.05-1.86 2.01 2.78 4.79 5.26 5.66 8.67 1.96 2.69 3.33 5.69 3.85 9.01 0.25 1.45 2.7 5.42 1.89 1.73l-0.08-0.5-0.11-0.52zm4.13-6.66c-0.76-3.49-2.41-6.68-4.51-9.5-0.88-0.8-2.71-3.6-1.54-0.6 1.24 3.38 3.79 6.07 4.74 9.58 0.26 1.38 1.49 3.84 1.31 0.52zm-179.49-5.23c0.76-3.38 3.42-6.72 2.33-10.27-0.7-3.19-1.5-6.42-1.62-9.69 1.27-1.76 0.01-4.5-1.24-1.44-1.54 3.07-2.43 6.74-5.72 8.47-2.43 2.28-5.31 4.11-8.4 5.49-4.28 2.35-9.29 2.24-14 2.7 1.61 2.74 6.09 1.03 8.98 1.12 4.91 0.17 9.57 1.88 14.16 3.45 1.55 1.21 3.4 5.94 4.56 1.73 0.29-0.53 0.58-1.07 0.95-1.56zm-47.31-5.72c-1.26-2.87-2.83-5.18-3.48-8.38-1.19-2.16-0.86-8.32-3.95-7.58-2.32 2.4-7.43-5.89-5.54-0.28 1.99 3.7 2.01 8.91 5.56 11.44 3.54-0.09 5 3.4 7.37 5l0.04-0.2zm219.37-1.53c-2.12-1.54 0.33 1.28 0 0zm-195.79-4.69c4.58-1.52 9.4-2.47 13.48-5.19 3.78-1.66 4.03-6.49 7.26-8.74 1.43-2.96 2.09-6.21 3.83-9.03 1.91-5.54 2.91-11.37 3.5-17.18 0.14-4.76 0.22-9.62-1.21-14.21-1.31-3.35-3.91-5.76-6.4-8.28-2.45-2.13-5.19-3.68-7.93-5.41-2.78-1.24-5.68-2.27-8.71-2.85-2.9-2.01-6.61-0.86-9.78-2.2-1.04 0.25-3.65-1.12-3.74 0.2 0.12 2.79-0.1 5.78 0.33 8.41 2.91-1.64 6.07-4.03 9.62-3.51 2.85-0.76 7.1 3.7 2.34 4.13-3.65-0.05-6.65 2.42-9.53 4.33 0.53 1.83 3.21 4.8-1.07 5.21-2.93-0.89-5.07-4.41-8.53-4.95-2.39-1.1-8.64 1.28-8.41-2.44 3.24-1.16 6.78-1.33 10.21-1.38-0.1-2.82 0.26-5.7-0.32-8.47-2.26 0.62-5.34 0.91-7.79 2.02-2.85 1.27-6.33 1.46-8.61 4.01-2.72 1.88-4.73 4.42-6.97 6.87-1.99 2.73-4.32 5.78-4.61 9.21-1.11 3.59-2.28 7.41-1.83 11.28 0.55 3.64 1.5 7.04 2.74 10.43 1.67 4.93 5.68 8.49 8.78 12.5 1.15 1.48 3.41 1.15 1.57-0.75-2.27-4.16 3.55-4.67 6.23-3.63 3.36 0.45 4.91 3.39 7.08 5.57 2.37 2.24 4.4 4.85 5.28 8.03 1.03 3.27 2.68 6.13 6.52 5.88 2.28 0.45 4.44 1.25 6.67 0.14zm-6.86-13.95c-1.97-3.3 4.04-6.26 2.01-10.08-0.73-3.54-2.66-6.6-4.45-9.63-2.1-1.31-6.23-4.31-1.92-6.08 4.23-0.93 6.93 3.27 9.23 6.05 1.46 2.59 3.87 7.06 6.21 2.43 2.41-2.36 4.58-5.16 4.96-8.64-0.61-2.37 2.75-7.92 3.69-3.25 0.49 4 0.46 8.46-1.67 12-2.57 1.99-4.62 4.7-0.89 6.73 2.92 1.61 3.47 6.58 1.07 8.72-3.46 1.53-2.6-4.97-5.63-5.76-1.31-2.59-5.92-3-5.06 0.89 0.38 3.67-2.47 6.98-6.2 6.99-0.47 0-0.97-0.07-1.35-0.37zm177.92 0.58c2.27-3.06 5.59-5.04 6.52-8.94-1.59-3.26 3.93-3.94 4.26-7.02 2.74-3.56 4.55-7.85 5.8-12.15 1.89-8.45 2.77-17.08 3.03-25.72-0.01-3.73 0.5-7.39 1.13-11.04 0.95-2.3-0.93-7.64 2.15-8 3.16 1.79 0.96 6.21 1.16 9.11 1.19 8.64 0.67 17.41 0.45 26.11-0.03 5.14-1.16 10.16-2.47 15.09 2.32-0.24 4.93-4.21 6.77-6.38-0.53-3.19 5.71-4.88 6.09-1.23-0.58 2.73 0.06 6.46 0.89 8.59 2.88-4.26 2.19-9.68 2.3-14.56-0.37-2-1.42-6.75 2.24-5.08 2.38 3.03 1.32 7.18 1.5 10.74 0.42 2.21-1.13 6.05 0.14 7.34 4.39-3.82 5.23-10.02 5.73-15.5 0.55-3.62-1.46-6.67-1.5-10.15-0.27-3.54-2.37-6.4-3.05-9.81-2.76-5.69-4.59-12.25-3.35-18.59 1.41-3.63 4.22 2.74 5.03 4.42-0.48 1.51 1.23 7.44 1.47 3.18 0.44-4.77 2.04-9.38 1.79-14.22 0.99-3.47 0.07-6.95 0.43-10.48 0.53-3.86-1.75-7.51-1.45-11.44-0.97-3.28-1.56-6.74-2.81-9.95-0.75-3.19-2.88-5.42-4.82-7.91-2.66-3.42-5.86-6.43-9.65-8.573-2.8-1.856-5.67-4.97-9.35-4.091-4.24 0.007-0.28-5.502 2.45-4.862 4.51-0.971 9.16-1.247 13.76-0.875 1.67-1.489-3.74-2.345-4.87-3.45-2.7-2.259-6.25-2.319-9.47-3.244-4.41-0.495-9.05-0.599-13.1 1.452-3.71 0.259-5.79 3.888-9.25 4.709-3.93-0.755-1.99-6.346-3.85-9.078-1.4-4.127-2.78-8.562-6.26-11.445-2.54-2.481-4.91-5.611-8.42-6.673 0.74 3.255 3.49 6.147 3.3 9.823 0.61 1.877 0.73 7.264-2.35 4.303-1.85-3.319-1.78-7.355-4.6-10.178-0.94-1.473-5.66-6.089-3.64-1.774 1.38 3.615 2.29 7.448 2.65 11.302-0.3 3.234-3.9 3.472-5.35 0.903-2.49-1.429-2-5.283-5.22-6.481-2.57-2.206-5.7-3.449-8.98-4.03-6.51-0.994-13.35-1.209-19.59 1.21-3.34 0.519-6.02 2.649-9.26 3.457-3.58 1.593-7.39 2.678-10.88 4.417-2.5 2.38-5.74 3.785-8.08 6.345-2.44 2.75 4.38 0.321 6.01 0.584 2.31 0.076 7.56-1.949 6.8 2.162 0.46 1.522-0.56 1.979-1.87 2.232-3 0.596-4.96 2.917-7.16 4.789-5.15 2.835-8.96 8.262-15.09 9.126-3.83 0.052-7.95-0.139-11.08-2.617-1.44-1.228-4.29-1.594-2.14 0.792 0.47 3.675 3.95 5.925 6.36 8.475 1.11 3.63-4.84 0.95-5.87-0.83-1.97-1.41-3.78-4.09-4.62-5.616-0.25 3.126-0.62 6.986 1.69 9.336 1.74 3.16 4.6 5.72 7.9 7.17 2.58 1.19 8.02-0.66 8.03 3.57-1.41 1.71-4 2.25-3.56 5.08-1.37 4.2-6.06 5.32-8.73 8.39-2.77 2.66-6.79 2.21-10.2 3.4 1.77 1.38 6.37 0.58 9.21 0.91 2.01-0.6 7.16 0.72 3.8 3.06-3.76 0.98-7.73 0.74-11.59 1.13-2.8-0.32 0.74 1.66 1.55 2.17 3.44 1.53 7.38 1.71 10.67 3.57 2.9 3.44 4.03-5.48 7.62-1.89 2.45 3.16-2.85 5.58-3.22 8.67-0.93 3.86-1.32 7.89-1.22 11.84 2.8-1.49 5.48-2.9 8.85-3.24 2.44-0.4 7.73-4.94 8.04-0.75-1.73 2.72-5.58 3.79-8.48 5.18-3.92 0.13-5.33 4.8-1.32 6.36 3.43 0.7 4.58 4.71 7.46 5.59 1.6-1.14 5.33-3.72 4.81 0.26-0.87 4-5.09 3.93-8.24 3.72-3.23-1.06-4.65-4.57-8.07-5.5-1.2-1.07-2.75-3.1-2.82-0.06-0.22 2.46 3.87 2.99 3.93 5.88 1.8 3.4 7.27 0.6 8.12 5.37 1.16 2.52 1.99 5.78 5.15 6.48 1.87 1.63 8.06-0.1 6.95 3.27-2.92 2.37-6.9 0.47-10.05-0.24-3.92-2.48-6.69-6.62-11.24-8.13-1.67 0.46-3.23-2.23-4.02-1.48 0.01 3.8 3.57 6.07 6.75 7.27 2.78 0.07 5.64 4.54 1.43 4.84-2.88 0.02-7.29-4.75-6.84 1.06-0.32 4.21 3.84 6.81 7.07 8.61 4.1 2.41 8.98 2.43 13.51 1.52 9.12-0.81 18.3-0.8 27.45-1.1 2.45-1.44 6.34-0.76 6.36-4.62-4.71-1.11-9.8-1.89-13.59-5.19-1.72-1.45-6.66-5.77-2.88-6.92 3.65 0.92 7.61 2.21 10.87-0.54 3.51-1.81 6.93-4.29 8.16-8.24 1.37-3.2 0.81-6.95-0.31-10.12-1.38-3.32-0.69-7.14-2.46-10.29-1.22-2.78-4.8-2.68-7.4-3.05-1.97-0.17 1.63 2.01 1.69 2.89 1.73 2.68 3.05 5.2 6.08 6.47 1.28 1.73-0.31 2.82-1.81 3.01 3.97 1.32 1.12 6.17-2.3 5.99-3.16 0.54-6.78-0.32-9.01-2.67 1.5-2.35-3.04-1.57-2.53-4.36-1.68-2.81-0.76-7.28 2.72-8.25-0.11-1.31-7.74-0.9-7.06 2.51 0.3 3.12-5.25-0.81-5.94-2.35-0.41-4.54 6.26-2.94 9.08-4.02 1.63-0.11 5.07-1.37 1.29-1.52-3.03 0.4-4.1-2.21-5.58-3.81-1.6-0.18-1.87-2.83-0.15-2.36 1.09-3.35 4.65 1.77 6.99 1.44 2.7 0.75 7.68 1.41 8.99 2.12-1.28-2.91-1.77-6.13-3.73-8.72-1.21-3.02-2.81-5.76-2.89-9.09-1.3-5.16-1.14-10.69 0.08-15.85 0.15-4.08-4.01 1.41-5.47 2.27-2.38 2.08-0.43 7.04-5.12 6.66-3.88-0.2-3.79-5.33-4.83-8.18-1.12-3.75-0.96-7.73-0.45-11.53-2.85-0.52-6.41 2.43-8.77 4.4-1.82 1.44-4.46 6.85-6.47 2.73 1.36-2.92 2.56-6.21 5.22-8.38 2.44-2.43 5.38-4.27 8.43-5.79 2.44-3.48 7.04-2.12 10.59-2.74 3.75-2.35 4.24 3.45 1.72 5.22-2.62 3.07-3.68 7.14-4.63 10.97-0.11 4.17 4.66-0.8 6.07-1.97 3.17-1.9 7.42-2.3 9.22-5.99 1.51-3.39 8.19-2.01 4.06 1.38-1.86 2.81-2.44 6.18-3.56 9.28-0.34 3.31-1.54 6.82-1.26 9.97-1.07 3.18 1.25 6.51 1 9.89 1.1 3.5 2.93 6.79 4.28 10.18 1.96 2.73 3.26 5.34 5.02 8.23 1.99 4.06 4.29 8.03 5.37 12.45 1.66 3.96 0.39 8.32 0.3 12.44-0.13 3.66-2.55 6.67-5.76 8.26-2.28 1.54-4.55 3.11-6.83 4.66 4.05-0.32 8.35-0.99 11.34-4.02 2.82-2.33 5.26-5.12 7.1-8.26 3.38 0.93-0.42 5.85-1.09 8.08-2.16 2.3-3.79 5.39-7.03 6.31-1.63 1.12-5.4 0.54-5.89 2.36 4.92 1.22 9.99-0.5 14.74-1.81 3.57-0.61 6.06-3.24 9.03-5 3.4-2.63 7.14-4.97 9.72-8.49 3.52-1.76 0.67 4.13-0.43 5.3-2.62 3.47-6.14 6.22-9.73 8.56-2.41 1.95-5.42 3.58-6.31 6.82-0.2 2.44-5.17 6.01-3.85 7.29 4.82-1.84 8.84-5.16 12.38-8.84 1.26-1.93 4.11-1.93 2.64 0.89-1.81 3.97-4.52 8.06-8.81 9.61-0.87 0.91-5.93 1.89-4.49 3.04 3.95 0.28 7.97-0.95 11.6-2.45 3.25-0.52 5.8-2.4 8.72-3.77 2.89-2.37 5.73 1.46 2.53 3.37-3.47 1.4-0.41 5.63-0.31 8.39 0.53 2.57 2.4 8.92 5.62 6.73 3.12-5.71 4.1-12.26 5.96-18.4 3.64-1.8 2.14 4.98 1.71 7.05-1.22 3.98-1.7 8.18-3.43 11.98-0.18 3.69 3.82-0.35 4.33-1.6zm-77.99-34.73c-2.3-0.65-4.04-4.5-0.56-4.56 3.49 0.44 6.32 7.55 0.93 4.9l-0.37-0.34zm65.49-29.91c0.2-3.03 2.43-5.66 3.47-8.51 3.85-8.02 4.88-17.03 4.5-25.82-0.04-3.66-0.25-7.32-0.74-10.94-1.78-2.91-2.48-6.36-3.85-9.55 0.93-3.32 4.36 2.61 4.9 4.44 1.82 3.75 2.68 7.84 3.34 11.91 0.05 3.65 0.34 7.3 0.41 10.94-0.76 3.73-0.83 7.59-1.88 11.25-2.07 5.74-4.56 11.59-8.71 16.15-0.37 0.35-1.05 0.6-1.44 0.13zm-79.39-15.04c-1.35-1.83-3.85 1.98-5.36-0.85-2.69-1.76-4.55-4.68-4.49-7.96-0.78-2.57 1.6-4.58 3.32-5.06-0.74-1.63-2.42-3.27-1.75-5.15 3.81-2.41 4.6 4.22 7.32 5.71 1.43-1.64-1.83-5.66-2.56-7.86-1.19-1.81-5.44-5.9-0.45-5.45 2.92 1.54 6.39 3.37 7 6.91 1.23 3.8 1.16 8.17 3.68 11.42 0.24 2.54-4.1 2.02-2.37 4.83 0.49 2.09-2.47 6.19-4.34 3.46zm0.11-5.21c-1.04-3.67-1.74 2.02 0.03 0.94v-0.42l-0.03-0.52zm-4.03-3.48c1.73-3.23-3.4-1.87-1.86 0.93 0.88 3.62 1.05 0.77 1.86-0.93zm70.69 8.05c-0.64-4.75 0.16-9.65-1.23-14.3-0.11-3.38-1.73-6.36-3-9.39-0.78-3.29-2.65-6.23-2.66-9.72-0.52-4.23-0.47-8.69 1.64-12.53 0.62-1.77 3.93-5.309-0.19-3.89-3.25 0.88-5.53 3.49-8.07 5.48-1.26 3.23-3.88 5.98-3.95 9.61-0.17 2.06-0.05 8.56-3.23 5.36-0.6-4.56 0.31-9.29 2.66-13.26 1.86-4 4.83-7.47 8.83-9.446 2.99-1.466 6.38-3.372 9.81-2.528 2.82 0.363 4.91 3.472 1.23 4.594-3.63 3.72-5.91 8.93-5 14.19-0.03 5.45 2.31 10.47 4.27 15.43 1.66 5.72 1.69 11.82 1.18 17.71-0.24 0.89-0.96 3.63-2.29 2.69zm35.8-24.64c-1.37-3.24-0.91-6.98-2.36-10.24-1.14-3.17-3.16-5.9-5.06-8.6-2.64-3.34-6.16-5.94-10.01-7.703-3.19-4.443 5.14-1.995 6.68-0.199 6.75 4.362 11.27 11.622 13.33 19.292 0.37 2.49 0.05 6.91-2.02 7.89l-0.56-0.44zm-48.53-35.142c-2.16-3.272-6.76-3.839-10.33-4.681-4.99-0.253-10.22-0.364-14.99 1.367-3.51 1.035-1.98-3.077 0.57-3.045 2.87-2.229 6.76-1.296 10.13-1.722 5.63-0.338 11.41 0.561 16.63 2.698 2.55 1.309 1.22 8.663-1.83 5.82l-0.18-0.437zm-170.93 139.6c-1.85-2.62-1.06 1.48 0.23 0.59l-0.23-0.59zm69.55-12.25c-1.98-3.28-3.22 5.91-0.53 1.69 0.41-0.43 0.99-1.08 0.53-1.69zm89.16-10.28c2.22-1.1-2.35-1.38-1.56 0.73 0.42-0.4 0.95-0.73 1.56-0.73zm-8.29-31.85c0-2.48-3.9 0.16-5.5-0.33 1.83 0.36 3.66 1.97 5.5 0.33zm-2.02-4.38c1.08-1.17-1.79-4.07-2.91-4.61-1.77 1.69-2.72 4.75 0.63 5.39 1.05 0.74 1.37-0.7 2.28-0.78zm-125.42-4.6c-2.5-2.63-6.2-4.07-7.82-7.48-2-1.49-3.15-5.06 0.23-5.5 2.88 2.38 3.39 6.74 7.01 8.46 3.28 1.79 0.1-3.33-0.9-4.12 0.13-4.04-3.47-6.95-6.06-9.62-2.4-2.13-5.2-4.94-8.68-4.39 1.3 2.74 2.99 5.76 2.96 9.03-0.29 4.25 1.27 8.71 4.96 11.1 2.47 1.25 5.62 2.54 8.3 2.52zm85.93-75.816c0.14-1.315-2.84 1.194-0.41 0.31l0.41-0.31zm-10.38-37.997c1.1-1.72 1.1 1.72 0 0z"/>
  </g>
</svg>
