<?xml version="1.0" standalone="no"?>
<!DOCTYPE svg PUBLIC "-//W3C//DTD SVG 20010904//EN"
 "http://www.w3.org/TR/2001/REC-SVG-20010904/DTD/svg10.dtd">
<svg version="1.0" xmlns="http://www.w3.org/2000/svg"
 width="1920.000000pt" height="1080.000000pt" viewBox="0 0 1920.000000 1080.000000"
 preserveAspectRatio="xMidYMid meet">

<g transform="translate(0.000000,1080.000000) scale(0.100000,-0.100000)"
fill="#000000" stroke="none">
<path d="M11228 9912 c-48 -59 -121 -143 -162 -187 l-75 -80 -38 45 c-91 109
-172 166 -290 206 -196 66 -453 29 -715 -102 -98 -49 -252 -144 -245 -151 3
-2 58 10 123 26 212 54 295 65 479 65 197 0 265 -13 390 -74 75 -37 175 -111
175 -130 0 -5 -25 -28 -55 -52 l-55 -43 -128 0 c-175 -1 -312 -40 -465 -131
-75 -45 -209 -149 -255 -197 l-33 -34 33 -28 c47 -40 210 -116 322 -151 53
-16 96 -32 96 -35 0 -17 -54 -13 -125 8 -44 13 -83 23 -88 23 -5 0 -6 -18 -2
-41 5 -30 3 -44 -6 -50 -11 -7 -10 -9 3 -9 10 0 29 -17 42 -39 66 -103 204
-168 401 -186 67 -7 73 -6 102 19 30 26 34 26 95 16 92 -15 128 -13 135 6 8
21 -14 38 -76 60 -25 10 -49 20 -53 24 -5 3 2 33 14 65 44 125 22 322 -58 494
-19 41 -33 80 -30 86 2 5 20 18 39 29 34 18 37 18 93 0 31 -10 93 -39 137 -66
44 -26 82 -46 85 -44 15 15 -41 171 -82 233 l-26 37 22 23 c12 13 25 23 28 23
11 0 76 -147 95 -215 10 -33 46 -130 80 -215 98 -242 145 -416 164 -600 8 -83
10 -89 101 -245 115 -198 246 -400 297 -457 51 -56 83 -99 83 -109 0 -5 -29
-9 -64 -9 -100 0 -164 -16 -268 -69 -156 -79 -284 -98 -305 -45 -3 9 3 45 14
80 12 35 19 64 17 64 -10 0 -94 -99 -136 -160 -84 -124 -112 -244 -74 -318 25
-48 87 -88 166 -106 38 -9 71 -16 74 -16 3 0 24 28 47 62 142 209 292 248 434
113 l38 -35 -60 -39 c-152 -98 -204 -264 -143 -464 12 -42 21 -79 18 -82 -2
-3 -31 5 -64 16 -32 12 -84 22 -114 23 -52 1 -61 -3 -175 -75 -66 -42 -216
-133 -333 -203 -117 -71 -212 -130 -209 -132 2 -2 57 14 121 36 164 55 288 80
393 80 110 0 162 -21 186 -73 21 -43 21 -60 2 -122 -8 -27 -13 -50 -11 -52 2
-2 26 20 53 47 57 57 108 151 149 278 15 45 30 82 34 82 15 0 30 -54 30 -105
0 -45 -9 -71 -54 -162 -30 -59 -76 -136 -101 -171 l-46 -63 -42 34 c-106 86
-98 83 -420 131 -190 27 -296 39 -294 32 7 -22 139 -125 206 -160 37 -19 99
-43 136 -51 95 -22 156 -56 224 -124 74 -74 106 -138 106 -211 0 -50 -5 -62
-50 -127 -27 -40 -54 -73 -59 -73 -6 0 -39 28 -75 63 -35 34 -61 55 -58 47 2
-8 33 -82 67 -164 34 -82 65 -166 67 -186 6 -43 -20 -230 -46 -332 -43 -165
-98 -264 -157 -281 -37 -11 -171 31 -479 151 -259 100 -666 269 -678 281 -4 4
-1 26 7 47 81 207 110 528 66 713 -39 160 -128 285 -247 341 -58 28 -184 38
-262 21 -29 -6 -112 -39 -184 -72 -434 -201 -493 -222 -622 -223 -105 -1 -148
17 -209 85 -45 49 -59 81 -177 384 -104 269 -181 427 -244 508 -58 73 -163
157 -390 309 -114 77 -179 127 -179 137 1 9 7 42 13 74 14 69 3 144 -33 214
-61 121 -390 376 -668 519 -222 113 -389 161 -529 151 -118 -8 -154 -29 -307
-180 -378 -372 -583 -630 -707 -889 -102 -214 -130 -334 -140 -618 -7 -190
-25 -320 -54 -386 -19 -41 -20 -42 -80 -49 -34 -4 -61 -10 -61 -14 0 -12 57
-41 82 -41 13 0 32 6 43 14 11 7 52 17 90 20 l70 7 52 -103 c29 -56 50 -104
48 -106 -2 -2 -26 1 -53 8 -28 6 -80 12 -117 12 -135 1 -158 -59 -105 -272 11
-41 28 -102 40 -134 11 -33 20 -65 20 -72 0 -8 -25 -20 -58 -29 -90 -26 -91
-26 -50 -43 21 -8 38 -17 38 -21 0 -3 -26 -24 -58 -46 -82 -57 -143 -115 -158
-152 -44 -104 17 -329 141 -526 29 -45 41 -57 56 -52 10 3 28 8 39 11 16 4 20
1 20 -21 0 -14 9 -45 19 -68 28 -61 43 -160 35 -225 -9 -75 -19 -100 -49 -124
-84 -66 -78 -210 17 -441 22 -53 42 -97 43 -97 1 0 50 18 109 40 221 83 483
151 578 149 31 0 2 -9 -107 -33 -276 -61 -456 -120 -505 -166 -28 -26 -30 -33
-30 -99 0 -58 4 -75 20 -91 11 -11 25 -20 30 -20 6 0 10 -8 10 -19 0 -10 13
-70 30 -132 l30 -114 -21 -95 c-24 -112 -29 -269 -10 -350 43 -178 153 -287
341 -337 98 -26 309 -23 470 7 151 27 289 30 379 6 294 -77 476 -369 556 -893
26 -174 39 -489 27 -683 -10 -171 -6 -208 19 -183 17 17 32 301 25 488 -19
517 -114 872 -290 1090 -172 213 -379 276 -710 216 -65 -11 -133 -21 -150 -20
-36 1 -64 -7 354 111 845 238 1649 507 1911 638 121 61 130 72 187 222 56 148
213 603 318 921 l69 207 105 0 c439 0 795 162 979 445 29 44 54 81 55 82 2 2
68 -24 147 -58 428 -181 954 -379 1009 -379 69 0 136 74 185 203 30 81 71 281
80 392 7 76 5 84 -28 168 -20 48 -33 87 -30 87 4 0 14 -7 23 -15 23 -21 51 -9
45 19 -4 14 10 46 45 100 58 92 67 129 51 200 -15 65 -57 130 -129 198 -69 66
-122 95 -219 119 -40 10 -91 28 -115 40 -50 25 -131 79 -126 84 2 2 105 -11
230 -30 218 -32 229 -35 280 -69 30 -19 64 -46 76 -59 l22 -23 -34 -33 -34
-33 39 -83 c22 -46 42 -98 45 -115 12 -59 59 -48 95 22 30 58 23 131 -19 198
l-31 50 56 83 c31 45 77 124 102 176 37 78 46 107 49 163 4 63 2 73 -27 119
-17 28 -30 63 -30 77 1 15 -8 56 -21 92 -17 49 -23 87 -23 150 0 123 6 134 94
155 163 40 315 147 369 260 29 62 34 182 8 230 -25 46 -68 86 -120 109 -33 14
-58 36 -80 67 -18 26 -61 81 -95 122 -65 81 -174 251 -298 466 -61 107 -75
139 -75 174 0 130 -80 426 -175 652 -24 55 -59 148 -78 207 -20 58 -49 133
-66 166 l-30 60 21 18 c11 11 77 84 145 164 69 80 129 146 133 148 26 10 95
-429 140 -888 32 -331 29 -310 51 -310 19 0 20 5 15 53 -4 28 -15 147 -27 262
-42 430 -99 800 -140 910 -11 30 -23 55 -27 55 -4 0 -46 -49 -94 -108z m-636
-36 c129 -28 240 -98 323 -204 l45 -56 -26 -27 -26 -27 -62 49 c-129 105 -280
156 -486 166 -114 5 -202 -2 -395 -32 -53 -9 125 72 220 100 162 47 286 56
407 31z m356 -459 c19 -37 32 -70 30 -72 -4 -4 -154 58 -164 68 -9 9 70 77 85
74 8 -1 30 -33 49 -70z m-268 -26 c0 -5 -13 -14 -30 -21 -16 -7 -30 -14 -30
-17 0 -2 20 -45 45 -96 85 -176 112 -365 68 -487 -22 -60 -34 -65 -98 -40
l-30 12 35 30 35 30 -50 -7 c-27 -3 -59 -8 -70 -11 -20 -5 -20 -5 -1 10 11 9
26 16 33 16 7 0 13 5 13 10 0 6 -38 11 -92 11 -83 1 -89 3 -55 12 20 6 37 13
37 17 0 3 -35 15 -77 25 -158 37 -446 150 -467 184 -12 19 154 152 274 219 73
41 180 81 260 97 75 15 200 19 200 6z m-493 -567 c-3 -3 -12 -4 -19 -1 -8 3
-5 6 6 6 11 1 17 -2 13 -5z m184 -51 c8 -8 -6 -18 -46 -37 -71 -32 -75 -32
-108 2 -46 48 -38 55 58 50 47 -2 90 -9 96 -15z m139 -47 c0 -2 -21 -20 -46
-39 -53 -42 -54 -41 69 -57 107 -15 120 -35 15 -25 -115 12 -268 59 -268 83 0
4 39 15 88 24 87 16 142 21 142 14z m112 -34 c44 -16 62 -39 28 -36 -127 13
-132 15 -114 35 20 22 25 23 86 1z m-4270 -393 c258 -52 616 -251 893 -497 95
-85 132 -138 151 -215 15 -61 16 -72 1 -129 -8 -35 -18 -70 -22 -80 -5 -13 28
-39 152 -121 459 -303 476 -325 693 -882 55 -143 116 -284 135 -313 68 -101
172 -150 297 -138 120 11 262 64 591 220 159 75 210 89 310 84 99 -5 154 -29
220 -94 161 -162 195 -480 90 -851 -14 -51 -31 -100 -38 -109 -11 -15 -37 -6
-261 94 -1278 566 -2100 1038 -2247 1290 -32 56 -35 58 -123 91 -49 18 -131
44 -182 56 -70 18 -101 31 -129 56 -43 37 -134 80 -213 100 -36 9 -109 14
-215 13 -132 -1 -182 -5 -285 -27 -195 -41 -530 -153 -530 -178 0 -8 157 -328
166 -338 2 -2 36 27 76 64 251 230 577 341 904 306 119 -12 133 -20 172 -90
l22 -39 -45 -33 c-57 -41 -85 -85 -85 -134 0 -26 -4 -35 -12 -32 -265 117
-471 114 -710 -10 -80 -41 -92 -51 -132 -112 -50 -75 -86 -158 -86 -199 0 -63
56 -100 121 -81 22 7 41 10 44 7 3 -3 -1 -37 -10 -77 -23 -109 -31 -101 98
-101 262 1 471 62 568 167 24 26 51 58 59 69 12 18 57 31 243 73 126 29 234
54 242 57 26 10 178 -220 241 -369 88 -204 86 -361 -4 -426 -31 -22 -66 -31
-202 -57 -260 -48 -499 -226 -649 -483 -50 -84 -71 -138 -106 -266 -52 -191
-173 -491 -295 -730 -80 -156 -154 -277 -249 -405 -126 -170 -212 -365 -263
-592 -18 -80 -23 -134 -23 -241 l0 -139 -65 7 c-240 25 -380 132 -421 326 -15
70 -6 276 16 364 l17 70 -31 115 c-24 91 -28 117 -18 127 6 7 72 56 146 110
74 54 136 104 139 110 11 35 -38 16 -168 -62 -78 -47 -152 -87 -164 -88 -19
-2 -21 3 -24 57 -2 44 1 63 14 77 39 43 327 126 634 184 189 35 181 32 140 58
-99 62 -405 14 -767 -121 -61 -22 -84 -27 -91 -19 -11 15 -62 142 -61 154 0 4
12 -17 27 -47 30 -61 50 -70 113 -51 47 14 100 74 130 148 l23 56 220 -6 c122
-3 265 -11 319 -18 196 -25 146 31 -168 186 -115 57 -236 111 -269 121 -70 19
-144 13 -228 -21 -32 -12 -69 -20 -83 -17 -23 4 -25 8 -19 36 19 82 -7 293
-37 312 -5 3 -9 20 -9 39 0 31 3 35 39 45 98 26 231 50 283 50 154 0 309 129
295 246 -7 64 -42 110 -136 180 -47 35 -90 64 -94 64 -5 0 13 -26 41 -57 62
-73 82 -112 82 -161 0 -27 -7 -45 -23 -60 -30 -29 -102 -59 -159 -67 -42 -6
-55 -3 -117 29 -109 56 -140 49 -155 -37 -4 -20 -25 -66 -48 -102 -32 -49 -48
-66 -71 -71 -36 -8 -49 5 -103 102 -81 145 -123 323 -95 407 13 39 47 70 189
170 77 54 90 67 76 75 -14 8 -12 11 14 20 l31 11 -40 118 c-22 65 -47 159 -56
210 -15 84 -15 93 0 116 9 15 29 26 50 30 37 6 154 -13 232 -37 27 -8 51 -14
52 -12 4 3 -125 257 -153 302 -12 19 -17 20 -70 12 -31 -5 -58 -7 -60 -5 -2 2
5 39 16 83 15 55 24 138 30 274 17 338 40 448 130 639 130 271 298 486 668
855 157 156 186 180 233 197 61 21 153 24 231 8z m5499 -665 c65 -153 32 -314
-86 -422 -54 -49 -152 -108 -163 -98 -12 12 105 113 151 131 26 10 47 22 47
27 0 5 -23 34 -51 64 -101 106 -213 134 -323 80 -55 -27 -156 -125 -192 -185
-21 -36 -48 -39 -115 -16 -138 49 -149 163 -32 348 l24 38 28 -30 c27 -29 34
-31 98 -31 78 0 178 32 257 80 64 40 140 58 249 59 l88 1 20 -46z m116 -26
c20 -22 42 -86 43 -124 1 -71 -29 -134 -96 -202 -35 -36 -67 -63 -70 -59 -4 4
0 15 8 24 69 79 92 253 48 367 -5 15 -10 32 -10 37 0 12 55 -19 77 -43z
m-5331 -783 c73 -14 204 -66 204 -81 0 -4 -40 -3 -89 0 -162 13 -375 -22 -531
-87 -132 -55 -282 -151 -354 -226 -17 -17 -35 -31 -41 -31 -6 0 -39 57 -73
126 -49 98 -60 129 -50 135 29 19 350 119 443 138 198 43 360 51 491 26z
m4846 -141 c70 -23 72 -29 42 -125 -36 -117 -94 -236 -105 -218 -5 8 -9 22 -9
31 0 26 -50 79 -95 99 -47 22 -185 26 -279 8 -32 -6 -60 -9 -62 -6 -2 2 81 56
184 121 182 114 188 117 232 111 25 -3 66 -13 92 -21z m-4337 -60 c58 -19 106
-42 115 -54 8 -11 33 -45 55 -76 176 -249 989 -710 2205 -1250 151 -67 276
-126 277 -131 2 -5 -18 -43 -45 -84 -55 -84 -172 -198 -255 -247 -185 -111
-430 -171 -697 -172 l-125 0 -148 -443 c-188 -563 -280 -813 -309 -844 -90
-97 -791 -348 -1797 -643 -255 -74 -638 -180 -654 -180 -14 0 -2 222 18 315
25 121 89 306 141 406 26 49 80 136 121 192 106 144 175 259 264 437 128 256
242 546 289 733 73 286 316 558 589 657 45 17 126 37 179 46 66 10 113 24 147
43 105 59 132 185 79 367 -43 150 -162 368 -256 470 -34 37 -47 45 -68 40 -14
-3 -119 -28 -235 -55 -115 -28 -212 -48 -214 -45 -3 3 -4 19 -3 37 2 22 -5 43
-24 67 l-26 35 4 -39 c6 -52 -16 -65 -139 -77 -295 -28 -397 -47 -563 -103
-68 -23 -76 -24 -97 -11 -13 9 -23 24 -23 34 0 34 29 101 74 171 41 63 52 73
124 109 132 66 210 86 342 86 93 0 129 -5 190 -23 97 -31 162 -64 231 -118 50
-38 58 -42 70 -28 10 12 4 22 -39 63 -46 42 -52 52 -52 88 0 50 25 83 88 120
26 15 49 28 51 29 2 2 -11 31 -28 64 l-30 62 37 -7 c20 -4 82 -22 137 -41z
m-375 -524 c0 -5 -10 -12 -22 -15 -13 -3 -77 -16 -143 -30 -153 -33 -161 -36
-169 -75 -3 -18 -21 -47 -40 -66 -40 -40 -78 -44 -145 -13 -55 24 -136 89
-124 99 28 23 264 69 423 81 74 6 150 14 170 19 49 11 50 11 50 0z m-45 -83
c-20 -31 -91 -82 -149 -107 -52 -22 -156 -51 -156 -43 0 3 9 18 20 34 12 15
25 41 31 57 9 27 17 30 122 54 150 34 152 34 132 5z m4733 -27 c12 -24 22 -59
22 -77 0 -32 -18 -83 -29 -83 -3 0 -22 38 -42 84 l-36 84 21 21 c27 28 37 23
64 -29z m-5294 -85 c18 -13 50 -32 72 -42 l39 -18 -47 -3 c-27 -2 -67 -2 -91
0 l-43 3 9 43 c4 23 13 42 18 42 6 0 25 -11 43 -25z m-548 -892 c18 -98 -117
-213 -253 -213 -32 0 -110 -11 -173 -24 -63 -13 -117 -23 -119 -21 -2 2 10 23
27 47 17 24 33 62 37 86 8 52 19 53 94 10 47 -27 66 -32 116 -31 124 1 245 74
245 147 0 47 17 46 26 -1z m-216 -734 c47 -10 476 -217 467 -225 -2 -2 -64 0
-138 6 -74 5 -204 10 -290 10 l-156 0 -22 -61 c-27 -74 -95 -149 -134 -149
-22 0 -30 8 -47 48 -32 71 -60 181 -60 232 1 66 25 93 86 95 27 1 59 7 71 13
29 16 121 41 153 41 14 0 45 -4 70 -10z"/>
</g>
</svg>
