<?xml version="1.0" standalone="no"?>
<!DOCTYPE svg PUBLIC "-//W3C//DTD SVG 20010904//EN"
 "http://www.w3.org/TR/2001/REC-SVG-20010904/DTD/svg10.dtd">
<svg version="1.0" xmlns="http://www.w3.org/2000/svg"
 width="2019.000000pt" height="2190.000000pt" viewBox="0 0 2019.000000 2190.000000"
 preserveAspectRatio="xMidYMid meet">

<g transform="translate(0.000000,2190.000000) scale(0.100000,-0.100000)"
fill="#000000" stroke="none">
<path d="M11130 18533 c-19 -2 -85 -12 -145 -23 -317 -55 -1339 -557 -1719
-844 -208 -157 -328 -329 -362 -518 -16 -86 -15 -104 12 -351 12 -108 13 -156
5 -225 -35 -282 -181 -525 -411 -682 -150 -102 -292 -143 -585 -170 -194 -17
-341 -39 -413 -61 -116 -36 -239 -106 -314 -180 -151 -148 -178 -314 -92 -562
86 -247 87 -248 88 -342 1 -109 -17 -165 -73 -219 -33 -32 -56 -43 -152 -70
-146 -41 -228 -85 -310 -166 -163 -162 -202 -328 -138 -590 19 -76 33 -164 36
-226 l6 -101 -62 -33 c-72 -39 -177 -145 -210 -214 -13 -25 -25 -65 -28 -89
-3 -23 -16 -62 -28 -87 -34 -68 -38 -120 -19 -275 17 -147 23 -332 12 -375 -5
-16 -52 -62 -126 -123 -315 -257 -452 -479 -453 -733 0 -181 44 -288 185 -444
232 -257 508 -445 1130 -767 665 -344 916 -510 1171 -774 587 -608 936 -1467
1090 -2682 33 -261 57 -528 105 -1147 44 -568 69 -831 101 -1065 77 -563 233
-906 513 -1131 460 -368 1063 -199 1475 415 73 109 142 227 266 461 134 251
238 425 331 550 97 130 325 360 461 463 240 182 526 327 793 403 120 34 132
40 128 67 -4 32 -50 28 -194 -18 -577 -181 -1076 -574 -1387 -1092 -36 -59
-126 -221 -200 -359 -74 -138 -161 -292 -192 -342 -248 -403 -540 -627 -873
-672 -393 -53 -776 251 -942 748 -100 298 -135 563 -220 1657 -83 1072 -141
1490 -275 2010 -225 872 -636 1576 -1163 1994 -215 170 -403 283 -917 551
-642 335 -841 465 -1091 715 -115 114 -136 140 -172 215 -97 198 -76 390 66
610 53 83 218 257 265 281 12 6 -28 -38 -89 -98 -162 -160 -238 -281 -270
-434 -48 -225 49 -456 259 -615 123 -93 212 -124 512 -179 343 -64 718 -162
1445 -380 770 -231 1045 -305 1405 -379 373 -76 627 -105 965 -113 563 -12
937 56 1153 211 116 82 187 171 350 441 132 218 216 327 299 390 139 106 258
138 594 160 332 21 490 55 704 149 400 176 773 545 970 958 75 159 95 238 95
393 0 115 -3 136 -23 182 -30 65 -51 84 -175 159 -116 69 -168 126 -193 212
-18 61 -13 95 23 169 28 56 25 83 -7 83 -23 0 -62 -55 -80 -114 -18 -57 -7
-156 24 -220 34 -69 98 -128 216 -199 100 -60 119 -78 141 -142 21 -60 16
-214 -10 -310 -28 -105 -112 -277 -194 -398 -277 -407 -611 -666 -1015 -786
-129 -38 -264 -58 -492 -71 -361 -22 -504 -67 -660 -207 -78 -71 -150 -168
-265 -358 -138 -228 -187 -294 -273 -377 -151 -143 -322 -204 -692 -244 -184
-20 -573 -23 -760 -5 -303 29 -677 94 -1009 176 -272 67 -468 123 -1016 287
-866 259 -1175 339 -1587 413 -79 14 -165 33 -193 42 -195 61 -381 239 -436
413 -67 215 15 429 248 650 108 102 163 169 192 235 17 38 26 45 77 65 105 39
231 59 439 70 277 14 296 17 374 56 254 127 270 408 31 529 -105 53 -246 50
-446 -11 -139 -42 -224 -52 -290 -34 -51 15 -114 69 -114 99 0 10 39 54 89
100 77 70 138 147 186 235 7 11 39 27 88 41 42 12 86 30 96 39 34 31 54 87 66
191 7 56 20 116 29 133 45 87 167 81 262 -13 52 -52 62 -72 138 -286 39 -110
91 -194 171 -274 124 -125 238 -165 305 -109 43 37 60 74 60 134 0 65 -18 106
-89 205 -109 151 -144 208 -236 386 -134 258 -211 358 -339 441 -78 50 -141
68 -241 68 -67 0 -90 -4 -132 -26 -121 -60 -192 -202 -196 -394 -1 -44 -5 -80
-8 -80 -9 0 -29 116 -29 161 1 56 19 120 57 197 69 141 198 238 373 282 214
54 288 154 277 374 -5 104 -8 116 -88 341 -38 107 -42 130 -43 215 -1 88 1
100 32 162 64 131 226 245 416 293 53 13 183 32 305 44 262 26 386 50 496 95
279 113 505 374 587 676 28 104 31 286 8 509 -13 129 -13 151 2 222 46 219
208 398 548 606 366 222 795 436 1221 608 212 86 338 108 604 108 212 0 359
-20 541 -72 541 -158 931 -455 1136 -866 95 -189 133 -347 132 -550 0 -168
-20 -260 -119 -535 -128 -355 -142 -475 -95 -767 13 -79 12 -203 -1 -244 -18
-51 -55 -97 -102 -122 -36 -19 -57 -22 -152 -22 -96 1 -118 4 -173 27 -103 43
-171 89 -257 173 -109 107 -162 192 -319 506 -145 289 -176 342 -273 466 -317
408 -843 673 -1343 676 -184 1 -388 -59 -540 -158 -77 -50 -104 -77 -125 -128
-19 -46 -11 -80 26 -111 53 -45 106 -45 474 0 279 33 595 -24 875 -157 283
-135 559 -380 674 -599 88 -168 89 -331 3 -457 -36 -52 -125 -113 -164 -113
-16 0 -52 29 -116 93 -50 50 -127 116 -170 144 -51 35 -111 89 -174 158 -165
183 -513 471 -652 541 -160 81 -330 83 -437 6 -37 -27 -42 -28 -75 -17 -142
50 -280 11 -333 -93 -49 -97 -41 -198 26 -309 60 -100 204 -213 303 -239 32
-9 74 -26 94 -38 20 -13 52 -28 71 -34 92 -29 1303 -275 1375 -280 95 -5 147
7 211 51 95 63 160 181 171 308 31 363 -439 847 -994 1023 -270 86 -494 105
-793 66 -187 -24 -298 -26 -326 -6 -19 15 -19 15 1 52 53 100 330 218 543 231
163 11 421 -36 613 -112 263 -104 494 -266 675 -472 113 -130 173 -226 314
-510 157 -314 208 -398 307 -503 179 -190 383 -280 574 -252 126 18 195 67
240 167 19 42 23 67 22 155 0 58 -7 156 -17 218 -32 222 -15 331 98 651 115
321 121 352 121 571 0 120 -5 204 -13 240 -109 447 -393 809 -812 1035 -268
144 -542 233 -815 265 -84 9 -367 11 -445 3z m-835 -2197 c110 -29 199 -86
425 -270 88 -72 262 -237 256 -243 -5 -5 -93 38 -351 174 -185 97 -201 108
-218 144 -29 60 -88 91 -174 88 -59 -1 -77 3 -135 32 -38 18 -68 37 -68 42 0
4 19 17 43 27 50 23 149 26 222 6z m-423 -47 l38 -10 -29 -58 c-56 -110 -77
-266 -50 -364 6 -22 8 -41 6 -43 -10 -10 -155 138 -180 185 -63 114 -36 246
57 287 37 16 107 18 158 3z m172 -76 l54 -26 -36 -50 c-31 -42 -37 -60 -40
-114 -4 -53 0 -72 23 -118 15 -32 42 -66 63 -82 20 -15 41 -30 46 -35 5 -4
-11 -17 -37 -28 -151 -67 -267 87 -223 297 17 84 62 183 82 183 7 0 38 -12 68
-27z m239 -114 c62 -32 77 -44 77 -62 -1 -35 -34 -98 -82 -151 -44 -49 -44
-49 -80 -37 -46 15 -94 69 -108 121 -14 53 0 104 42 147 37 38 37 38 151 -18z
m308 -160 c85 -45 207 -108 273 -141 65 -32 117 -61 115 -63 -12 -11 -636 70
-653 85 -4 4 10 31 32 59 22 28 46 68 52 88 13 40 19 53 24 53 2 0 73 -36 157
-81z m-180 -203 c180 -31 458 -63 609 -72 l115 -7 70 -46 c70 -46 220 -180
211 -189 -6 -6 -1276 260 -1276 267 1 8 102 68 116 70 6 1 75 -10 155 -23z
m-3403 -1730 c159 -43 282 -179 436 -484 67 -132 133 -238 239 -384 69 -97 84
-137 68 -189 -23 -76 -74 -82 -165 -20 -109 75 -192 188 -242 330 -93 261
-121 306 -227 360 -53 27 -78 34 -124 34 -126 0 -184 -69 -202 -240 -5 -49
-14 -100 -20 -115 -11 -29 -31 -38 -31 -14 0 8 -14 43 -30 78 -93 199 -74 469
43 585 69 70 146 88 255 59z m-350 -689 c24 -55 22 -81 -5 -91 -9 -4 -17 -5
-18 -4 -6 6 -10 148 -5 148 3 0 15 -24 28 -53z m-148 -227 c0 -13 -151 -172
-157 -166 -9 9 57 94 103 135 50 44 54 46 54 31z m-113 -456 c25 -12 66 -17
123 -18 73 0 106 6 230 44 129 39 156 44 245 44 85 0 107 -3 147 -23 61 -30
124 -98 138 -150 30 -111 -75 -248 -224 -293 -17 -5 -118 -13 -225 -18 -259
-13 -406 -34 -513 -75 -16 -7 -18 2 -18 96 0 57 -7 158 -15 224 -15 128 -19
237 -9 248 4 4 24 -9 45 -28 21 -19 56 -42 76 -51z"/>
</g>
</svg>
